<svg xmlns="http://www.w3.org/2000/svg" xmlns:xlink="http://www.w3.org/1999/xlink" width="500" zoomAndPan="magnify" viewBox="0 0 375 374.999991" height="500" preserveAspectRatio="xMidYMid meet" version="1.0"><defs><clipPath id="4516e33968"><path d="M 8.328125 43.550781 L 367 43.550781 L 367 362.714844 L 8.328125 362.714844 Z M 8.328125 43.550781 " clip-rule="nonzero"/></clipPath><clipPath id="81513eefc0"><path d="M 35.328125 43.550781 L 339.671875 43.550781 C 346.832031 43.550781 353.699219 46.394531 358.761719 51.457031 C 363.828125 56.519531 366.671875 63.386719 366.671875 70.550781 L 366.671875 335.714844 C 366.671875 342.875 363.828125 349.742188 358.761719 354.804688 C 353.699219 359.871094 346.832031 362.714844 339.671875 362.714844 L 35.328125 362.714844 C 28.167969 362.714844 21.300781 359.871094 16.238281 354.804688 C 11.171875 349.742188 8.328125 342.875 8.328125 335.714844 L 8.328125 70.550781 C 8.328125 63.386719 11.171875 56.519531 16.238281 51.457031 C 21.300781 46.394531 28.167969 43.550781 35.328125 43.550781 Z M 35.328125 43.550781 " clip-rule="nonzero"/></clipPath><clipPath id="1390075312"><path d="M 8.328125 43.554688 L 366.433594 43.554688 L 366.433594 363 L 8.328125 363 Z M 8.328125 43.554688 " clip-rule="nonzero"/></clipPath><clipPath id="626789cc34"><path d="M 35.328125 43.554688 L 339.660156 43.554688 C 346.820312 43.554688 353.6875 46.398438 358.75 51.460938 C 363.8125 56.523438 366.65625 63.390625 366.65625 70.550781 L 366.65625 335.707031 C 366.65625 342.867188 363.8125 349.734375 358.75 354.800781 C 353.6875 359.863281 346.820312 362.707031 339.660156 362.707031 L 35.328125 362.707031 C 28.167969 362.707031 21.300781 359.863281 16.238281 354.800781 C 11.171875 349.734375 8.328125 342.867188 8.328125 335.707031 L 8.328125 70.550781 C 8.328125 63.390625 11.171875 56.523438 16.238281 51.460938 C 21.300781 46.398438 28.167969 43.554688 35.328125 43.554688 Z M 35.328125 43.554688 " clip-rule="nonzero"/></clipPath><clipPath id="8471752bef"><path d="M 59.046875 98.035156 L 316.210938 98.035156 L 316.210938 215 L 59.046875 215 Z M 59.046875 98.035156 " clip-rule="nonzero"/></clipPath><clipPath id="d4ac378cdf"><path d="M 59.046875 191 L 316.210938 191 L 316.210938 308.332031 L 59.046875 308.332031 Z M 59.046875 191 " clip-rule="nonzero"/></clipPath></defs><g clip-path="url(#4516e33968)"><g clip-path="url(#81513eefc0)"><path fill="#5e17eb" d="M 8.328125 43.550781 L 366.140625 43.550781 L 366.140625 362.714844 L 8.328125 362.714844 Z M 8.328125 43.550781 " fill-opacity="1" fill-rule="nonzero"/></g></g><g clip-path="url(#1390075312)"><g clip-path="url(#626789cc34)"><path stroke-linecap="butt" transform="matrix(1.201691, 0, 0, 1.201691, 8.328942, 43.553695)" fill="none" stroke-linejoin="miter" d="M 22.467661 0.000826136 L 275.720834 0.000826136 C 281.679235 0.000826136 287.393839 2.367283 291.606653 6.580097 C 295.819467 10.792911 298.185924 16.507515 298.185924 22.465916 L 298.185924 243.118542 C 298.185924 249.076943 295.819467 254.791547 291.606653 259.007611 C 287.393839 263.220425 281.679235 265.586882 275.720834 265.586882 L 22.467661 265.586882 C 16.50926 265.586882 10.794656 263.220425 6.581842 259.007611 C 2.365778 254.791547 -0.00067957 249.076943 -0.00067957 243.118542 L -0.00067957 22.465916 C -0.00067957 16.507515 2.365778 10.792911 6.581842 6.580097 C 10.794656 2.367283 16.50926 0.000826136 22.467661 0.000826136 Z M 22.467661 0.000826136 " stroke="#000000" stroke-width="4.992964" stroke-opacity="1" stroke-miterlimit="4"/></g></g><g clip-path="url(#8471752bef)"><path fill="#000000" d="M 304.515625 214.867188 C 303.371094 214.863281 302.222656 214.808594 301.082031 214.695312 C 299.9375 214.582031 298.804688 214.410156 297.679688 214.1875 C 296.554688 213.960938 295.441406 213.683594 294.34375 213.347656 C 293.242188 213.015625 292.164062 212.628906 291.105469 212.1875 C 290.042969 211.75 289.007812 211.257812 287.996094 210.71875 C 286.980469 210.175781 286 209.585938 285.042969 208.949219 C 284.089844 208.3125 283.167969 207.628906 282.28125 206.898438 C 281.394531 206.171875 280.542969 205.402344 279.730469 204.589844 C 278.921875 203.777344 278.148438 202.929688 277.421875 202.042969 C 276.691406 201.15625 276.007812 200.234375 275.371094 199.28125 C 274.734375 198.328125 274.144531 197.34375 273.601562 196.332031 C 273.058594 195.320312 272.570312 194.285156 272.128906 193.222656 C 271.691406 192.164062 271.304688 191.085938 270.96875 189.988281 C 270.636719 188.890625 270.355469 187.777344 270.128906 186.652344 C 269.90625 185.527344 269.738281 184.394531 269.621094 183.25 C 269.507812 182.109375 269.453125 180.964844 269.449219 179.816406 L 269.449219 133.085938 C 269.449219 132.316406 269.375 131.558594 269.226562 130.804688 C 269.078125 130.054688 268.855469 129.320312 268.5625 128.613281 C 268.265625 127.90625 267.90625 127.230469 267.480469 126.59375 C 267.054688 125.957031 266.570312 125.367188 266.027344 124.824219 C 265.484375 124.28125 264.894531 123.796875 264.257812 123.371094 C 263.617188 122.945312 262.945312 122.585938 262.234375 122.289062 C 261.527344 121.996094 260.796875 121.777344 260.042969 121.625 C 259.289062 121.476562 258.53125 121.402344 257.761719 121.402344 L 117.496094 121.402344 C 116.730469 121.402344 115.96875 121.476562 115.214844 121.625 C 114.464844 121.777344 113.734375 121.996094 113.023438 122.289062 C 112.316406 122.585938 111.640625 122.945312 111.003906 123.371094 C 110.363281 123.796875 109.773438 124.28125 109.230469 124.824219 C 108.6875 125.367188 108.203125 125.957031 107.777344 126.59375 C 107.351562 127.230469 106.992188 127.90625 106.699219 128.613281 C 106.402344 129.320312 106.183594 130.054688 106.03125 130.804688 C 105.882812 131.558594 105.808594 132.316406 105.808594 133.085938 L 105.808594 179.816406 C 105.808594 180.964844 105.75 182.109375 105.636719 183.25 C 105.523438 184.394531 105.351562 185.527344 105.128906 186.652344 C 104.902344 187.777344 104.625 188.890625 104.289062 189.988281 C 103.957031 191.085938 103.570312 192.164062 103.128906 193.222656 C 102.6875 194.285156 102.199219 195.320312 101.65625 196.332031 C 101.117188 197.34375 100.527344 198.328125 99.886719 199.28125 C 99.25 200.234375 98.566406 201.15625 97.835938 202.042969 C 97.109375 202.929688 96.339844 203.777344 95.527344 204.589844 C 94.714844 205.402344 93.867188 206.171875 92.976562 206.898438 C 92.089844 207.628906 91.167969 208.3125 90.214844 208.949219 C 89.261719 209.585938 88.277344 210.175781 87.265625 210.71875 C 86.253906 211.257812 85.214844 211.75 84.15625 212.1875 C 83.09375 212.628906 82.015625 213.015625 80.917969 213.347656 C 79.816406 213.683594 78.707031 213.960938 77.582031 214.1875 C 76.453125 214.410156 75.320312 214.582031 74.175781 214.695312 C 73.035156 214.808594 71.890625 214.863281 70.742188 214.867188 C 69.972656 214.867188 69.214844 214.792969 68.460938 214.640625 C 67.707031 214.492188 66.976562 214.269531 66.269531 213.976562 C 65.558594 213.683594 64.886719 213.324219 64.246094 212.898438 C 63.609375 212.472656 63.019531 211.988281 62.476562 211.445312 C 61.933594 210.902344 61.449219 210.3125 61.023438 209.675781 C 60.597656 209.035156 60.234375 208.363281 59.941406 207.652344 C 59.648438 206.945312 59.425781 206.214844 59.277344 205.460938 C 59.128906 204.710938 59.050781 203.949219 59.050781 203.183594 C 59.050781 202.414062 59.128906 201.65625 59.277344 200.902344 C 59.425781 200.152344 59.648438 199.421875 59.941406 198.710938 C 60.234375 198.003906 60.597656 197.332031 61.023438 196.691406 C 61.449219 196.054688 61.933594 195.464844 62.476562 194.921875 C 63.019531 194.378906 63.609375 193.894531 64.246094 193.46875 C 64.886719 193.042969 65.558594 192.683594 66.269531 192.390625 C 66.976562 192.097656 67.707031 191.875 68.460938 191.722656 C 69.214844 191.574219 69.972656 191.5 70.742188 191.5 C 71.507812 191.5 72.269531 191.425781 73.023438 191.277344 C 73.773438 191.125 74.503906 190.902344 75.214844 190.609375 C 75.921875 190.316406 76.597656 189.957031 77.234375 189.53125 C 77.875 189.105469 78.464844 188.621094 79.007812 188.078125 C 79.550781 187.535156 80.035156 186.945312 80.460938 186.308594 C 80.886719 185.667969 81.246094 184.996094 81.539062 184.289062 C 81.835938 183.578125 82.054688 182.847656 82.207031 182.097656 C 82.355469 181.34375 82.429688 180.585938 82.429688 179.816406 L 82.429688 133.085938 C 82.429688 131.9375 82.488281 130.792969 82.601562 129.648438 C 82.714844 128.507812 82.886719 127.375 83.109375 126.25 C 83.335938 125.125 83.613281 124.011719 83.949219 122.914062 C 84.28125 121.816406 84.667969 120.738281 85.109375 119.675781 C 85.550781 118.617188 86.039062 117.582031 86.582031 116.570312 C 87.121094 115.558594 87.710938 114.574219 88.351562 113.621094 C 88.988281 112.667969 89.671875 111.746094 90.402344 110.859375 C 91.128906 109.972656 91.898438 109.121094 92.710938 108.3125 C 93.523438 107.5 94.371094 106.730469 95.261719 106 C 96.148438 105.273438 97.070312 104.589844 98.023438 103.953125 C 98.976562 103.316406 99.960938 102.726562 100.972656 102.183594 C 101.984375 101.644531 103.023438 101.152344 104.082031 100.710938 C 105.144531 100.273438 106.222656 99.886719 107.320312 99.550781 C 108.417969 99.21875 109.53125 98.9375 110.65625 98.714844 C 111.785156 98.488281 112.917969 98.320312 114.0625 98.207031 C 115.203125 98.09375 116.347656 98.035156 117.496094 98.035156 L 257.761719 98.035156 C 258.910156 98.035156 260.054688 98.09375 261.199219 98.207031 C 262.339844 98.320312 263.476562 98.488281 264.601562 98.714844 C 265.726562 98.9375 266.839844 99.21875 267.9375 99.550781 C 269.035156 99.886719 270.117188 100.273438 271.175781 100.710938 C 272.238281 101.152344 273.273438 101.644531 274.285156 102.183594 C 275.296875 102.726562 276.28125 103.316406 277.234375 103.953125 C 278.191406 104.589844 279.109375 105.273438 280 106 C 280.886719 106.730469 281.734375 107.5 282.546875 108.3125 C 283.359375 109.121094 284.128906 109.972656 284.859375 110.859375 C 285.585938 111.746094 286.269531 112.667969 286.90625 113.621094 C 287.546875 114.574219 288.136719 115.558594 288.675781 116.570312 C 289.21875 117.582031 289.710938 118.617188 290.148438 119.675781 C 290.589844 120.738281 290.976562 121.816406 291.3125 122.914062 C 291.644531 124.011719 291.925781 125.125 292.148438 126.25 C 292.375 127.375 292.542969 128.507812 292.65625 129.648438 C 292.769531 130.792969 292.828125 131.9375 292.828125 133.085938 L 292.828125 179.816406 C 292.828125 180.585938 292.902344 181.34375 293.054688 182.097656 C 293.203125 182.847656 293.425781 183.578125 293.71875 184.289062 C 294.011719 184.996094 294.371094 185.667969 294.796875 186.308594 C 295.226562 186.945312 295.710938 187.535156 296.253906 188.078125 C 296.792969 188.621094 297.386719 189.105469 298.023438 189.53125 C 298.660156 189.957031 299.335938 190.316406 300.042969 190.609375 C 300.753906 190.902344 301.484375 191.125 302.238281 191.277344 C 302.988281 191.425781 303.75 191.5 304.515625 191.5 C 305.285156 191.5 306.046875 191.574219 306.796875 191.722656 C 307.550781 191.875 308.28125 192.097656 308.992188 192.390625 C 309.699219 192.683594 310.375 193.042969 311.011719 193.46875 C 311.648438 193.894531 312.238281 194.378906 312.78125 194.921875 C 313.324219 195.464844 313.808594 196.054688 314.234375 196.691406 C 314.664062 197.332031 315.023438 198.003906 315.316406 198.710938 C 315.609375 199.421875 315.832031 200.152344 315.980469 200.902344 C 316.132812 201.65625 316.207031 202.414062 316.207031 203.183594 C 316.207031 203.949219 316.132812 204.710938 315.980469 205.460938 C 315.832031 206.214844 315.609375 206.945312 315.316406 207.652344 C 315.023438 208.363281 314.664062 209.035156 314.234375 209.675781 C 313.808594 210.3125 313.324219 210.902344 312.78125 211.445312 C 312.238281 211.988281 311.648438 212.472656 311.011719 212.898438 C 310.375 213.324219 309.699219 213.683594 308.992188 213.976562 C 308.28125 214.269531 307.550781 214.492188 306.796875 214.640625 C 306.046875 214.792969 305.285156 214.867188 304.515625 214.867188 Z M 304.515625 214.867188 " fill-opacity="1" fill-rule="nonzero"/></g><g clip-path="url(#d4ac378cdf)"><path fill="#000000" d="M 257.761719 308.332031 L 117.496094 308.332031 C 116.347656 308.328125 115.203125 308.273438 114.0625 308.160156 C 112.917969 308.046875 111.785156 307.875 110.65625 307.652344 C 109.53125 307.425781 108.417969 307.148438 107.320312 306.8125 C 106.222656 306.480469 105.144531 306.09375 104.082031 305.652344 C 103.023438 305.214844 101.984375 304.722656 100.972656 304.183594 C 99.960938 303.640625 98.976562 303.050781 98.023438 302.414062 C 97.070312 301.777344 96.148438 301.09375 95.261719 300.363281 C 94.371094 299.636719 93.523438 298.867188 92.710938 298.054688 C 91.898438 297.242188 91.128906 296.394531 90.402344 295.507812 C 89.671875 294.621094 88.988281 293.699219 88.351562 292.746094 C 87.710938 291.792969 87.121094 290.808594 86.582031 289.796875 C 86.039062 288.785156 85.550781 287.75 85.109375 286.6875 C 84.667969 285.628906 84.28125 284.550781 83.949219 283.453125 C 83.613281 282.355469 83.335938 281.242188 83.109375 280.117188 C 82.886719 278.992188 82.714844 277.859375 82.601562 276.714844 C 82.488281 275.574219 82.429688 274.429688 82.429688 273.28125 L 82.429688 226.550781 C 82.429688 225.78125 82.355469 225.023438 82.207031 224.269531 C 82.054688 223.519531 81.835938 222.785156 81.539062 222.078125 C 81.246094 221.371094 80.886719 220.695312 80.460938 220.058594 C 80.035156 219.421875 79.550781 218.832031 79.007812 218.289062 C 78.464844 217.746094 77.875 217.261719 77.234375 216.835938 C 76.597656 216.410156 75.921875 216.050781 75.214844 215.753906 C 74.503906 215.460938 73.773438 215.242188 73.023438 215.089844 C 72.269531 214.941406 71.507812 214.867188 70.742188 214.867188 C 69.972656 214.867188 69.214844 214.792969 68.460938 214.640625 C 67.707031 214.492188 66.976562 214.269531 66.269531 213.976562 C 65.558594 213.683594 64.886719 213.324219 64.246094 212.898438 C 63.609375 212.472656 63.019531 211.988281 62.476562 211.445312 C 61.933594 210.902344 61.449219 210.3125 61.023438 209.675781 C 60.597656 209.035156 60.234375 208.363281 59.941406 207.652344 C 59.648438 206.945312 59.425781 206.214844 59.277344 205.460938 C 59.128906 204.710938 59.050781 203.949219 59.050781 203.183594 C 59.050781 202.414062 59.128906 201.65625 59.277344 200.902344 C 59.425781 200.152344 59.648438 199.421875 59.941406 198.710938 C 60.234375 198.003906 60.597656 197.332031 61.023438 196.691406 C 61.449219 196.054688 61.933594 195.464844 62.476562 194.921875 C 63.019531 194.378906 63.609375 193.894531 64.246094 193.46875 C 64.886719 193.042969 65.558594 192.683594 66.269531 192.390625 C 66.976562 192.097656 67.707031 191.875 68.460938 191.722656 C 69.214844 191.574219 69.972656 191.5 70.742188 191.5 C 71.890625 191.5 73.035156 191.558594 74.175781 191.671875 C 75.320312 191.785156 76.453125 191.953125 77.582031 192.179688 C 78.707031 192.402344 79.816406 192.683594 80.917969 193.015625 C 82.015625 193.351562 83.09375 193.738281 84.15625 194.175781 C 85.214844 194.617188 86.253906 195.109375 87.265625 195.648438 C 88.277344 196.191406 89.261719 196.78125 90.214844 197.417969 C 91.167969 198.054688 92.089844 198.738281 92.976562 199.464844 C 93.867188 200.195312 94.714844 200.964844 95.527344 201.777344 C 96.339844 202.585938 97.109375 203.4375 97.835938 204.324219 C 98.566406 205.210938 99.25 206.132812 99.886719 207.085938 C 100.527344 208.039062 101.117188 209.023438 101.65625 210.035156 C 102.199219 211.046875 102.6875 212.082031 103.128906 213.140625 C 103.570312 214.203125 103.957031 215.28125 104.289062 216.378906 C 104.625 217.476562 104.902344 218.589844 105.128906 219.714844 C 105.351562 220.839844 105.523438 221.972656 105.636719 223.113281 C 105.75 224.257812 105.808594 225.402344 105.808594 226.550781 L 105.808594 273.28125 C 105.808594 274.050781 105.882812 274.808594 106.03125 275.5625 C 106.183594 276.3125 106.402344 277.042969 106.699219 277.753906 C 106.992188 278.460938 107.351562 279.132812 107.777344 279.773438 C 108.203125 280.410156 108.6875 281 109.230469 281.542969 C 109.773438 282.085938 110.363281 282.570312 111.003906 282.996094 C 111.640625 283.421875 112.316406 283.78125 113.023438 284.074219 C 113.734375 284.367188 114.464844 284.589844 115.214844 284.742188 C 115.96875 284.890625 116.730469 284.964844 117.496094 284.964844 L 257.761719 284.964844 C 258.53125 284.964844 259.289062 284.890625 260.042969 284.742188 C 260.796875 284.589844 261.527344 284.367188 262.234375 284.074219 C 262.945312 283.78125 263.617188 283.421875 264.257812 282.996094 C 264.894531 282.570312 265.484375 282.085938 266.027344 281.542969 C 266.570312 281 267.054688 280.410156 267.480469 279.773438 C 267.90625 279.132812 268.265625 278.460938 268.5625 277.753906 C 268.855469 277.042969 269.078125 276.3125 269.226562 275.5625 C 269.375 274.808594 269.449219 274.050781 269.449219 273.28125 L 269.449219 226.550781 C 269.453125 225.402344 269.507812 224.257812 269.621094 223.113281 C 269.738281 221.972656 269.90625 220.839844 270.128906 219.714844 C 270.355469 218.589844 270.636719 217.476562 270.96875 216.378906 C 271.304688 215.28125 271.691406 214.203125 272.128906 213.140625 C 272.570312 212.082031 273.058594 211.046875 273.601562 210.035156 C 274.144531 209.023438 274.734375 208.039062 275.371094 207.085938 C 276.007812 206.132812 276.691406 205.210938 277.421875 204.324219 C 278.148438 203.4375 278.921875 202.585938 279.730469 201.777344 C 280.542969 200.964844 281.394531 200.195312 282.28125 199.464844 C 283.167969 198.738281 284.089844 198.054688 285.042969 197.417969 C 286 196.78125 286.980469 196.191406 287.996094 195.648438 C 289.007812 195.109375 290.042969 194.617188 291.105469 194.175781 C 292.164062 193.738281 293.242188 193.351562 294.34375 193.015625 C 295.441406 192.683594 296.554688 192.402344 297.679688 192.179688 C 298.804688 191.953125 299.9375 191.785156 301.082031 191.671875 C 302.222656 191.558594 303.371094 191.5 304.515625 191.5 C 305.285156 191.5 306.046875 191.574219 306.796875 191.722656 C 307.550781 191.875 308.28125 192.097656 308.992188 192.390625 C 309.699219 192.683594 310.375 193.042969 311.011719 193.46875 C 311.648438 193.894531 312.238281 194.378906 312.78125 194.921875 C 313.324219 195.464844 313.808594 196.054688 314.234375 196.691406 C 314.664062 197.332031 315.023438 198.003906 315.316406 198.710938 C 315.609375 199.421875 315.832031 200.152344 315.980469 200.902344 C 316.132812 201.65625 316.207031 202.414062 316.207031 203.183594 C 316.207031 203.949219 316.132812 204.710938 315.980469 205.460938 C 315.832031 206.214844 315.609375 206.945312 315.316406 207.652344 C 315.023438 208.363281 314.664062 209.035156 314.234375 209.675781 C 313.808594 210.3125 313.324219 210.902344 312.78125 211.445312 C 312.238281 211.988281 311.648438 212.472656 311.011719 212.898438 C 310.375 213.324219 309.699219 213.683594 308.992188 213.976562 C 308.28125 214.269531 307.550781 214.492188 306.796875 214.640625 C 306.046875 214.792969 305.285156 214.867188 304.515625 214.867188 C 303.75 214.867188 302.988281 214.941406 302.238281 215.089844 C 301.484375 215.242188 300.753906 215.460938 300.042969 215.753906 C 299.335938 216.050781 298.660156 216.410156 298.023438 216.835938 C 297.386719 217.261719 296.792969 217.746094 296.253906 218.289062 C 295.710938 218.832031 295.226562 219.421875 294.796875 220.058594 C 294.371094 220.695312 294.011719 221.371094 293.71875 222.078125 C 293.425781 222.785156 293.203125 223.519531 293.054688 224.269531 C 292.902344 225.023438 292.828125 225.78125 292.828125 226.550781 L 292.828125 273.28125 C 292.828125 274.429688 292.769531 275.574219 292.65625 276.714844 C 292.542969 277.859375 292.375 278.992188 292.148438 280.117188 C 291.925781 281.242188 291.644531 282.355469 291.3125 283.453125 C 290.976562 284.550781 290.589844 285.628906 290.148438 286.6875 C 289.710938 287.75 289.21875 288.785156 288.675781 289.796875 C 288.136719 290.808594 287.546875 291.792969 286.90625 292.746094 C 286.269531 293.699219 285.585938 294.621094 284.859375 295.507812 C 284.128906 296.394531 283.359375 297.242188 282.546875 298.054688 C 281.734375 298.867188 280.886719 299.636719 280 300.363281 C 279.109375 301.09375 278.191406 301.777344 277.234375 302.414062 C 276.28125 303.050781 275.296875 303.640625 274.285156 304.183594 C 273.273438 304.722656 272.238281 305.214844 271.175781 305.652344 C 270.117188 306.09375 269.035156 306.480469 267.9375 306.8125 C 266.839844 307.148438 265.726562 307.425781 264.601562 307.652344 C 263.476562 307.875 262.339844 308.046875 261.199219 308.160156 C 260.054688 308.273438 258.910156 308.328125 257.761719 308.332031 Z M 257.761719 308.332031 " fill-opacity="1" fill-rule="nonzero"/></g><path fill="#000000" d="M 199.316406 261.597656 L 152.5625 261.597656 C 151.796875 261.597656 151.035156 261.523438 150.28125 261.375 C 149.53125 261.222656 148.800781 261.003906 148.089844 260.710938 C 147.382812 260.414062 146.707031 260.054688 146.070312 259.628906 C 145.429688 259.203125 144.839844 258.71875 144.296875 258.175781 C 143.753906 257.632812 143.269531 257.042969 142.84375 256.40625 C 142.417969 255.769531 142.058594 255.09375 141.765625 254.386719 C 141.46875 253.675781 141.25 252.945312 141.097656 252.195312 C 140.949219 251.441406 140.875 250.683594 140.875 249.914062 L 140.875 156.449219 C 140.875 155.683594 140.949219 154.921875 141.097656 154.171875 C 141.25 153.417969 141.46875 152.6875 141.765625 151.980469 C 142.058594 151.269531 142.417969 150.597656 142.84375 149.960938 C 143.269531 149.320312 143.753906 148.730469 144.296875 148.191406 C 144.839844 147.648438 145.429688 147.164062 146.070312 146.738281 C 146.707031 146.308594 147.382812 145.949219 148.089844 145.65625 C 148.800781 145.363281 149.53125 145.140625 150.28125 144.992188 C 151.035156 144.84375 151.796875 144.765625 152.5625 144.765625 L 193.472656 144.765625 C 195.070312 144.769531 196.660156 144.878906 198.242188 145.09375 C 199.824219 145.3125 201.386719 145.636719 202.925781 146.066406 C 204.460938 146.5 205.964844 147.03125 207.429688 147.667969 C 208.894531 148.304688 210.308594 149.035156 211.675781 149.863281 C 213.039062 150.695312 214.339844 151.613281 215.582031 152.621094 C 216.820312 153.625 217.984375 154.714844 219.078125 155.878906 C 220.167969 157.046875 221.175781 158.28125 222.097656 159.585938 C 223.019531 160.886719 223.847656 162.246094 224.582031 163.664062 C 225.320312 165.082031 225.957031 166.542969 226.492188 168.046875 C 227.027344 169.550781 227.460938 171.082031 227.789062 172.644531 C 228.113281 174.207031 228.332031 175.785156 228.445312 177.378906 C 228.554688 178.972656 228.558594 180.566406 228.449219 182.15625 C 228.34375 183.75 228.128906 185.328125 227.808594 186.894531 C 227.484375 188.457031 227.058594 189.992188 226.523438 191.496094 C 225.992188 193 225.359375 194.464844 224.628906 195.882812 C 223.894531 197.300781 223.070312 198.664062 222.152344 199.96875 C 223.5 201.128906 224.753906 202.382812 225.914062 203.734375 C 227.070312 205.085938 228.121094 206.515625 229.0625 208.023438 C 230.003906 209.535156 230.824219 211.105469 231.523438 212.742188 C 232.226562 214.375 232.796875 216.054688 233.242188 217.773438 C 233.6875 219.496094 234 221.242188 234.179688 223.011719 C 234.359375 224.78125 234.40625 226.554688 234.316406 228.328125 C 234.222656 230.105469 234 231.863281 233.640625 233.605469 C 233.285156 235.347656 232.796875 237.054688 232.175781 238.722656 C 231.558594 240.390625 230.820312 242 229.957031 243.554688 C 229.09375 245.109375 228.117188 246.589844 227.027344 247.996094 C 225.9375 249.40625 224.75 250.71875 223.460938 251.945312 C 222.171875 253.171875 220.796875 254.292969 219.335938 255.308594 C 217.875 256.324219 216.347656 257.226562 214.75 258.011719 C 213.152344 258.792969 211.507812 259.453125 209.808594 259.984375 C 208.113281 260.519531 206.382812 260.921875 204.625 261.191406 C 202.867188 261.460938 201.097656 261.597656 199.316406 261.597656 Z M 164.25 238.230469 L 199.316406 238.230469 C 200.085938 238.230469 200.847656 238.15625 201.597656 238.007812 C 202.351562 237.859375 203.082031 237.636719 203.792969 237.34375 C 204.5 237.050781 205.175781 236.691406 205.8125 236.261719 C 206.449219 235.835938 207.039062 235.351562 207.582031 234.808594 C 208.125 234.269531 208.609375 233.679688 209.039062 233.039062 C 209.464844 232.402344 209.824219 231.730469 210.117188 231.019531 C 210.410156 230.3125 210.632812 229.582031 210.78125 228.828125 C 210.933594 228.078125 211.007812 227.316406 211.007812 226.550781 C 211.007812 225.78125 210.933594 225.023438 210.78125 224.269531 C 210.632812 223.519531 210.410156 222.785156 210.117188 222.078125 C 209.824219 221.371094 209.464844 220.695312 209.035156 220.058594 C 208.609375 219.421875 208.125 218.832031 207.582031 218.289062 C 207.039062 217.746094 206.449219 217.261719 205.8125 216.835938 C 205.175781 216.410156 204.5 216.050781 203.792969 215.753906 C 203.082031 215.460938 202.351562 215.242188 201.597656 215.089844 C 200.847656 214.941406 200.085938 214.867188 199.316406 214.867188 L 164.25 214.867188 Z M 164.25 191.5 L 193.472656 191.5 C 194.242188 191.5 195 191.425781 195.753906 191.277344 C 196.507812 191.125 197.238281 190.902344 197.945312 190.609375 C 198.65625 190.316406 199.328125 189.957031 199.96875 189.53125 C 200.605469 189.105469 201.195312 188.621094 201.738281 188.078125 C 202.28125 187.535156 202.765625 186.945312 203.191406 186.308594 C 203.617188 185.667969 203.980469 184.996094 204.273438 184.289062 C 204.566406 183.578125 204.789062 182.847656 204.9375 182.097656 C 205.085938 181.34375 205.164062 180.585938 205.164062 179.816406 C 205.164062 179.050781 205.085938 178.289062 204.9375 177.539062 C 204.789062 176.785156 204.566406 176.054688 204.273438 175.347656 C 203.980469 174.636719 203.617188 173.964844 203.191406 173.324219 C 202.765625 172.6875 202.28125 172.097656 201.738281 171.554688 C 201.195312 171.011719 200.605469 170.527344 199.96875 170.101562 C 199.328125 169.675781 198.65625 169.316406 197.945312 169.023438 C 197.238281 168.730469 196.507812 168.507812 195.753906 168.359375 C 195 168.207031 194.242188 168.132812 193.472656 168.132812 L 164.25 168.132812 Z M 164.25 191.5 " fill-opacity="1" fill-rule="nonzero"/></svg>