<svg xmlns="http://www.w3.org/2000/svg" xmlns:xlink="http://www.w3.org/1999/xlink" width="500" zoomAndPan="magnify" viewBox="0 0 375 374.999991" height="500" preserveAspectRatio="xMidYMid meet" version="1.0"><defs><clipPath id="a6fb0e94d4"><path d="M 8.328125 43.550781 L 367 43.550781 L 367 362.714844 L 8.328125 362.714844 Z M 8.328125 43.550781 " clip-rule="nonzero"/></clipPath><clipPath id="e6c4c8242d"><path d="M 35.328125 43.550781 L 339.671875 43.550781 C 346.832031 43.550781 353.699219 46.394531 358.761719 51.457031 C 363.828125 56.519531 366.671875 63.386719 366.671875 70.550781 L 366.671875 335.714844 C 366.671875 342.875 363.828125 349.742188 358.761719 354.804688 C 353.699219 359.871094 346.832031 362.714844 339.671875 362.714844 L 35.328125 362.714844 C 28.167969 362.714844 21.300781 359.871094 16.238281 354.804688 C 11.171875 349.742188 8.328125 342.875 8.328125 335.714844 L 8.328125 70.550781 C 8.328125 63.386719 11.171875 56.519531 16.238281 51.457031 C 21.300781 46.394531 28.167969 43.550781 35.328125 43.550781 Z M 35.328125 43.550781 " clip-rule="nonzero"/></clipPath><clipPath id="ddd102d5a6"><path d="M 8.328125 43.554688 L 366.433594 43.554688 L 366.433594 363 L 8.328125 363 Z M 8.328125 43.554688 " clip-rule="nonzero"/></clipPath><clipPath id="d4741a21ad"><path d="M 35.328125 43.554688 L 339.660156 43.554688 C 346.820312 43.554688 353.6875 46.398438 358.75 51.460938 C 363.8125 56.523438 366.65625 63.390625 366.65625 70.550781 L 366.65625 335.707031 C 366.65625 342.867188 363.8125 349.734375 358.75 354.800781 C 353.6875 359.863281 346.820312 362.707031 339.660156 362.707031 L 35.328125 362.707031 C 28.167969 362.707031 21.300781 359.863281 16.238281 354.800781 C 11.171875 349.734375 8.328125 342.867188 8.328125 335.707031 L 8.328125 70.550781 C 8.328125 63.390625 11.171875 56.523438 16.238281 51.460938 C 21.300781 46.398438 28.167969 43.554688 35.328125 43.554688 Z M 35.328125 43.554688 " clip-rule="nonzero"/></clipPath><clipPath id="160ae45c91"><path d="M 88.789062 90.320312 L 285.867188 90.320312 L 285.867188 165 L 88.789062 165 Z M 88.789062 90.320312 " clip-rule="nonzero"/></clipPath><clipPath id="c94bf7306a"><path d="M 116 167 L 285.867188 167 L 285.867188 316.238281 L 116 316.238281 Z M 116 167 " clip-rule="nonzero"/></clipPath><clipPath id="d0b0eaae05"><path d="M 278 153 L 285.867188 153 L 285.867188 161 L 278 161 Z M 278 153 " clip-rule="nonzero"/></clipPath></defs><g clip-path="url(#a6fb0e94d4)"><g clip-path="url(#e6c4c8242d)"><path fill="#ffffff" d="M 8.328125 43.550781 L 366.140625 43.550781 L 366.140625 362.714844 L 8.328125 362.714844 Z M 8.328125 43.550781 " fill-opacity="1" fill-rule="nonzero"/></g></g><g clip-path="url(#ddd102d5a6)"><g clip-path="url(#d4741a21ad)"><path stroke-linecap="butt" transform="matrix(1.201691, 0, 0, 1.201691, 8.328942, 43.553695)" fill="none" stroke-linejoin="miter" d="M 22.467661 0.000826136 L 275.720834 0.000826136 C 281.679235 0.000826136 287.393839 2.367283 291.606653 6.580097 C 295.819467 10.792911 298.185924 16.507515 298.185924 22.465916 L 298.185924 243.118542 C 298.185924 249.076943 295.819467 254.791547 291.606653 259.007611 C 287.393839 263.220425 281.679235 265.586882 275.720834 265.586882 L 22.467661 265.586882 C 16.50926 265.586882 10.794656 263.220425 6.581842 259.007611 C 2.365778 254.791547 -0.00067957 249.076943 -0.00067957 243.118542 L -0.00067957 22.465916 C -0.00067957 16.507515 2.365778 10.792911 6.581842 6.580097 C 10.794656 2.367283 16.50926 0.000826136 22.467661 0.000826136 Z M 22.467661 0.000826136 " stroke="#000000" stroke-width="4.992964" stroke-opacity="1" stroke-miterlimit="4"/></g></g><path fill="#59caff" d="M 240.117188 93.851562 L 282.347656 136.210938 L 240.117188 136.210938 Z M 240.117188 93.851562 " fill-opacity="1" fill-rule="nonzero"/><path fill="#0096dc" d="M 282.347656 136.210938 L 282.347656 312.710938 L 120.464844 312.710938 L 120.464844 93.851562 L 240.117188 93.851562 L 240.117188 136.210938 Z M 282.347656 136.210938 " fill-opacity="1" fill-rule="nonzero"/><path fill="#006bc0" d="M 127.503906 122.089844 L 127.503906 291.53125 C 127.503906 292.457031 127.59375 293.375 127.773438 294.285156 C 127.953125 295.195312 128.21875 296.078125 128.574219 296.933594 C 128.925781 297.789062 129.359375 298.601562 129.875 299.375 C 130.386719 300.144531 130.972656 300.859375 131.625 301.515625 C 132.277344 302.167969 132.988281 302.753906 133.757812 303.269531 C 134.527344 303.785156 135.339844 304.21875 136.191406 304.574219 C 137.046875 304.929688 137.925781 305.195312 138.832031 305.378906 C 139.738281 305.558594 140.65625 305.648438 141.578125 305.648438 L 261.234375 305.648438 C 262.15625 305.648438 263.074219 305.558594 263.980469 305.378906 C 264.886719 305.195312 265.765625 304.929688 266.621094 304.574219 C 267.472656 304.21875 268.285156 303.785156 269.054688 303.269531 C 269.824219 302.753906 270.535156 302.167969 271.1875 301.515625 C 271.839844 300.859375 272.425781 300.144531 272.9375 299.375 C 273.453125 298.601562 273.886719 297.789062 274.238281 296.933594 C 274.59375 296.078125 274.859375 295.195312 275.039062 294.285156 C 275.21875 293.375 275.308594 292.457031 275.308594 291.53125 L 275.308594 284.035156 C 127.503906 274.898438 127.503906 122.089844 127.503906 122.089844 Z M 127.503906 122.089844 " fill-opacity="1" fill-rule="nonzero"/><path fill="#005599" d="M 243.636719 136.210938 L 282.347656 136.210938 L 282.347656 143.269531 L 243.636719 143.269531 Z M 243.636719 136.210938 " fill-opacity="1" fill-rule="nonzero"/><path fill="#f2f2f2" d="M 92.308594 104.441406 L 219.003906 104.441406 L 219.003906 160.921875 L 92.308594 160.921875 Z M 92.308594 104.441406 " fill-opacity="1" fill-rule="nonzero"/><path fill="#005599" d="M 120.464844 160.921875 L 211.964844 160.921875 L 211.964844 171.511719 L 120.464844 171.511719 Z M 120.464844 160.921875 " fill-opacity="1" fill-rule="nonzero"/><path fill="#005599" d="M 240.117188 270.351562 C 239.296875 271.445312 238.363281 272.429688 237.3125 273.308594 C 236.265625 274.183594 235.128906 274.929688 233.910156 275.542969 C 232.6875 276.15625 231.410156 276.617188 230.082031 276.933594 C 228.753906 277.25 227.40625 277.40625 226.042969 277.410156 L 222.523438 277.410156 L 222.523438 270.351562 L 226.042969 270.351562 L 226.042969 273.878906 L 229.558594 273.878906 C 231.464844 273.886719 233.320312 273.589844 235.128906 272.984375 C 236.933594 272.378906 238.597656 271.503906 240.117188 270.351562 Z M 240.117188 270.351562 " fill-opacity="1" fill-rule="nonzero"/><path fill="#005599" d="M 240.855469 242.25 C 240.339844 243.320312 240.09375 244.449219 240.117188 245.640625 L 240.117188 256.230469 C 240.117188 257.136719 240 258.03125 239.769531 258.90625 C 239.539062 259.785156 239.199219 260.617188 238.757812 261.410156 C 238.3125 262.199219 237.777344 262.921875 237.148438 263.574219 C 236.523438 264.230469 235.820312 264.792969 235.050781 265.265625 C 236.082031 263.578125 236.601562 261.742188 236.597656 259.757812 L 236.597656 249.167969 C 236.59375 248.449219 236.683594 247.746094 236.878906 247.050781 C 237.070312 246.359375 237.355469 245.707031 237.730469 245.09375 C 238.109375 244.480469 238.5625 243.933594 239.09375 243.449219 C 239.625 242.96875 240.210938 242.566406 240.855469 242.25 Z M 240.855469 242.25 " fill-opacity="1" fill-rule="nonzero"/><path fill="#005599" d="M 250.464844 243.273438 C 250.308594 243.792969 250.039062 244.238281 249.65625 244.617188 C 248.882812 245.386719 248.050781 246.078125 247.15625 246.699219 L 247.15625 245.394531 C 247.601562 245.019531 248.082031 244.703125 248.597656 244.441406 C 249.246094 244.089844 249.867188 243.703125 250.464844 243.273438 Z M 250.464844 243.273438 " fill-opacity="1" fill-rule="nonzero"/><path fill="#005599" d="M 244.621094 238.578125 C 243.074219 239.382812 241.855469 240.535156 240.960938 242.039062 C 240.308594 241.722656 239.707031 241.320312 239.164062 240.835938 C 238.625 240.347656 238.160156 239.796875 237.773438 239.179688 C 237.386719 238.558594 237.09375 237.898438 236.894531 237.199219 C 236.695312 236.496094 236.597656 235.78125 236.597656 235.050781 L 236.597656 224.460938 C 236.597656 223.765625 236.527344 223.078125 236.390625 222.394531 C 236.253906 221.714844 236.054688 221.054688 235.785156 220.414062 C 235.519531 219.769531 235.195312 219.160156 234.808594 218.585938 C 234.425781 218.007812 233.988281 217.472656 233.496094 216.980469 C 233.007812 216.488281 232.476562 216.050781 231.898438 215.664062 C 231.324219 215.277344 230.714844 214.953125 230.078125 214.683594 C 229.4375 214.417969 228.777344 214.214844 228.097656 214.078125 C 227.417969 213.941406 226.734375 213.871094 226.042969 213.871094 L 222.523438 213.871094 L 222.523438 206.808594 L 226.042969 206.808594 L 226.042969 210.339844 L 229.558594 210.339844 C 230.253906 210.34375 230.9375 210.410156 231.617188 210.550781 C 232.296875 210.6875 232.957031 210.886719 233.597656 211.15625 C 234.234375 211.421875 234.84375 211.75 235.417969 212.132812 C 235.992188 212.519531 236.527344 212.960938 237.015625 213.449219 C 237.507812 213.941406 237.945312 214.476562 238.328125 215.054688 C 238.714844 215.632812 239.039062 216.242188 239.304688 216.882812 C 239.570312 217.523438 239.773438 218.183594 239.910156 218.867188 C 240.046875 219.546875 240.117188 220.234375 240.117188 220.929688 L 240.117188 231.519531 C 240.117188 232.261719 240.21875 232.992188 240.425781 233.703125 C 240.632812 234.417969 240.9375 235.089844 241.335938 235.714844 C 241.734375 236.339844 242.214844 236.898438 242.773438 237.382812 C 243.332031 237.871094 243.949219 238.269531 244.621094 238.578125 Z M 244.621094 238.578125 " fill-opacity="1" fill-rule="nonzero"/><path fill="#005599" d="M 173.253906 273.878906 L 173.253906 277.410156 L 169.734375 277.410156 C 169.15625 277.410156 168.582031 277.382812 168.007812 277.324219 C 167.433594 277.269531 166.867188 277.183594 166.300781 277.070312 C 165.734375 276.957031 165.175781 276.816406 164.625 276.648438 C 164.074219 276.480469 163.53125 276.289062 163 276.066406 C 162.46875 275.84375 161.945312 275.597656 161.4375 275.324219 C 160.929688 275.054688 160.4375 274.757812 159.957031 274.433594 C 159.476562 274.113281 159.015625 273.769531 158.570312 273.402344 C 158.125 273.035156 157.699219 272.648438 157.289062 272.238281 C 156.882812 271.832031 156.496094 271.402344 156.132812 270.957031 C 155.765625 270.511719 155.421875 270.046875 155.101562 269.566406 C 154.78125 269.085938 154.488281 268.589844 154.214844 268.078125 C 153.941406 267.570312 153.695312 267.046875 153.476562 266.515625 C 153.257812 265.980469 153.0625 265.4375 152.894531 264.882812 C 152.726562 264.328125 152.585938 263.769531 152.476562 263.203125 C 152.363281 262.636719 152.277344 262.066406 152.222656 261.488281 C 152.164062 260.914062 152.136719 260.335938 152.136719 259.757812 L 152.136719 249.167969 C 151.996094 248.710938 151.222656 248.289062 150.695312 247.96875 C 149.019531 247.058594 147.496094 245.9375 146.121094 244.617188 C 145.789062 244.28125 145.535156 243.898438 145.355469 243.464844 C 145.179688 243.03125 145.089844 242.578125 145.089844 242.109375 C 145.089844 241.640625 145.179688 241.1875 145.355469 240.753906 C 145.535156 240.320312 145.789062 239.9375 146.121094 239.605469 C 146.957031 238.792969 147.859375 238.0625 148.828125 237.414062 C 148.59375 238.054688 148.550781 238.707031 148.699219 239.371094 C 148.84375 240.035156 149.15625 240.605469 149.636719 241.085938 C 151.015625 242.410156 152.539062 243.527344 154.214844 244.441406 C 154.742188 244.757812 155.515625 245.179688 155.65625 245.640625 L 155.65625 256.230469 C 155.65625 256.808594 155.683594 257.382812 155.742188 257.960938 C 155.796875 258.535156 155.882812 259.105469 155.996094 259.671875 C 156.105469 260.238281 156.246094 260.800781 156.414062 261.351562 C 156.582031 261.90625 156.773438 262.449219 156.996094 262.984375 C 157.214844 263.519531 157.460938 264.039062 157.734375 264.550781 C 158.003906 265.058594 158.300781 265.554688 158.621094 266.035156 C 158.941406 266.515625 159.285156 266.980469 159.652344 267.425781 C 160.015625 267.875 160.402344 268.300781 160.808594 268.710938 C 161.21875 269.117188 161.644531 269.507812 162.089844 269.875 C 162.535156 270.238281 162.996094 270.582031 163.476562 270.90625 C 163.957031 271.226562 164.449219 271.523438 164.957031 271.796875 C 165.464844 272.066406 165.988281 272.316406 166.519531 272.535156 C 167.050781 272.757812 167.59375 272.953125 168.144531 273.121094 C 168.695312 273.289062 169.253906 273.425781 169.820312 273.539062 C 170.386719 273.652344 170.953125 273.738281 171.527344 273.792969 C 172.101562 273.851562 172.675781 273.878906 173.253906 273.878906 Z M 173.253906 273.878906 " fill-opacity="1" fill-rule="nonzero"/><path fill="#005599" d="M 159.175781 210.339844 C 158.027344 211.863281 157.152344 213.53125 156.546875 215.34375 C 155.945312 217.15625 155.648438 219.019531 155.65625 220.929688 L 155.65625 231.765625 C 155.210938 232.140625 154.730469 232.457031 154.214844 232.71875 C 153.613281 233.074219 152.910156 233.496094 152.136719 233.992188 L 152.136719 224.460938 C 152.136719 223.089844 152.296875 221.738281 152.609375 220.40625 C 152.925781 219.074219 153.386719 217.792969 154 216.570312 C 154.609375 215.34375 155.351562 214.203125 156.226562 213.152344 C 157.101562 212.101562 158.082031 211.164062 159.175781 210.339844 Z M 159.175781 210.339844 " fill-opacity="1" fill-rule="nonzero"/><path fill="#005599" d="M 173.253906 210.339844 L 173.253906 213.871094 L 169.734375 213.871094 C 167.757812 213.871094 165.925781 214.386719 164.242188 215.421875 C 164.714844 214.648438 165.277344 213.949219 165.929688 213.316406 C 166.578125 212.6875 167.300781 212.152344 168.089844 211.707031 C 168.875 211.261719 169.707031 210.921875 170.582031 210.691406 C 171.457031 210.460938 172.347656 210.34375 173.253906 210.339844 Z M 173.253906 210.339844 " fill-opacity="1" fill-rule="nonzero"/><path fill="#cdd1d6" d="M 157.628906 148.777344 C 157.15625 149.550781 156.59375 150.253906 155.941406 150.882812 C 155.289062 151.511719 154.570312 152.050781 153.78125 152.496094 C 152.992188 152.941406 152.160156 153.277344 151.289062 153.507812 C 150.414062 153.742188 149.523438 153.859375 148.617188 153.859375 C 137.496094 153.859375 134.539062 146.941406 134.539062 143.269531 L 138.835938 143.269531 C 140.277344 146.660156 144.042969 150.332031 152.136719 150.332031 C 154.113281 150.332031 155.941406 149.8125 157.628906 148.777344 Z M 157.628906 148.777344 " fill-opacity="1" fill-rule="nonzero"/><path fill="#cdd1d6" d="M 155.65625 139.742188 C 155.65625 140.207031 155.566406 140.660156 155.386719 141.089844 C 155.210938 141.523438 154.957031 141.90625 154.625 142.238281 C 154.296875 142.566406 153.914062 142.824219 153.484375 143.003906 C 153.050781 143.179688 152.605469 143.269531 152.136719 143.269531 C 152.136719 142.800781 152.046875 142.351562 151.871094 141.921875 C 151.691406 141.488281 151.4375 141.105469 151.105469 140.773438 C 150.777344 140.445312 150.394531 140.1875 149.964844 140.007812 C 149.535156 139.832031 149.085938 139.742188 148.617188 139.742188 L 145.097656 139.742188 L 145.097656 139.636719 L 144.042969 139.671875 L 144.007812 139.671875 C 142.910156 139.554688 141.859375 139.269531 140.851562 138.824219 C 139.84375 138.375 138.929688 137.78125 138.109375 137.046875 C 137.285156 136.3125 136.59375 135.46875 136.035156 134.515625 C 135.476562 133.566406 135.074219 132.550781 134.832031 131.472656 C 134.589844 130.394531 134.515625 129.304688 134.613281 128.203125 C 134.710938 127.101562 134.972656 126.042969 135.402344 125.023438 C 135.832031 124.003906 136.40625 123.078125 137.121094 122.238281 C 137.839844 121.402344 138.667969 120.691406 139.609375 120.113281 C 139.121094 120.917969 138.746094 121.769531 138.488281 122.671875 C 138.226562 123.574219 138.085938 124.496094 138.070312 125.433594 C 138.054688 126.375 138.160156 127.296875 138.390625 128.210938 C 138.617188 129.121094 138.960938 129.984375 139.421875 130.804688 C 139.878906 131.625 140.4375 132.371094 141.09375 133.039062 C 141.75 133.710938 142.480469 134.28125 143.289062 134.757812 C 144.097656 135.234375 144.953125 135.59375 145.855469 135.839844 C 146.761719 136.085938 147.679688 136.210938 148.617188 136.210938 L 152.136719 136.210938 C 152.605469 136.210938 153.050781 136.300781 153.484375 136.480469 C 153.914062 136.660156 154.296875 136.914062 154.625 137.246094 C 154.957031 137.574219 155.210938 137.957031 155.386719 138.390625 C 155.566406 138.824219 155.65625 139.273438 155.65625 139.742188 Z M 155.65625 139.742188 " fill-opacity="1" fill-rule="nonzero"/><path fill="#cdd1d6" d="M 159.175781 129.152344 L 152.136719 129.152344 C 152.101562 128.65625 151.574219 125.621094 145.097656 125.621094 C 145.097656 125.152344 145.1875 124.703125 145.367188 124.269531 C 145.546875 123.835938 145.800781 123.457031 146.128906 123.125 C 146.460938 122.792969 146.839844 122.539062 147.269531 122.359375 C 147.703125 122.179688 148.152344 122.089844 148.617188 122.089844 C 155.09375 122.089844 155.621094 125.125 155.65625 125.621094 L 158.402344 125.621094 C 158.902344 126.742188 159.160156 127.921875 159.175781 129.152344 Z M 159.175781 129.152344 " fill-opacity="1" fill-rule="nonzero"/><path fill="#cdd1d6" d="M 189.300781 148.777344 C 188.828125 149.550781 188.265625 150.253906 187.613281 150.882812 C 186.964844 151.511719 186.242188 152.050781 185.457031 152.496094 C 184.667969 152.941406 183.835938 153.277344 182.960938 153.507812 C 182.085938 153.742188 181.195312 153.859375 180.289062 153.859375 C 169.171875 153.859375 166.214844 146.941406 166.214844 143.269531 L 170.507812 143.269531 C 171.949219 146.660156 175.714844 150.332031 183.808594 150.332031 C 185.785156 150.332031 187.617188 149.8125 189.300781 148.777344 Z M 189.300781 148.777344 " fill-opacity="1" fill-rule="nonzero"/><path fill="#cdd1d6" d="M 187.328125 139.742188 C 187.328125 140.207031 187.238281 140.660156 187.0625 141.089844 C 186.882812 141.523438 186.628906 141.90625 186.296875 142.238281 C 185.96875 142.566406 185.589844 142.824219 185.15625 143.003906 C 184.726562 143.179688 184.277344 143.269531 183.808594 143.269531 C 183.808594 142.800781 183.722656 142.351562 183.542969 141.921875 C 183.363281 141.488281 183.109375 141.105469 182.78125 140.773438 C 182.449219 140.445312 182.070312 140.1875 181.636719 140.007812 C 181.207031 139.832031 180.757812 139.742188 180.289062 139.742188 L 176.773438 139.742188 L 176.773438 139.636719 L 175.714844 139.671875 L 175.679688 139.671875 C 174.585938 139.554688 173.535156 139.269531 172.527344 138.824219 C 171.519531 138.375 170.605469 137.78125 169.78125 137.046875 C 168.957031 136.3125 168.265625 135.46875 167.707031 134.515625 C 167.148438 133.566406 166.746094 132.550781 166.503906 131.472656 C 166.261719 130.394531 166.191406 129.304688 166.289062 128.203125 C 166.382812 127.101562 166.648438 126.042969 167.074219 125.023438 C 167.503906 124.003906 168.078125 123.078125 168.796875 122.238281 C 169.515625 121.402344 170.34375 120.691406 171.28125 120.113281 C 170.792969 120.917969 170.421875 121.769531 170.160156 122.671875 C 169.898438 123.574219 169.761719 124.496094 169.742188 125.433594 C 169.726562 126.375 169.832031 127.296875 170.0625 128.210938 C 170.292969 129.121094 170.636719 129.984375 171.09375 130.804688 C 171.550781 131.625 172.109375 132.371094 172.765625 133.039062 C 173.421875 133.710938 174.152344 134.28125 174.960938 134.757812 C 175.769531 135.234375 176.625 135.59375 177.53125 135.839844 C 178.433594 136.085938 179.355469 136.210938 180.289062 136.210938 L 183.808594 136.210938 C 184.277344 136.210938 184.726562 136.300781 185.15625 136.480469 C 185.589844 136.660156 185.96875 136.914062 186.296875 137.246094 C 186.628906 137.574219 186.882812 137.957031 187.0625 138.390625 C 187.238281 138.824219 187.328125 139.273438 187.328125 139.742188 Z M 187.328125 139.742188 " fill-opacity="1" fill-rule="nonzero"/><path fill="#cdd1d6" d="M 190.847656 129.152344 L 183.808594 129.152344 C 183.773438 128.65625 183.246094 125.621094 176.773438 125.621094 C 176.773438 125.152344 176.859375 124.703125 177.039062 124.269531 C 177.21875 123.835938 177.472656 123.457031 177.800781 123.125 C 178.132812 122.792969 178.511719 122.539062 178.945312 122.359375 C 179.375 122.179688 179.824219 122.089844 180.289062 122.089844 C 186.765625 122.089844 187.292969 125.125 187.328125 125.621094 L 190.074219 125.621094 C 190.574219 126.742188 190.832031 127.921875 190.847656 129.152344 Z M 190.847656 129.152344 " fill-opacity="1" fill-rule="nonzero"/><path fill="#cdd1d6" d="M 127.503906 150.332031 L 127.503906 153.859375 L 123.984375 153.859375 C 123.066406 153.859375 122.152344 153.789062 121.246094 153.644531 C 120.339844 153.503906 119.449219 153.289062 118.578125 153.007812 C 117.703125 152.722656 116.859375 152.375 116.039062 151.960938 C 115.21875 151.542969 114.4375 151.066406 113.695312 150.527344 C 112.949219 149.992188 112.25 149.398438 111.601562 148.75 C 110.949219 148.101562 110.351562 147.40625 109.808594 146.667969 C 109.261719 145.925781 108.78125 145.144531 108.359375 144.328125 C 107.9375 143.511719 107.582031 142.664062 107.289062 141.792969 C 107 140.917969 106.777344 140.027344 106.628906 139.121094 C 106.476562 138.210938 106.398438 137.296875 106.386719 136.378906 C 106.378906 135.457031 106.441406 134.542969 106.574219 133.632812 C 106.710938 132.722656 106.914062 131.828125 107.1875 130.949219 C 107.460938 130.070312 107.800781 129.21875 108.207031 128.394531 C 108.613281 127.566406 109.082031 126.777344 109.613281 126.027344 C 110.140625 125.277344 110.726562 124.570312 111.363281 123.910156 C 112.003906 123.25 112.691406 122.644531 113.425781 122.089844 C 112.277344 123.613281 111.402344 125.285156 110.796875 127.097656 C 110.195312 128.910156 109.898438 130.769531 109.90625 132.679688 C 109.90625 133.257812 109.933594 133.835938 109.992188 134.410156 C 110.046875 134.984375 110.132812 135.558594 110.246094 136.125 C 110.355469 136.691406 110.496094 137.25 110.664062 137.804688 C 110.832031 138.359375 111.023438 138.902344 111.246094 139.433594 C 111.464844 139.96875 111.710938 140.492188 111.984375 141 C 112.253906 141.511719 112.550781 142.007812 112.871094 142.488281 C 113.191406 142.96875 113.535156 143.429688 113.902344 143.878906 C 114.265625 144.324219 114.652344 144.753906 115.058594 145.160156 C 115.46875 145.570312 115.894531 145.957031 116.339844 146.324219 C 116.785156 146.691406 117.246094 147.035156 117.726562 147.355469 C 118.207031 147.675781 118.699219 147.972656 119.207031 148.246094 C 119.714844 148.519531 120.234375 148.765625 120.769531 148.988281 C 121.300781 149.207031 121.84375 149.402344 122.394531 149.570312 C 122.945312 149.738281 123.503906 149.878906 124.070312 149.992188 C 124.636719 150.105469 125.203125 150.1875 125.777344 150.246094 C 126.351562 150.300781 126.925781 150.332031 127.503906 150.332031 Z M 127.503906 150.332031 " fill-opacity="1" fill-rule="nonzero"/><path fill="#cdd1d6" d="M 127.503906 122.089844 L 127.503906 125.621094 L 123.984375 125.621094 C 122.007812 125.621094 120.175781 126.136719 118.492188 127.175781 C 118.964844 126.398438 119.527344 125.699219 120.179688 125.070312 C 120.828125 124.4375 121.550781 123.902344 122.339844 123.457031 C 123.125 123.011719 123.957031 122.671875 124.832031 122.441406 C 125.707031 122.210938 126.597656 122.09375 127.503906 122.089844 Z M 127.503906 122.089844 " fill-opacity="1" fill-rule="nonzero"/><g clip-path="url(#160ae45c91)"><path fill="#000000" d="M 284.835938 133.714844 L 242.605469 91.355469 C 241.917969 90.667969 241.089844 90.320312 240.117188 90.320312 L 120.464844 90.320312 C 119.996094 90.320312 119.546875 90.410156 119.117188 90.589844 C 118.6875 90.769531 118.304688 91.023438 117.976562 91.355469 C 117.644531 91.6875 117.390625 92.066406 117.210938 92.5 C 117.035156 92.933594 116.945312 93.382812 116.945312 93.851562 L 116.945312 100.910156 L 92.308594 100.910156 C 91.84375 100.910156 91.394531 101 90.964844 101.179688 C 90.53125 101.359375 90.152344 101.613281 89.820312 101.945312 C 89.492188 102.277344 89.238281 102.65625 89.058594 103.089844 C 88.878906 103.523438 88.789062 103.972656 88.789062 104.441406 L 88.789062 160.921875 C 88.789062 161.390625 88.878906 161.839844 89.058594 162.273438 C 89.238281 162.703125 89.492188 163.085938 89.820312 163.417969 C 90.152344 163.746094 90.53125 164.003906 90.964844 164.183594 C 91.394531 164.359375 91.84375 164.449219 92.308594 164.449219 L 219.003906 164.449219 C 219.46875 164.449219 219.917969 164.359375 220.347656 164.183594 C 220.78125 164.003906 221.160156 163.746094 221.492188 163.417969 C 221.820312 163.085938 222.074219 162.703125 222.253906 162.273438 C 222.433594 161.839844 222.523438 161.390625 222.523438 160.921875 L 222.523438 104.441406 C 222.523438 103.972656 222.433594 103.523438 222.253906 103.089844 C 222.074219 102.65625 221.820312 102.277344 221.492188 101.945312 C 221.160156 101.613281 220.78125 101.359375 220.347656 101.179688 C 219.917969 101 219.46875 100.910156 219.003906 100.910156 L 123.984375 100.910156 L 123.984375 97.382812 L 236.597656 97.382812 L 236.597656 136.210938 C 236.597656 136.679688 236.6875 137.128906 236.867188 137.5625 C 237.046875 137.996094 237.300781 138.375 237.628906 138.707031 C 237.960938 139.039062 238.339844 139.292969 238.769531 139.472656 C 239.203125 139.652344 239.652344 139.742188 240.117188 139.742188 L 278.828125 139.742188 L 278.828125 146.800781 L 285.867188 146.800781 L 285.867188 136.210938 C 285.867188 135.234375 285.523438 134.40625 284.835938 133.714844 Z M 215.484375 157.390625 L 95.828125 157.390625 L 95.828125 107.972656 L 215.484375 107.972656 Z M 243.636719 102.371094 L 273.851562 132.679688 L 243.636719 132.679688 Z M 243.636719 102.371094 " fill-opacity="1" fill-rule="nonzero"/></g><path fill="#000000" d="M 116.945312 171.511719 L 123.984375 171.511719 L 123.984375 178.570312 L 116.945312 178.570312 Z M 116.945312 171.511719 " fill-opacity="1" fill-rule="nonzero"/><path fill="#000000" d="M 116.945312 185.628906 L 123.984375 185.628906 L 123.984375 288 L 116.945312 288 Z M 116.945312 185.628906 " fill-opacity="1" fill-rule="nonzero"/><g clip-path="url(#c94bf7306a)"><path fill="#000000" d="M 278.828125 309.179688 L 123.984375 309.179688 L 123.984375 295.058594 L 116.945312 295.058594 L 116.945312 312.710938 C 116.945312 313.175781 117.035156 313.628906 117.210938 314.058594 C 117.390625 314.492188 117.644531 314.875 117.976562 315.207031 C 118.304688 315.535156 118.6875 315.792969 119.117188 315.96875 C 119.546875 316.148438 119.996094 316.238281 120.464844 316.238281 L 282.347656 316.238281 C 282.816406 316.238281 283.265625 316.148438 283.695312 315.96875 C 284.125 315.792969 284.507812 315.535156 284.835938 315.207031 C 285.167969 314.875 285.421875 314.492188 285.601562 314.058594 C 285.777344 313.628906 285.867188 313.175781 285.867188 312.710938 L 285.867188 167.980469 L 278.828125 167.980469 Z M 278.828125 309.179688 " fill-opacity="1" fill-rule="nonzero"/></g><g clip-path="url(#d0b0eaae05)"><path fill="#000000" d="M 278.828125 153.859375 L 285.867188 153.859375 L 285.867188 160.921875 L 278.828125 160.921875 Z M 278.828125 153.859375 " fill-opacity="1" fill-rule="nonzero"/></g><path fill="#000000" d="M 149.648438 236.085938 C 149.320312 236.414062 149.066406 236.796875 148.886719 237.230469 C 148.707031 237.660156 148.617188 238.113281 148.617188 238.578125 C 148.617188 239.046875 148.707031 239.5 148.886719 239.929688 C 149.066406 240.363281 149.320312 240.746094 149.648438 241.074219 C 151.019531 242.40625 152.542969 243.523438 154.222656 244.429688 C 154.765625 244.746094 155.515625 245.175781 155.667969 245.640625 L 155.667969 256.230469 C 155.667969 256.808594 155.695312 257.382812 155.753906 257.960938 C 155.8125 258.535156 155.894531 259.105469 156.007812 259.671875 C 156.121094 260.238281 156.261719 260.796875 156.429688 261.351562 C 156.597656 261.902344 156.792969 262.445312 157.011719 262.980469 C 157.234375 263.515625 157.480469 264.035156 157.75 264.546875 C 158.023438 265.054688 158.320312 265.550781 158.640625 266.03125 C 158.960938 266.511719 159.300781 266.972656 159.667969 267.421875 C 160.03125 267.867188 160.417969 268.296875 160.828125 268.703125 C 161.234375 269.113281 161.660156 269.5 162.105469 269.867188 C 162.550781 270.234375 163.011719 270.578125 163.492188 270.898438 C 163.972656 271.21875 164.464844 271.515625 164.972656 271.789062 C 165.480469 272.0625 166 272.308594 166.53125 272.53125 C 167.066406 272.75 167.605469 272.945312 168.15625 273.113281 C 168.707031 273.28125 169.265625 273.421875 169.832031 273.535156 C 170.398438 273.648438 170.964844 273.734375 171.539062 273.792969 C 172.113281 273.851562 172.6875 273.878906 173.261719 273.878906 L 176.78125 273.878906 L 176.78125 266.820312 L 173.253906 266.820312 C 172.558594 266.820312 171.871094 266.75 171.191406 266.617188 C 170.511719 266.480469 169.851562 266.28125 169.210938 266.011719 C 168.570312 265.746094 167.964844 265.421875 167.386719 265.035156 C 166.8125 264.648438 166.277344 264.210938 165.789062 263.71875 C 165.296875 263.226562 164.859375 262.691406 164.472656 262.113281 C 164.089844 261.535156 163.765625 260.925781 163.5 260.28125 C 163.234375 259.640625 163.03125 258.976562 162.898438 258.296875 C 162.761719 257.613281 162.695312 256.925781 162.695312 256.230469 L 162.695312 245.640625 C 162.695312 244.894531 162.59375 244.167969 162.386719 243.453125 C 162.179688 242.738281 161.878906 242.070312 161.476562 241.445312 C 161.078125 240.816406 160.597656 240.261719 160.039062 239.773438 C 159.476562 239.285156 158.859375 238.890625 158.1875 238.578125 C 158.859375 238.269531 159.476562 237.875 160.039062 237.386719 C 160.597656 236.898438 161.078125 236.34375 161.476562 235.714844 C 161.878906 235.089844 162.179688 234.417969 162.386719 233.707031 C 162.59375 232.992188 162.695312 232.261719 162.695312 231.519531 L 162.695312 220.929688 C 162.695312 220.234375 162.761719 219.546875 162.898438 218.863281 C 163.03125 218.183594 163.234375 217.519531 163.5 216.878906 C 163.765625 216.234375 164.089844 215.625 164.472656 215.046875 C 164.859375 214.46875 165.296875 213.933594 165.789062 213.441406 C 166.277344 212.949219 166.8125 212.511719 167.386719 212.125 C 167.964844 211.738281 168.570312 211.414062 169.210938 211.144531 C 169.851562 210.878906 170.511719 210.679688 171.191406 210.542969 C 171.871094 210.40625 172.558594 210.339844 173.253906 210.339844 L 176.773438 210.339844 L 176.773438 203.28125 L 173.253906 203.28125 C 172.675781 203.28125 172.101562 203.308594 171.527344 203.367188 C 170.957031 203.425781 170.386719 203.507812 169.820312 203.621094 C 169.257812 203.734375 168.699219 203.875 168.148438 204.046875 C 167.597656 204.214844 167.054688 204.40625 166.523438 204.628906 C 165.988281 204.851562 165.46875 205.097656 164.960938 205.371094 C 164.453125 205.644531 163.960938 205.941406 163.480469 206.261719 C 163.003906 206.582031 162.539062 206.925781 162.09375 207.292969 C 161.648438 207.660156 161.222656 208.046875 160.816406 208.457031 C 160.410156 208.863281 160.023438 209.292969 159.65625 209.738281 C 159.292969 210.183594 158.949219 210.648438 158.628906 211.128906 C 158.308594 211.609375 158.011719 212.105469 157.742188 212.613281 C 157.46875 213.125 157.222656 213.644531 157 214.179688 C 156.78125 214.710938 156.585938 215.257812 156.417969 215.808594 C 156.25 216.363281 156.109375 216.921875 155.996094 217.488281 C 155.886719 218.054688 155.800781 218.625 155.742188 219.199219 C 155.6875 219.777344 155.65625 220.351562 155.65625 220.929688 L 155.65625 231.78125 C 155.203125 232.144531 154.71875 232.460938 154.203125 232.730469 C 152.53125 233.636719 151.011719 234.753906 149.648438 236.085938 Z M 149.648438 236.085938 " fill-opacity="1" fill-rule="nonzero"/><path fill="#000000" d="M 240.117188 245.640625 L 240.117188 256.230469 C 240.117188 256.925781 240.050781 257.613281 239.914062 258.296875 C 239.78125 258.976562 239.578125 259.640625 239.3125 260.28125 C 239.050781 260.925781 238.722656 261.535156 238.339844 262.113281 C 237.953125 262.691406 237.515625 263.226562 237.027344 263.71875 C 236.535156 264.210938 236.003906 264.648438 235.425781 265.035156 C 234.847656 265.421875 234.242188 265.746094 233.601562 266.011719 C 232.960938 266.28125 232.300781 266.480469 231.621094 266.617188 C 230.941406 266.75 230.253906 266.820312 229.558594 266.820312 L 226.042969 266.820312 L 226.042969 273.878906 L 229.558594 273.878906 C 230.136719 273.878906 230.710938 273.851562 231.285156 273.792969 C 231.859375 273.734375 232.425781 273.648438 232.992188 273.535156 C 233.558594 273.421875 234.113281 273.28125 234.664062 273.113281 C 235.21875 272.945312 235.757812 272.75 236.289062 272.53125 C 236.824219 272.308594 237.34375 272.0625 237.851562 271.789062 C 238.359375 271.515625 238.851562 271.21875 239.332031 270.898438 C 239.808594 270.578125 240.273438 270.234375 240.71875 269.867188 C 241.164062 269.5 241.589844 269.113281 241.996094 268.703125 C 242.402344 268.296875 242.789062 267.867188 243.15625 267.421875 C 243.519531 266.972656 243.863281 266.511719 244.183594 266.03125 C 244.503906 265.550781 244.800781 265.054688 245.074219 264.546875 C 245.34375 264.035156 245.589844 263.515625 245.8125 262.980469 C 246.03125 262.445312 246.226562 261.902344 246.394531 261.351562 C 246.5625 260.796875 246.703125 260.238281 246.816406 259.671875 C 246.929688 259.105469 247.011719 258.535156 247.070312 257.960938 C 247.128906 257.382812 247.15625 256.808594 247.15625 256.230469 L 247.15625 245.378906 C 247.609375 245.015625 248.09375 244.699219 248.609375 244.429688 C 250.289062 243.523438 251.816406 242.40625 253.183594 241.074219 C 253.515625 240.746094 253.769531 240.363281 253.949219 239.929688 C 254.125 239.5 254.214844 239.046875 254.214844 238.578125 C 254.214844 238.113281 254.125 237.660156 253.949219 237.230469 C 253.769531 236.796875 253.515625 236.414062 253.183594 236.085938 C 251.816406 234.753906 250.289062 233.636719 248.609375 232.730469 C 248.066406 232.414062 247.320312 231.980469 247.167969 231.519531 L 247.167969 220.929688 C 247.167969 220.351562 247.136719 219.777344 247.082031 219.199219 C 247.023438 218.625 246.9375 218.054688 246.824219 217.488281 C 246.710938 216.921875 246.574219 216.363281 246.40625 215.808594 C 246.238281 215.257812 246.042969 214.710938 245.820312 214.179688 C 245.601562 213.644531 245.355469 213.125 245.082031 212.613281 C 244.8125 212.105469 244.515625 211.609375 244.195312 211.128906 C 243.875 210.648438 243.53125 210.183594 243.167969 209.738281 C 242.800781 209.292969 242.414062 208.863281 242.007812 208.457031 C 241.601562 208.046875 241.171875 207.660156 240.726562 207.292969 C 240.28125 206.925781 239.820312 206.582031 239.34375 206.261719 C 238.863281 205.941406 238.371094 205.644531 237.863281 205.371094 C 237.355469 205.097656 236.832031 204.851562 236.300781 204.628906 C 235.769531 204.40625 235.226562 204.214844 234.675781 204.046875 C 234.125 203.875 233.566406 203.734375 233.003906 203.621094 C 232.4375 203.507812 231.867188 203.425781 231.296875 203.367188 C 230.722656 203.308594 230.148438 203.28125 229.570312 203.28125 L 226.042969 203.28125 L 226.042969 210.339844 L 229.558594 210.339844 C 230.253906 210.339844 230.941406 210.40625 231.621094 210.542969 C 232.300781 210.679688 232.960938 210.878906 233.601562 211.144531 C 234.242188 211.414062 234.847656 211.738281 235.425781 212.125 C 236.003906 212.511719 236.535156 212.949219 237.027344 213.441406 C 237.515625 213.933594 237.953125 214.46875 238.339844 215.046875 C 238.722656 215.625 239.050781 216.234375 239.3125 216.878906 C 239.578125 217.519531 239.78125 218.183594 239.914062 218.863281 C 240.050781 219.546875 240.117188 220.234375 240.117188 220.929688 L 240.117188 231.519531 C 240.117188 232.261719 240.21875 232.992188 240.425781 233.707031 C 240.632812 234.417969 240.9375 235.089844 241.335938 235.714844 C 241.734375 236.34375 242.214844 236.898438 242.773438 237.386719 C 243.335938 237.875 243.953125 238.269531 244.625 238.578125 C 243.953125 238.890625 243.335938 239.285156 242.773438 239.773438 C 242.214844 240.261719 241.734375 240.816406 241.335938 241.445312 C 240.9375 242.070312 240.632812 242.738281 240.425781 243.453125 C 240.21875 244.167969 240.117188 244.894531 240.117188 245.640625 Z M 240.117188 245.640625 " fill-opacity="1" fill-rule="nonzero"/><path fill="#000000" d="M 183.808594 143.269531 C 177.332031 143.269531 176.808594 140.246094 176.773438 139.636719 L 173.253906 139.742188 L 169.734375 139.742188 C 169.734375 143.40625 172.675781 150.332031 183.808594 150.332031 C 184.503906 150.332031 185.191406 150.261719 185.871094 150.128906 C 186.550781 149.992188 187.210938 149.789062 187.851562 149.523438 C 188.492188 149.257812 189.097656 148.933594 189.675781 148.546875 C 190.253906 148.160156 190.785156 147.722656 191.277344 147.230469 C 191.765625 146.738281 192.203125 146.203125 192.589844 145.625 C 192.972656 145.046875 193.300781 144.4375 193.5625 143.792969 C 193.828125 143.152344 194.03125 142.488281 194.164062 141.808594 C 194.300781 141.125 194.367188 140.4375 194.367188 139.742188 C 194.367188 139.046875 194.300781 138.355469 194.164062 137.675781 C 194.03125 136.992188 193.828125 136.332031 193.5625 135.6875 C 193.300781 135.046875 192.972656 134.4375 192.589844 133.859375 C 192.203125 133.277344 191.765625 132.746094 191.277344 132.253906 C 190.785156 131.761719 190.253906 131.320312 189.675781 130.9375 C 189.097656 130.550781 188.492188 130.222656 187.851562 129.957031 C 187.210938 129.691406 186.550781 129.488281 185.871094 129.355469 C 185.191406 129.21875 184.503906 129.152344 183.808594 129.152344 L 180.289062 129.152344 C 179.824219 129.152344 179.375 129.0625 178.945312 128.882812 C 178.511719 128.703125 178.132812 128.449219 177.800781 128.117188 C 177.472656 127.785156 177.21875 127.40625 177.039062 126.972656 C 176.859375 126.539062 176.773438 126.089844 176.773438 125.621094 C 176.773438 125.152344 176.859375 124.703125 177.039062 124.269531 C 177.21875 123.835938 177.472656 123.457031 177.800781 123.125 C 178.132812 122.792969 178.511719 122.539062 178.945312 122.359375 C 179.375 122.179688 179.824219 122.089844 180.289062 122.089844 C 186.769531 122.089844 187.289062 125.117188 187.328125 125.621094 L 194.367188 125.621094 C 194.367188 121.957031 191.425781 115.03125 180.289062 115.03125 C 179.597656 115.03125 178.910156 115.097656 178.230469 115.234375 C 177.550781 115.371094 176.890625 115.570312 176.25 115.835938 C 175.609375 116.101562 175 116.429688 174.425781 116.816406 C 173.847656 117.203125 173.316406 117.640625 172.824219 118.132812 C 172.335938 118.625 171.898438 119.160156 171.511719 119.738281 C 171.128906 120.316406 170.800781 120.925781 170.535156 121.570312 C 170.273438 122.210938 170.070312 122.871094 169.9375 123.554688 C 169.800781 124.238281 169.734375 124.925781 169.734375 125.621094 C 169.734375 126.316406 169.800781 127.003906 169.9375 127.6875 C 170.070312 128.367188 170.273438 129.03125 170.535156 129.671875 C 170.800781 130.316406 171.128906 130.925781 171.511719 131.503906 C 171.898438 132.082031 172.335938 132.617188 172.824219 133.109375 C 173.316406 133.601562 173.847656 134.039062 174.425781 134.425781 C 175 134.8125 175.609375 135.140625 176.25 135.40625 C 176.890625 135.671875 177.550781 135.871094 178.230469 136.007812 C 178.910156 136.144531 179.597656 136.210938 180.289062 136.210938 L 183.808594 136.210938 C 184.277344 136.210938 184.726562 136.300781 185.15625 136.480469 C 185.589844 136.660156 185.96875 136.914062 186.296875 137.246094 C 186.628906 137.574219 186.882812 137.957031 187.0625 138.390625 C 187.238281 138.824219 187.328125 139.273438 187.328125 139.742188 C 187.328125 140.207031 187.238281 140.660156 187.0625 141.089844 C 186.882812 141.523438 186.628906 141.90625 186.296875 142.238281 C 185.96875 142.566406 185.589844 142.824219 185.15625 143.003906 C 184.726562 143.179688 184.277344 143.269531 183.808594 143.269531 Z M 183.808594 143.269531 " fill-opacity="1" fill-rule="nonzero"/><path fill="#000000" d="M 152.136719 143.269531 C 145.65625 143.269531 145.136719 140.246094 145.097656 139.636719 L 141.578125 139.742188 L 138.058594 139.742188 C 138.058594 143.40625 141.003906 150.332031 152.136719 150.332031 C 152.832031 150.332031 153.515625 150.261719 154.195312 150.128906 C 154.875 149.992188 155.535156 149.789062 156.175781 149.523438 C 156.816406 149.257812 157.425781 148.933594 158.003906 148.546875 C 158.578125 148.160156 159.113281 147.722656 159.601562 147.230469 C 160.09375 146.738281 160.53125 146.203125 160.914062 145.625 C 161.300781 145.046875 161.625 144.4375 161.890625 143.792969 C 162.15625 143.152344 162.355469 142.488281 162.492188 141.808594 C 162.628906 141.125 162.695312 140.4375 162.695312 139.742188 C 162.695312 139.046875 162.628906 138.355469 162.492188 137.675781 C 162.355469 136.992188 162.15625 136.332031 161.890625 135.6875 C 161.625 135.046875 161.300781 134.4375 160.914062 133.859375 C 160.53125 133.277344 160.09375 132.746094 159.601562 132.253906 C 159.113281 131.761719 158.578125 131.320312 158.003906 130.9375 C 157.425781 130.550781 156.816406 130.222656 156.175781 129.957031 C 155.535156 129.691406 154.875 129.488281 154.195312 129.355469 C 153.515625 129.21875 152.832031 129.152344 152.136719 129.152344 L 148.617188 129.152344 C 148.152344 129.152344 147.703125 129.0625 147.269531 128.882812 C 146.839844 128.703125 146.460938 128.449219 146.128906 128.117188 C 145.800781 127.785156 145.546875 127.40625 145.367188 126.972656 C 145.1875 126.539062 145.097656 126.089844 145.097656 125.621094 C 145.097656 125.152344 145.1875 124.703125 145.367188 124.269531 C 145.546875 123.835938 145.800781 123.457031 146.128906 123.125 C 146.460938 122.792969 146.839844 122.539062 147.269531 122.359375 C 147.703125 122.179688 148.152344 122.089844 148.617188 122.089844 C 155.097656 122.089844 155.617188 125.117188 155.65625 125.621094 L 162.695312 125.621094 C 162.695312 121.957031 159.753906 115.03125 148.617188 115.03125 C 147.925781 115.03125 147.238281 115.097656 146.558594 115.234375 C 145.878906 115.371094 145.21875 115.570312 144.578125 115.835938 C 143.9375 116.101562 143.328125 116.429688 142.753906 116.816406 C 142.175781 117.203125 141.644531 117.640625 141.152344 118.132812 C 140.664062 118.625 140.222656 119.160156 139.839844 119.738281 C 139.453125 120.316406 139.128906 120.925781 138.863281 121.570312 C 138.597656 122.210938 138.398438 122.871094 138.261719 123.554688 C 138.128906 124.238281 138.058594 124.925781 138.058594 125.621094 C 138.058594 126.316406 138.128906 127.003906 138.261719 127.6875 C 138.398438 128.367188 138.597656 129.03125 138.863281 129.671875 C 139.128906 130.316406 139.453125 130.925781 139.839844 131.503906 C 140.222656 132.082031 140.664062 132.617188 141.152344 133.109375 C 141.644531 133.601562 142.175781 134.039062 142.753906 134.425781 C 143.328125 134.8125 143.9375 135.140625 144.578125 135.40625 C 145.21875 135.671875 145.878906 135.871094 146.558594 136.007812 C 147.238281 136.144531 147.925781 136.210938 148.617188 136.210938 L 152.136719 136.210938 C 152.605469 136.210938 153.050781 136.300781 153.484375 136.480469 C 153.914062 136.660156 154.296875 136.914062 154.625 137.246094 C 154.957031 137.574219 155.210938 137.957031 155.386719 138.390625 C 155.566406 138.824219 155.65625 139.273438 155.65625 139.742188 C 155.65625 140.207031 155.566406 140.660156 155.386719 141.089844 C 155.210938 141.523438 154.957031 141.90625 154.625 142.238281 C 154.296875 142.566406 153.914062 142.824219 153.484375 143.003906 C 153.050781 143.179688 152.605469 143.269531 152.136719 143.269531 Z M 152.136719 143.269531 " fill-opacity="1" fill-rule="nonzero"/><path fill="#000000" d="M 127.503906 150.332031 L 131.023438 150.332031 L 131.023438 143.269531 L 127.503906 143.269531 C 126.808594 143.269531 126.121094 143.203125 125.441406 143.066406 C 124.761719 142.933594 124.101562 142.730469 123.460938 142.464844 C 122.820312 142.199219 122.214844 141.871094 121.636719 141.484375 C 121.058594 141.101562 120.527344 140.660156 120.035156 140.167969 C 119.546875 139.675781 119.109375 139.140625 118.722656 138.5625 C 118.339844 137.984375 118.015625 137.375 117.75 136.734375 C 117.484375 136.089844 117.28125 135.429688 117.148438 134.746094 C 117.011719 134.066406 116.945312 133.375 116.945312 132.679688 C 116.945312 131.984375 117.011719 131.296875 117.148438 130.613281 C 117.28125 129.933594 117.484375 129.269531 117.75 128.628906 C 118.015625 127.984375 118.339844 127.375 118.722656 126.796875 C 119.109375 126.21875 119.546875 125.683594 120.035156 125.191406 C 120.527344 124.699219 121.058594 124.261719 121.636719 123.875 C 122.214844 123.488281 122.820312 123.164062 123.460938 122.898438 C 124.101562 122.632812 124.761719 122.429688 125.441406 122.292969 C 126.121094 122.160156 126.808594 122.089844 127.503906 122.089844 L 131.023438 122.089844 L 131.023438 115.03125 L 127.503906 115.03125 C 126.925781 115.03125 126.351562 115.058594 125.777344 115.117188 C 125.203125 115.171875 124.636719 115.257812 124.070312 115.371094 C 123.503906 115.484375 122.945312 115.625 122.394531 115.792969 C 121.84375 115.957031 121.300781 116.152344 120.769531 116.375 C 120.234375 116.597656 119.714844 116.84375 119.207031 117.113281 C 118.699219 117.386719 118.207031 117.683594 117.726562 118.003906 C 117.246094 118.328125 116.785156 118.671875 116.339844 119.039062 C 115.894531 119.402344 115.46875 119.792969 115.058594 120.199219 C 114.652344 120.609375 114.265625 121.039062 113.902344 121.484375 C 113.535156 121.929688 113.191406 122.394531 112.871094 122.875 C 112.550781 123.355469 112.253906 123.851562 111.984375 124.359375 C 111.710938 124.871094 111.464844 125.390625 111.246094 125.925781 C 111.023438 126.460938 110.832031 127.003906 110.664062 127.558594 C 110.496094 128.109375 110.355469 128.671875 110.246094 129.238281 C 110.132812 129.804688 110.046875 130.375 109.992188 130.949219 C 109.933594 131.527344 109.90625 132.101562 109.90625 132.679688 C 109.90625 133.257812 109.933594 133.835938 109.992188 134.410156 C 110.046875 134.984375 110.132812 135.558594 110.246094 136.125 C 110.355469 136.691406 110.496094 137.25 110.664062 137.804688 C 110.832031 138.359375 111.023438 138.902344 111.246094 139.433594 C 111.464844 139.96875 111.710938 140.492188 111.984375 141 C 112.253906 141.511719 112.550781 142.007812 112.871094 142.488281 C 113.191406 142.96875 113.535156 143.429688 113.902344 143.878906 C 114.265625 144.324219 114.652344 144.753906 115.058594 145.160156 C 115.46875 145.570312 115.894531 145.957031 116.339844 146.324219 C 116.785156 146.691406 117.246094 147.035156 117.726562 147.355469 C 118.207031 147.675781 118.699219 147.972656 119.207031 148.246094 C 119.714844 148.519531 120.234375 148.765625 120.769531 148.988281 C 121.300781 149.207031 121.84375 149.402344 122.394531 149.570312 C 122.945312 149.738281 123.503906 149.878906 124.070312 149.992188 C 124.636719 150.105469 125.203125 150.1875 125.777344 150.246094 C 126.351562 150.300781 126.925781 150.332031 127.503906 150.332031 Z M 127.503906 150.332031 " fill-opacity="1" fill-rule="nonzero"/></svg>