<svg xmlns="http://www.w3.org/2000/svg" xmlns:xlink="http://www.w3.org/1999/xlink" width="500" zoomAndPan="magnify" viewBox="0 0 375 374.999991" height="500" preserveAspectRatio="xMidYMid meet" version="1.0"><defs><clipPath id="c1fe8cf841"><path d="M 9.804688 43.550781 L 368 43.550781 L 368 362.714844 L 9.804688 362.714844 Z M 9.804688 43.550781 " clip-rule="nonzero"/></clipPath><clipPath id="77c82994fe"><path d="M 36.804688 43.550781 L 341.144531 43.550781 C 348.304688 43.550781 355.171875 46.394531 360.238281 51.457031 C 365.300781 56.519531 368.144531 63.386719 368.144531 70.550781 L 368.144531 335.714844 C 368.144531 342.875 365.300781 349.742188 360.238281 354.804688 C 355.171875 359.871094 348.304688 362.714844 341.144531 362.714844 L 36.804688 362.714844 C 29.640625 362.714844 22.773438 359.871094 17.710938 354.804688 C 12.648438 349.742188 9.804688 342.875 9.804688 335.714844 L 9.804688 70.550781 C 9.804688 63.386719 12.648438 56.519531 17.710938 51.457031 C 22.773438 46.394531 29.640625 43.550781 36.804688 43.550781 Z M 36.804688 43.550781 " clip-rule="nonzero"/></clipPath><clipPath id="65c80eb872"><path d="M 9.804688 43.550781 L 368.304688 43.550781 L 368.304688 363 L 9.804688 363 Z M 9.804688 43.550781 " clip-rule="nonzero"/></clipPath><clipPath id="5e31b92861"><path d="M 36.800781 43.550781 L 341.140625 43.550781 C 348.300781 43.550781 355.167969 46.394531 360.230469 51.457031 C 365.292969 56.519531 368.140625 63.390625 368.140625 70.550781 L 368.140625 335.710938 C 368.140625 342.871094 365.292969 349.738281 360.230469 354.800781 C 355.167969 359.863281 348.300781 362.710938 341.140625 362.710938 L 36.800781 362.710938 C 29.640625 362.710938 22.773438 359.863281 17.710938 354.800781 C 12.648438 349.738281 9.804688 342.871094 9.804688 335.710938 L 9.804688 70.550781 C 9.804688 63.390625 12.648438 56.519531 17.710938 51.457031 C 22.773438 46.394531 29.640625 43.550781 36.800781 43.550781 Z M 36.800781 43.550781 " clip-rule="nonzero"/></clipPath></defs><g clip-path="url(#c1fe8cf841)"><g clip-path="url(#77c82994fe)"><path fill="#363636" d="M 9.804688 43.550781 L 367.617188 43.550781 L 367.617188 362.714844 L 9.804688 362.714844 Z M 9.804688 43.550781 " fill-opacity="1" fill-rule="nonzero"/></g></g><g clip-path="url(#65c80eb872)"><g clip-path="url(#5e31b92861)"><path stroke-linecap="butt" transform="matrix(0.75, 0, 0, 0.75, 9.803039, 43.550006)" fill="none" stroke-linejoin="miter" d="M 35.996993 0.00103375 L 441.783478 0.00103375 C 451.330353 0.00103375 460.486604 3.792701 467.236604 10.542701 C 473.986605 17.292702 477.78348 26.45416 477.78348 36.001036 L 477.78348 389.547934 C 477.78348 399.09481 473.986605 408.251061 467.236604 415.001061 C 460.486604 421.751061 451.330353 425.547937 441.783478 425.547937 L 35.996993 425.547937 C 26.450117 425.547937 17.293866 421.751061 10.543866 415.001061 C 3.793865 408.251061 0.00219857 399.09481 0.00219857 389.547934 L 0.00219857 36.001036 C 0.00219857 26.45416 3.793865 17.292702 10.543866 10.542701 C 17.293866 3.792701 26.450117 0.00103375 35.996993 0.00103375 Z M 35.996993 0.00103375 " stroke="#ffffff" stroke-width="4" stroke-opacity="1" stroke-miterlimit="4"/></g></g><path fill="#364548" d="M 195.847656 168.230469 L 225.84375 168.230469 L 225.84375 198.953125 L 241.015625 198.953125 C 248.023438 198.953125 245.773438 209.1875 252.40625 206.929688 C 255.660156 205.828125 259.316406 204.285156 262.535156 202.347656 C 258.300781 196.808594 256.136719 189.824219 255.5 182.925781 C 254.632812 173.550781 256.527344 161.34375 262.851562 154.003906 L 266.007812 150.351562 L 269.765625 153.378906 C 279.222656 160.988281 287.183594 171.625 288.578125 183.757812 C 299.96875 180.398438 313.339844 181.195312 323.382812 187.003906 L 327.507812 189.382812 L 325.339844 193.621094 C 316.851562 210.226562 299.101562 215.363281 281.742188 214.457031 C 255.769531 279.257812 208.683594 298.445312 140.125 298.445312 C 104.707031 298.445312 72.203125 285.1875 53.707031 253.707031 L 53.402344 253.191406 L 50.695312 247.703125 C 44.445312 233.839844 42.367188 218.671875 43.773438 203.5 L 44.199219 198.953125 L 69.855469 198.953125 L 69.855469 168.230469 L 99.851562 168.230469 L 99.851562 138.183594 L 159.84375 138.183594 L 159.84375 108.136719 L 195.847656 108.136719 Z M 195.847656 168.230469 " fill-opacity="1" fill-rule="nonzero"/><path fill="#22a0c8" d="M 283.574219 191.085938 C 285.582031 175.425781 273.886719 163.132812 266.632812 157.289062 C 258.277344 166.96875 256.96875 192.347656 270.09375 203.035156 C 262.777344 209.542969 256.808594 203.964844 241.015625 203.964844 L 48.765625 203.964844 C 47.234375 220.484375 50.121094 235.691406 56.726562 248.707031 L 58.917969 252.714844 C 60.300781 255.066406 61.816406 257.34375 63.445312 259.527344 C 71.347656 260.042969 78.640625 260.214844 85.304688 260.066406 C 98.40625 259.773438 109.101562 258.226562 117.199219 255.410156 C 118.421875 255.03125 119.707031 255.714844 120.085938 256.929688 C 120.453125 258.09375 119.839844 259.34375 118.703125 259.773438 C 117.628906 260.152344 116.5 260.496094 115.339844 260.824219 C 108.964844 262.652344 102.113281 263.878906 93.292969 264.429688 C 93.820312 264.441406 92.742188 264.503906 92.742188 264.503906 C 92.4375 264.527344 92.058594 264.5625 91.765625 264.574219 C 88.289062 264.773438 84.546875 264.808594 80.707031 264.808594 C 76.511719 264.808594 72.386719 264.734375 67.761719 264.488281 L 67.640625 264.5625 C 83.65625 282.601562 108.707031 293.410156 140.101562 293.410156 C 206.542969 293.410156 253.445312 275.394531 278.402344 209.148438 C 296.101562 210.976562 313.121094 206.441406 320.863281 191.304688 C 308.558594 184.210938 292.703125 186.492188 283.574219 191.085938 Z M 283.574219 191.085938 " fill-opacity="1" fill-rule="nonzero"/><path fill="#37b1d9" d="M 283.574219 191.085938 C 285.582031 175.425781 273.886719 163.132812 266.632812 157.289062 C 258.277344 166.96875 256.96875 192.347656 270.09375 203.035156 C 262.777344 209.542969 256.808594 203.964844 241.015625 203.964844 L 60.140625 203.964844 C 59.359375 229.257812 68.730469 248.449219 85.304688 260.066406 C 98.40625 259.773438 109.101562 258.226562 117.199219 255.410156 C 118.421875 255.03125 119.707031 255.714844 120.085938 256.929688 C 120.453125 258.09375 119.839844 259.34375 118.703125 259.773438 C 117.628906 260.152344 116.5 260.496094 115.339844 260.824219 C 108.964844 262.652344 101.527344 264.035156 92.707031 264.574219 L 92.488281 264.367188 C 115.09375 275.984375 147.894531 275.949219 185.476562 261.476562 C 227.621094 245.25 257.394531 225.839844 284.761719 190.484375 C 284.371094 190.695312 283.96875 190.890625 283.574219 191.085938 Z M 283.574219 191.085938 " fill-opacity="1" fill-rule="nonzero"/><path fill="#1b81a5" d="M 49.117188 224.027344 C 50.316406 232.875 52.898438 241.15625 56.726562 248.695312 L 58.917969 252.699219 C 60.300781 255.054688 61.816406 257.332031 63.445312 259.515625 C 71.347656 260.03125 78.640625 260.199219 85.304688 260.054688 C 98.40625 259.757812 109.101562 258.214844 117.199219 255.398438 C 118.421875 255.015625 119.707031 255.703125 120.085938 256.917969 C 120.453125 258.082031 119.839844 259.332031 118.703125 259.757812 C 117.628906 260.140625 116.5 260.484375 115.339844 260.8125 C 108.964844 262.640625 101.566406 263.949219 92.742188 264.488281 C 92.4375 264.515625 91.914062 264.515625 91.605469 264.527344 C 88.132812 264.722656 84.425781 264.84375 80.582031 264.84375 C 76.386719 264.84375 72.105469 264.757812 67.492188 264.527344 C 83.507812 282.566406 108.707031 293.421875 140.113281 293.421875 C 197 293.421875 246.484375 271.792969 275.207031 224.011719 L 49.117188 224.011719 Z M 49.117188 224.027344 " fill-opacity="1" fill-rule="nonzero"/><path fill="#1d91b4" d="M 61.878906 224.027344 C 65.28125 239.5625 73.453125 251.757812 85.316406 260.054688 C 98.421875 259.757812 109.113281 258.214844 117.210938 255.398438 C 118.433594 255.015625 119.71875 255.703125 120.097656 256.917969 C 120.464844 258.082031 119.855469 259.332031 118.714844 259.757812 C 117.640625 260.140625 116.515625 260.484375 115.351562 260.8125 C 108.976562 262.640625 101.429688 263.949219 92.597656 264.488281 C 115.203125 276.105469 147.90625 275.9375 185.488281 261.476562 C 208.230469 252.726562 230.113281 239.699219 249.75 224 L 61.878906 224 Z M 61.878906 224.027344 " fill-opacity="1" fill-rule="nonzero"/><path fill="#23a3c2" d="M 74.859375 173.242188 L 100.855469 173.242188 L 100.855469 199.285156 L 74.859375 199.285156 Z M 77.023438 175.414062 L 79.078125 175.414062 L 79.078125 197.113281 L 77.023438 197.113281 Z M 80.878906 175.414062 L 83.007812 175.414062 L 83.007812 197.113281 L 80.878906 197.113281 Z M 84.816406 175.414062 L 86.945312 175.414062 L 86.945312 197.113281 L 84.816406 197.113281 Z M 88.757812 175.414062 L 90.882812 175.414062 L 90.882812 197.113281 L 88.757812 197.113281 Z M 92.695312 175.414062 L 94.824219 175.414062 L 94.824219 197.113281 L 92.695312 197.113281 Z M 96.632812 175.414062 L 98.691406 175.414062 L 98.691406 197.113281 L 96.632812 197.113281 Z M 104.855469 143.195312 L 130.851562 143.195312 L 130.851562 169.238281 L 104.84375 169.238281 Z M 107.019531 145.363281 L 109.074219 145.363281 L 109.074219 167.066406 L 107.019531 167.066406 Z M 110.875 145.363281 L 113.003906 145.363281 L 113.003906 167.066406 L 110.875 167.066406 Z M 114.8125 145.363281 L 116.941406 145.363281 L 116.941406 167.066406 L 114.8125 167.066406 Z M 118.753906 145.363281 L 120.882812 145.363281 L 120.882812 167.066406 L 118.753906 167.066406 Z M 122.691406 145.363281 L 124.820312 145.363281 L 124.820312 167.066406 L 122.691406 167.066406 Z M 126.632812 145.363281 L 128.6875 145.363281 L 128.6875 167.066406 L 126.632812 167.066406 Z M 126.632812 145.363281 " fill-opacity="1" fill-rule="nonzero"/><path fill="#34bbde" d="M 104.855469 173.242188 L 130.851562 173.242188 L 130.851562 199.285156 L 104.84375 199.285156 Z M 107.019531 175.414062 L 109.074219 175.414062 L 109.074219 197.113281 L 107.019531 197.113281 Z M 110.875 175.414062 L 113.003906 175.414062 L 113.003906 197.113281 L 110.875 197.113281 Z M 114.8125 175.414062 L 116.941406 175.414062 L 116.941406 197.113281 L 114.8125 197.113281 Z M 118.753906 175.414062 L 120.882812 175.414062 L 120.882812 197.113281 L 118.753906 197.113281 Z M 122.691406 175.414062 L 124.820312 175.414062 L 124.820312 197.113281 L 122.691406 197.113281 Z M 126.632812 175.414062 L 128.6875 175.414062 L 128.6875 197.113281 L 126.632812 197.113281 Z M 126.632812 175.414062 " fill-opacity="1" fill-rule="nonzero"/><path fill="#23a3c2" d="M 134.851562 173.242188 L 160.847656 173.242188 L 160.847656 199.285156 L 134.851562 199.285156 Z M 137.015625 175.414062 L 139.074219 175.414062 L 139.074219 197.113281 L 137.015625 197.113281 Z M 140.871094 175.414062 L 143 175.414062 L 143 197.113281 L 140.871094 197.113281 Z M 144.808594 175.414062 L 146.9375 175.414062 L 146.9375 197.113281 L 144.808594 197.113281 Z M 148.75 175.414062 L 150.878906 175.414062 L 150.878906 197.113281 L 148.75 197.113281 Z M 152.6875 175.414062 L 154.828125 175.414062 L 154.828125 197.113281 L 152.6875 197.113281 Z M 156.628906 175.414062 L 158.683594 175.414062 L 158.683594 197.113281 L 156.628906 197.113281 Z M 156.628906 175.414062 " fill-opacity="1" fill-rule="nonzero"/><path fill="#34bbde" d="M 134.851562 143.195312 L 160.847656 143.195312 L 160.847656 169.238281 L 134.851562 169.238281 Z M 137.015625 145.363281 L 139.074219 145.363281 L 139.074219 167.066406 L 137.015625 167.066406 Z M 140.871094 145.363281 L 143 145.363281 L 143 167.066406 L 140.871094 167.066406 Z M 144.808594 145.363281 L 146.9375 145.363281 L 146.9375 167.066406 L 144.808594 167.066406 Z M 148.75 145.363281 L 150.878906 145.363281 L 150.878906 167.066406 L 148.75 167.066406 Z M 152.6875 145.363281 L 154.828125 145.363281 L 154.828125 167.066406 L 152.6875 167.066406 Z M 156.628906 145.363281 L 158.683594 145.363281 L 158.683594 167.066406 L 156.628906 167.066406 Z M 164.847656 173.242188 L 190.84375 173.242188 L 190.84375 199.285156 L 164.847656 199.285156 Z M 167.015625 175.414062 L 169.070312 175.414062 L 169.070312 197.113281 L 167.015625 197.113281 Z M 170.867188 175.414062 L 172.996094 175.414062 L 172.996094 197.113281 L 170.867188 197.113281 Z M 174.808594 175.414062 L 176.9375 175.414062 L 176.9375 197.113281 L 174.808594 197.113281 Z M 178.746094 175.414062 L 180.875 175.414062 L 180.875 197.113281 L 178.746094 197.113281 Z M 182.683594 175.414062 L 184.8125 175.414062 L 184.8125 197.113281 L 182.683594 197.113281 Z M 186.625 175.414062 L 188.679688 175.414062 L 188.679688 197.113281 L 186.625 197.113281 Z M 186.625 175.414062 " fill-opacity="1" fill-rule="nonzero"/><path fill="#23a3c2" d="M 164.847656 143.195312 L 190.84375 143.195312 L 190.84375 169.238281 L 164.847656 169.238281 Z M 167.015625 145.363281 L 169.070312 145.363281 L 169.070312 167.066406 L 167.015625 167.066406 Z M 170.867188 145.363281 L 172.996094 145.363281 L 172.996094 167.066406 L 170.867188 167.066406 Z M 174.808594 145.363281 L 176.9375 145.363281 L 176.9375 167.066406 L 174.808594 167.066406 Z M 178.746094 145.363281 L 180.875 145.363281 L 180.875 167.066406 L 178.746094 167.066406 Z M 182.683594 145.363281 L 184.8125 145.363281 L 184.8125 167.066406 L 182.683594 167.066406 Z M 186.625 145.363281 L 188.679688 145.363281 L 188.679688 167.066406 L 186.625 167.066406 Z M 186.625 145.363281 " fill-opacity="1" fill-rule="nonzero"/><path fill="#34bbde" d="M 164.847656 113.148438 L 190.84375 113.148438 L 190.84375 139.1875 L 164.847656 139.1875 Z M 167.015625 115.316406 L 169.070312 115.316406 L 169.070312 137.019531 L 167.015625 137.019531 Z M 170.867188 115.316406 L 172.996094 115.316406 L 172.996094 137.019531 L 170.867188 137.019531 Z M 174.808594 115.316406 L 176.9375 115.316406 L 176.9375 137.019531 L 174.808594 137.019531 Z M 178.746094 115.316406 L 180.875 115.316406 L 180.875 137.019531 L 178.746094 137.019531 Z M 182.683594 115.316406 L 184.8125 115.316406 L 184.8125 137.019531 L 182.683594 137.019531 Z M 186.625 115.316406 L 188.679688 115.316406 L 188.679688 137.019531 L 186.625 137.019531 Z M 186.625 115.316406 " fill-opacity="1" fill-rule="nonzero"/><path fill="#23a3c2" d="M 204.925781 173.242188 L 230.921875 173.242188 L 230.921875 199.285156 L 204.925781 199.285156 Z M 207.089844 175.414062 L 209.148438 175.414062 L 209.148438 197.113281 L 207.089844 197.113281 Z M 210.945312 175.414062 L 213.074219 175.414062 L 213.074219 197.113281 L 210.945312 197.113281 Z M 214.882812 175.414062 L 217.011719 175.414062 L 217.011719 197.113281 L 214.882812 197.113281 Z M 218.824219 175.414062 L 220.953125 175.414062 L 220.953125 197.113281 L 218.824219 197.113281 Z M 222.761719 175.414062 L 224.890625 175.414062 L 224.890625 197.113281 L 222.761719 197.113281 Z M 226.703125 175.414062 L 228.757812 175.414062 L 228.757812 197.113281 L 226.703125 197.113281 Z M 226.703125 175.414062 " fill-opacity="1" fill-rule="nonzero"/><path fill="#d3ecec" d="M 129.226562 241.511719 C 133.1875 241.464844 136.441406 244.636719 136.492188 248.609375 C 136.539062 252.578125 133.371094 255.839844 129.40625 255.886719 C 129.347656 255.886719 129.273438 255.886719 129.210938 255.886719 C 125.25 255.839844 122.082031 252.578125 122.140625 248.609375 C 122.203125 244.699219 125.335938 241.5625 129.226562 241.511719 Z M 129.226562 241.511719 " fill-opacity="1" fill-rule="nonzero"/><path fill="#364548" d="M 129.226562 243.546875 C 129.886719 243.546875 130.507812 243.667969 131.085938 243.890625 C 130.082031 244.476562 129.738281 245.753906 130.324219 246.757812 C 130.703125 247.40625 131.390625 247.800781 132.136719 247.800781 C 132.929688 247.800781 133.617188 247.359375 133.972656 246.707031 C 135.058594 249.332031 133.8125 252.347656 131.195312 253.4375 C 128.578125 254.527344 125.566406 253.277344 124.476562 250.65625 C 123.390625 248.03125 124.636719 245.019531 127.253906 243.925781 C 127.878906 243.683594 128.550781 243.546875 129.226562 243.546875 Z M 129.226562 243.546875 " fill-opacity="1" fill-rule="nonzero"/><path fill="#bdd9d7" d="M 148.285156 293.277344 C 130.519531 284.832031 120.769531 273.351562 115.351562 260.824219 C 108.757812 262.714844 100.816406 263.914062 91.605469 264.441406 C 88.132812 264.636719 84.488281 264.734375 80.65625 264.734375 C 76.242188 264.734375 71.578125 264.601562 66.699219 264.34375 C 82.992188 280.652344 103.03125 293.203125 140.136719 293.433594 C 142.863281 293.433594 145.582031 293.386719 148.285156 293.277344 Z M 148.285156 293.277344 " fill-opacity="1" fill-rule="nonzero"/><path fill="#d3ecec" d="M 121.945312 272.394531 C 119.488281 269.046875 117.101562 264.859375 115.351562 260.824219 C 108.757812 262.714844 100.816406 263.925781 91.605469 264.441406 C 97.941406 267.882812 106.996094 271.070312 121.945312 272.394531 Z M 121.945312 272.394531 " fill-opacity="1" fill-rule="nonzero"/><path fill="#000000" d="M 143.636719 313.582031 C 109.566406 313.582031 83.261719 302.859375 65.488281 281.695312 C 48.496094 261.449219 40.078125 230.300781 44.53125 204.160156 C 45.289062 199.75 49.105469 196.515625 53.570312 196.515625 L 240.515625 196.515625 C 243.753906 196.636719 246.496094 196.257812 248.855469 195.765625 C 244.074219 180.253906 247.878906 162.363281 255.253906 151.136719 L 259.28125 145.058594 C 260.625 143.023438 262.730469 141.613281 265.117188 141.125 C 267.527344 140.632812 269.984375 141.136719 272.015625 142.484375 L 278.035156 146.503906 C 287.832031 154.066406 294.292969 162.449219 297.582031 171.675781 C 308.128906 171.183594 320.09375 172.886719 327.199219 177.703125 L 332.890625 181.527344 C 336.695312 184.078125 338.027344 189.050781 336.035156 193.179688 L 335.410156 194.480469 C 334.394531 196.574219 332.914062 199.613281 332.230469 200.890625 C 321.511719 221.378906 302.230469 224.785156 290.902344 225.25 C 265.03125 282.285156 212.976562 313.582031 143.636719 313.582031 Z M 61.78125 214.894531 C 60.742188 234.195312 67.445312 255.457031 79.542969 269.855469 C 93.671875 286.671875 115.230469 295.1875 143.648438 295.1875 C 207.324219 295.1875 254.472656 265.863281 276.394531 212.605469 C 277.839844 209.113281 281.179688 206.90625 285.054688 206.917969 C 296.519531 207.152344 309.046875 205.59375 315.957031 192.410156 C 311.835938 190.511719 301.523438 189.015625 292.335938 190.730469 C 289.886719 191.222656 287.320312 190.632812 285.277344 189.160156 C 283.234375 187.691406 281.886719 185.449219 281.546875 182.960938 C 280.554688 175.730469 276.589844 169.222656 269.457031 163.15625 C 264.492188 172.25 262.9375 186.648438 269.042969 196.074219 C 270.4375 198.21875 270.867188 200.863281 270.242188 203.351562 C 269.617188 205.839844 267.964844 207.949219 265.714844 209.171875 C 262.398438 210.976562 253.46875 215.226562 240.378906 214.910156 L 61.78125 214.910156 Z M 61.78125 214.894531 " fill-opacity="1" fill-rule="nonzero"/><path fill="#000000" d="M 238.03125 214.824219 L 64.507812 214.824219 C 59.445312 214.824219 55.332031 210.707031 55.332031 205.632812 L 55.332031 171.148438 C 55.332031 166.074219 59.445312 161.957031 64.507812 161.957031 L 238.03125 161.957031 C 243.09375 161.957031 247.207031 166.074219 247.207031 171.148438 L 247.207031 205.632812 C 247.207031 210.707031 243.09375 214.824219 238.03125 214.824219 Z M 73.683594 196.441406 L 228.855469 196.441406 L 228.855469 180.339844 L 73.683594 180.339844 Z M 73.683594 196.441406 " fill-opacity="1" fill-rule="nonzero"/><path fill="#000000" d="M 202.125 180.339844 L 94.421875 180.339844 C 89.355469 180.339844 85.246094 176.222656 85.246094 171.148438 L 85.246094 136.675781 C 85.246094 131.601562 89.355469 127.484375 94.421875 127.484375 L 202.125 127.484375 C 207.1875 127.484375 211.300781 131.601562 211.300781 136.675781 L 211.300781 171.148438 C 211.300781 176.234375 207.1875 180.339844 202.125 180.339844 Z M 103.59375 161.957031 L 192.949219 161.957031 L 192.949219 145.867188 L 103.59375 145.867188 Z M 103.59375 161.957031 " fill-opacity="1" fill-rule="nonzero"/><path fill="#000000" d="M 202.125 214.824219 L 166.21875 214.824219 C 161.15625 214.824219 157.042969 210.707031 157.042969 205.632812 L 157.042969 102.191406 C 157.042969 97.117188 161.15625 93 166.21875 93 L 202.125 93 C 207.1875 93 211.300781 97.117188 211.300781 102.191406 L 211.300781 205.632812 C 211.300781 210.707031 207.1875 214.824219 202.125 214.824219 Z M 175.394531 196.441406 L 192.949219 196.441406 L 192.949219 111.382812 L 175.394531 111.382812 Z M 175.394531 196.441406 " fill-opacity="1" fill-rule="nonzero"/><path fill="#000000" d="M 166.21875 214.824219 L 130.324219 214.824219 C 125.261719 214.824219 121.152344 210.707031 121.152344 205.632812 L 121.152344 136.675781 C 121.152344 131.601562 125.261719 127.484375 130.324219 127.484375 L 166.230469 127.484375 C 171.296875 127.484375 175.40625 131.601562 175.40625 136.675781 L 175.40625 205.632812 C 175.394531 210.707031 171.296875 214.824219 166.21875 214.824219 Z M 139.5 196.441406 L 157.054688 196.441406 L 157.054688 145.867188 L 139.5 145.867188 Z M 139.5 196.441406 " fill-opacity="1" fill-rule="nonzero"/><path fill="#000000" d="M 130.324219 214.824219 L 94.421875 214.824219 C 89.355469 214.824219 85.246094 210.707031 85.246094 205.632812 L 85.246094 171.148438 C 85.246094 166.074219 89.355469 161.957031 94.421875 161.957031 L 130.324219 161.957031 C 135.390625 161.957031 139.5 166.074219 139.5 171.148438 L 139.5 205.632812 C 139.5 210.707031 135.390625 214.824219 130.324219 214.824219 Z M 103.59375 196.441406 L 121.152344 196.441406 L 121.152344 180.339844 L 103.59375 180.339844 Z M 103.59375 196.441406 " fill-opacity="1" fill-rule="nonzero"/></svg>