<svg xmlns="http://www.w3.org/2000/svg" xmlns:xlink="http://www.w3.org/1999/xlink" width="500" zoomAndPan="magnify" viewBox="0 0 375 374.999991" height="500" preserveAspectRatio="xMidYMid meet" version="1.0"><defs><clipPath id="e16d9ed867"><path d="M 9.285156 43.550781 L 368 43.550781 L 368 362.714844 L 9.285156 362.714844 Z M 9.285156 43.550781 " clip-rule="nonzero"/></clipPath><clipPath id="b8622e1ead"><path d="M 36.285156 43.550781 L 340.625 43.550781 C 347.789062 43.550781 354.65625 46.394531 359.71875 51.457031 C 364.78125 56.519531 367.625 63.386719 367.625 70.550781 L 367.625 335.714844 C 367.625 342.875 364.78125 349.742188 359.71875 354.804688 C 354.65625 359.871094 347.789062 362.714844 340.625 362.714844 L 36.285156 362.714844 C 29.125 362.714844 22.257812 359.871094 17.191406 354.804688 C 12.128906 349.742188 9.285156 342.875 9.285156 335.714844 L 9.285156 70.550781 C 9.285156 63.386719 12.128906 56.519531 17.191406 51.457031 C 22.257812 46.394531 29.125 43.550781 36.285156 43.550781 Z M 36.285156 43.550781 " clip-rule="nonzero"/></clipPath><clipPath id="fb394d458f"><path d="M 9.285156 43.554688 L 367.386719 43.554688 L 367.386719 363 L 9.285156 363 Z M 9.285156 43.554688 " clip-rule="nonzero"/></clipPath><clipPath id="e9fecf0c26"><path d="M 36.285156 43.554688 L 340.613281 43.554688 C 347.773438 43.554688 354.640625 46.398438 359.707031 51.460938 C 364.769531 56.523438 367.613281 63.390625 367.613281 70.554688 L 367.613281 335.707031 C 367.613281 342.867188 364.769531 349.734375 359.707031 354.800781 C 354.640625 359.863281 347.773438 362.707031 340.613281 362.707031 L 36.285156 362.707031 C 29.121094 362.707031 22.253906 359.863281 17.191406 354.800781 C 12.128906 349.734375 9.285156 342.867188 9.285156 335.707031 L 9.285156 70.554688 C 9.285156 63.390625 12.128906 56.523438 17.191406 51.460938 C 22.253906 46.398438 29.121094 43.554688 36.285156 43.554688 Z M 36.285156 43.554688 " clip-rule="nonzero"/></clipPath><clipPath id="78d8dd86a5"><path d="M 87.203125 88 L 290.289062 88 L 290.289062 318 L 87.203125 318 Z M 87.203125 88 " clip-rule="nonzero"/></clipPath></defs><g clip-path="url(#e16d9ed867)"><g clip-path="url(#b8622e1ead)"><path fill="#ffffff" d="M 9.285156 43.550781 L 367.097656 43.550781 L 367.097656 362.714844 L 9.285156 362.714844 Z M 9.285156 43.550781 " fill-opacity="1" fill-rule="nonzero"/></g></g><g clip-path="url(#fb394d458f)"><g clip-path="url(#e9fecf0c26)"><path stroke-linecap="butt" transform="matrix(1.201691, 0, 0, 1.201691, 9.284356, 43.553724)" fill="none" stroke-linejoin="miter" d="M 22.469007 0.00080217 L 275.71893 0.00080217 C 281.677331 0.00080217 287.391935 2.367259 291.607999 6.580073 C 295.820813 10.792887 298.18727 16.507491 298.18727 22.469143 L 298.18727 243.118518 C 298.18727 249.076919 295.820813 254.791523 291.607999 259.007587 C 287.391935 263.220401 281.677331 265.586858 275.71893 265.586858 L 22.469007 265.586858 C 16.507355 265.586858 10.792751 263.220401 6.579937 259.007587 C 2.367123 254.791523 0.000666228 249.076919 0.000666228 243.118518 L 0.000666228 22.469143 C 0.000666228 16.507491 2.367123 10.792887 6.579937 6.580073 C 10.792751 2.367259 16.507355 0.00080217 22.469007 0.00080217 Z M 22.469007 0.00080217 " stroke="#000000" stroke-width="4.992964" stroke-opacity="1" stroke-miterlimit="4"/></g></g><g clip-path="url(#78d8dd86a5)"><path fill="#e44d26" d="M 105.640625 294.746094 L 87.144531 88.246094 L 290.347656 88.246094 L 271.839844 294.71875 L 188.617188 317.675781 Z M 105.640625 294.746094 " fill-opacity="1" fill-rule="nonzero"/></g><path fill="#f16529" d="M 255.988281 281.566406 L 271.808594 105.132812 L 188.746094 105.132812 L 188.746094 300.128906 Z M 255.988281 281.566406 " fill-opacity="1" fill-rule="nonzero"/><path fill="#ebebeb" d="M 188.660156 130.457031 L 124.953125 130.457031 L 131.816406 207.042969 L 188.746094 207.042969 L 188.746094 181.722656 L 155.085938 181.722656 L 152.761719 155.789062 L 188.746094 155.789062 L 188.746094 130.457031 Z M 188.746094 247.410156 L 188.636719 247.4375 L 160.308594 239.824219 L 158.507812 219.628906 L 132.957031 219.628906 L 136.519531 259.390625 L 188.632812 273.730469 L 188.746094 273.695312 Z M 188.746094 247.410156 " fill-opacity="1" fill-rule="nonzero"/><path fill="#ffffff" d="M 188.660156 207.042969 L 219.988281 207.042969 L 217.105469 239.882812 L 188.730469 247.503906 L 188.730469 273.851562 L 240.886719 259.464844 L 247.871094 181.707031 L 188.746094 181.707031 Z M 251.773438 137.253906 L 252.378906 130.457031 L 188.644531 130.457031 L 188.644531 155.78125 L 250.089844 155.78125 L 250.59375 150.085938 Z M 251.773438 137.253906 " fill-opacity="1" fill-rule="nonzero"/></svg>