<svg xmlns="http://www.w3.org/2000/svg" xmlns:xlink="http://www.w3.org/1999/xlink" width="500" zoomAndPan="magnify" viewBox="0 0 375 374.999991" height="500" preserveAspectRatio="xMidYMid meet" version="1.0"><defs><clipPath id="d00c41ec77"><path d="M 10.082031 43.550781 L 365 43.550781 L 365 359.589844 L 10.082031 359.589844 Z M 10.082031 43.550781 " clip-rule="nonzero"/></clipPath><clipPath id="5551834e0a"><path d="M 37.082031 43.550781 L 337.917969 43.550781 C 352.828125 43.550781 364.917969 55.636719 364.917969 70.550781 L 364.917969 332.589844 C 364.917969 347.5 352.828125 359.589844 337.917969 359.589844 L 37.082031 359.589844 C 22.171875 359.589844 10.082031 347.5 10.082031 332.589844 L 10.082031 70.550781 C 10.082031 55.636719 22.171875 43.550781 37.082031 43.550781 Z M 37.082031 43.550781 " clip-rule="nonzero"/></clipPath><clipPath id="0065533117"><path d="M 10.082031 43.554688 L 364.679688 43.554688 L 364.679688 360 L 10.082031 360 Z M 10.082031 43.554688 " clip-rule="nonzero"/></clipPath><clipPath id="64419ee791"><path d="M 37.082031 43.554688 L 337.90625 43.554688 C 352.816406 43.554688 364.902344 55.640625 364.902344 70.550781 L 364.902344 332.582031 C 364.902344 347.492188 352.816406 359.582031 337.90625 359.582031 L 37.082031 359.582031 C 22.171875 359.582031 10.082031 347.492188 10.082031 332.582031 L 10.082031 70.550781 C 10.082031 55.640625 22.171875 43.554688 37.082031 43.554688 Z M 37.082031 43.554688 " clip-rule="nonzero"/></clipPath><clipPath id="b948bfed99"><path d="M 154 70.582031 L 247 70.582031 L 247 223 L 154 223 Z M 154 70.582031 " clip-rule="nonzero"/></clipPath></defs><g clip-path="url(#d00c41ec77)"><g clip-path="url(#5551834e0a)"><path fill="#ff3131" d="M 10.082031 43.550781 L 364.394531 43.550781 L 364.394531 359.589844 L 10.082031 359.589844 Z M 10.082031 43.550781 " fill-opacity="1" fill-rule="nonzero"/></g></g><g clip-path="url(#0065533117)"><g clip-path="url(#64419ee791)"><path stroke-linecap="butt" transform="matrix(1.189924, 0, 0, 1.189924, 10.083348, 43.553654)" fill="none" stroke-linejoin="miter" d="M 22.689417 0.000868593 L 275.499008 0.000868593 C 288.02935 0.000868593 298.186248 10.157767 298.186248 22.688109 L 298.186248 242.896487 C 298.186248 255.42683 288.02935 265.58701 275.499008 265.58701 L 22.689417 265.58701 C 10.159074 265.58701 -0.00110678 255.42683 -0.00110678 242.896487 L -0.00110678 22.688109 C -0.00110678 10.157767 10.159074 0.000868593 22.689417 0.000868593 Z M 22.689417 0.000868593 " stroke="#ffffff" stroke-width="2.521169" stroke-opacity="1" stroke-miterlimit="4"/></g></g><path fill="#ffffff" d="M 154.425781 271.238281 C 154.425781 271.238281 144.449219 277.304688 161.359375 279.039062 C 181.714844 281.636719 192.558594 281.207031 215.089844 276.875 C 219.628906 279.652344 224.398438 281.964844 229.390625 283.808594 C 178.699219 305.480469 114.546875 282.511719 154.417969 271.238281 Z M 147.9375 243.070312 C 147.9375 243.070312 137.101562 251.300781 154.003906 253.046875 C 176.105469 255.210938 193.4375 255.640625 223.347656 249.582031 C 226.296875 252.574219 229.761719 254.738281 233.746094 256.078125 C 172.640625 274.277344 104.171875 257.816406 147.9375 243.078125 Z M 267.542969 292.460938 C 267.542969 292.460938 274.90625 298.527344 259.308594 303.296875 C 230.273438 311.976562 137.539062 314.570312 111.535156 303.296875 C 102.4375 299.40625 119.769531 293.769531 125.324219 292.902344 C 130.960938 291.601562 134.003906 291.601562 134.003906 291.601562 C 124.027344 284.667969 67.699219 305.902344 105.40625 311.960938 C 208.976562 328.863281 294.347656 304.597656 267.476562 292.460938 Z M 159.113281 213.597656 C 159.113281 213.597656 111.875 224.871094 142.210938 228.761719 C 155.210938 230.5 180.777344 230.058594 204.613281 228.332031 C 224.109375 226.597656 243.625 223.140625 243.625 223.140625 C 243.625 223.140625 236.6875 226.175781 231.921875 229.207031 C 183.824219 241.78125 91.511719 236.144531 117.953125 223.140625 C 140.484375 212.304688 159.121094 213.613281 159.121094 213.613281 Z M 243.625 260.832031 C 292.15625 235.6875 269.625 211.4375 254.023438 214.464844 C 250.128906 215.332031 248.382812 216.199219 248.382812 216.199219 C 248.382812 216.199219 249.683594 213.605469 252.714844 212.734375 C 283.488281 201.902344 307.753906 245.234375 242.738281 262.128906 C 242.738281 262.128906 243.167969 261.699219 243.609375 260.832031 Z M 163.898438 329.300781 C 210.695312 332.332031 282.207031 327.566406 283.933594 305.457031 C 283.933594 305.457031 280.46875 314.132812 245.367188 320.621094 C 205.496094 327.988281 156.09375 327.109375 127.058594 322.359375 C 127.058594 322.359375 133.125 327.546875 163.898438 329.292969 Z M 163.898438 329.300781 " fill-opacity="1" fill-rule="nonzero"/><g clip-path="url(#b948bfed99)"><path fill="#000000" d="M 214.230469 70.589844 C 214.230469 70.589844 241.101562 97.890625 188.667969 139.058594 C 146.628906 172.425781 179.136719 191.496094 188.667969 213.167969 C 163.960938 191.066406 146.199219 171.558594 158.332031 153.367188 C 176.097656 126.488281 225.066406 113.570312 214.230469 70.589844 Z M 200.445312 194.964844 C 213.015625 209.265625 196.980469 222.265625 196.980469 222.265625 C 196.980469 222.265625 229.050781 205.800781 214.3125 185.429688 C 200.882812 165.929688 190.46875 156.394531 246.8125 123.894531 C 246.8125 123.894531 157.976562 145.996094 200.445312 194.964844 Z M 200.445312 194.964844 " fill-opacity="1" fill-rule="nonzero"/></g></svg>