<svg xmlns="http://www.w3.org/2000/svg" xmlns:xlink="http://www.w3.org/1999/xlink" width="500" zoomAndPan="magnify" viewBox="0 0 375 374.999991" height="500" preserveAspectRatio="xMidYMid meet" version="1.0"><defs><g/><clipPath id="a0a492851f"><path d="M 8.863281 43.753906 L 366 43.753906 L 366 361.964844 L 8.863281 361.964844 Z M 8.863281 43.753906 " clip-rule="nonzero"/></clipPath><clipPath id="45bb43b8a8"><path d="M 35.863281 43.753906 L 339.136719 43.753906 C 354.046875 43.753906 366.136719 55.839844 366.136719 70.753906 L 366.136719 334.964844 C 366.136719 349.875 354.046875 361.964844 339.136719 361.964844 L 35.863281 361.964844 C 20.953125 361.964844 8.863281 349.875 8.863281 334.964844 L 8.863281 70.753906 C 8.863281 55.839844 20.953125 43.753906 35.863281 43.753906 Z M 35.863281 43.753906 " clip-rule="nonzero"/></clipPath><clipPath id="0464111d4c"><path d="M 8.863281 43.757812 L 365.898438 43.757812 L 365.898438 362 L 8.863281 362 Z M 8.863281 43.757812 " clip-rule="nonzero"/></clipPath><clipPath id="35739633e3"><path d="M 35.863281 43.757812 L 339.125 43.757812 C 354.035156 43.757812 366.121094 55.84375 366.121094 70.757812 L 366.121094 334.957031 C 366.121094 349.867188 354.035156 361.957031 339.125 361.957031 L 35.863281 361.957031 C 20.953125 361.957031 8.863281 349.867188 8.863281 334.957031 L 8.863281 70.757812 C 8.863281 55.84375 20.953125 43.757812 35.863281 43.757812 Z M 35.863281 43.757812 " clip-rule="nonzero"/></clipPath></defs><g clip-path="url(#a0a492851f)"><g clip-path="url(#45bb43b8a8)"><path fill="#ffde59" d="M 8.863281 43.753906 L 365.609375 43.753906 L 365.609375 361.964844 L 8.863281 361.964844 Z M 8.863281 43.753906 " fill-opacity="1" fill-rule="nonzero"/></g></g><g clip-path="url(#0464111d4c)"><g clip-path="url(#35739633e3)"><path stroke-linecap="butt" transform="matrix(1.198101, 0, 0, 1.198101, 8.864227, 43.757239)" fill="none" stroke-linejoin="miter" d="M 22.534876 0.000478902 L 275.653557 0.000478902 C 288.098382 0.000478902 298.185961 10.088058 298.185961 22.536144 L 298.185961 243.051143 C 298.185961 255.495968 288.098382 265.586808 275.653557 265.586808 L 22.534876 265.586808 C 10.09005 265.586808 -0.000789005 255.495968 -0.000789005 243.051143 L -0.000789005 22.536144 C -0.000789005 10.088058 10.09005 0.000478902 22.534876 0.000478902 Z M 22.534876 0.000478902 " stroke="#000000" stroke-width="2.503963" stroke-opacity="1" stroke-miterlimit="4"/></g></g><g fill="#000000" fill-opacity="1"><g transform="translate(78.243187, 278.830534)"><g><path d="M 4.28125 59.359375 C -5.382812 59.359375 -13.804688 58.34375 -20.984375 56.3125 L -20.984375 20.703125 C -13.617188 22.546875 -6.898438 23.46875 -0.828125 23.46875 C 8.554688 23.46875 15.273438 20.546875 19.328125 14.703125 C 23.378906 8.859375 25.40625 -0.273438 25.40625 -12.703125 L 25.40625 -201.8125 L 68.1875 -201.8125 L 68.1875 -12.96875 C 68.1875 10.582031 62.800781 28.523438 52.03125 40.859375 C 41.269531 53.191406 25.351562 59.359375 4.28125 59.359375 Z M 4.28125 59.359375 "/></g></g><g transform="translate(171.831476, 278.830534)"><g><path d="M 129.75 -45.828125 C 129.75 -30.003906 124.25 -17.945312 113.25 -9.65625 C 102.257812 -1.375 85.8125 2.765625 63.90625 2.765625 C 52.6875 2.765625 43.117188 2.003906 35.203125 0.484375 C 27.285156 -1.035156 19.875 -3.269531 12.96875 -6.21875 L 12.96875 -41 C 20.789062 -37.3125 29.601562 -34.222656 39.40625 -31.734375 C 49.207031 -29.253906 57.835938 -28.015625 65.296875 -28.015625 C 80.566406 -28.015625 88.203125 -32.4375 88.203125 -41.28125 C 88.203125 -44.59375 87.191406 -47.28125 85.171875 -49.34375 C 83.148438 -51.414062 79.648438 -53.765625 74.671875 -56.390625 C 69.703125 -59.015625 63.078125 -62.070312 54.796875 -65.5625 C 42.929688 -70.53125 34.210938 -75.128906 28.640625 -79.359375 C 23.078125 -83.597656 19.03125 -88.457031 16.5 -93.9375 C 13.96875 -99.414062 12.703125 -106.15625 12.703125 -114.15625 C 12.703125 -127.863281 18.015625 -138.46875 28.640625 -145.96875 C 39.273438 -153.46875 54.34375 -157.21875 73.84375 -157.21875 C 92.4375 -157.21875 110.519531 -153.171875 128.09375 -145.078125 L 115.40625 -114.703125 C 107.675781 -118.015625 100.453125 -120.726562 93.734375 -122.84375 C 87.015625 -124.96875 80.15625 -126.03125 73.15625 -126.03125 C 60.738281 -126.03125 54.53125 -122.671875 54.53125 -115.953125 C 54.53125 -112.179688 56.53125 -108.914062 60.53125 -106.15625 C 64.53125 -103.394531 73.296875 -99.296875 86.828125 -93.859375 C 98.878906 -88.984375 107.710938 -84.425781 113.328125 -80.1875 C 118.941406 -75.957031 123.082031 -71.082031 125.75 -65.5625 C 128.414062 -60.039062 129.75 -53.460938 129.75 -45.828125 Z M 129.75 -45.828125 "/></g></g></g></svg>