<svg xmlns="http://www.w3.org/2000/svg" xmlns:xlink="http://www.w3.org/1999/xlink" width="500" zoomAndPan="magnify" viewBox="0 0 375 374.999991" height="500" preserveAspectRatio="xMidYMid meet" version="1.0"><defs><clipPath id="20a063092a"><path d="M 8.328125 43.550781 L 367 43.550781 L 367 362.714844 L 8.328125 362.714844 Z M 8.328125 43.550781 " clip-rule="nonzero"/></clipPath><clipPath id="19648a5802"><path d="M 35.328125 43.550781 L 339.671875 43.550781 C 346.832031 43.550781 353.699219 46.394531 358.761719 51.457031 C 363.828125 56.519531 366.671875 63.386719 366.671875 70.550781 L 366.671875 335.714844 C 366.671875 342.875 363.828125 349.742188 358.761719 354.804688 C 353.699219 359.871094 346.832031 362.714844 339.671875 362.714844 L 35.328125 362.714844 C 28.167969 362.714844 21.300781 359.871094 16.238281 354.804688 C 11.171875 349.742188 8.328125 342.875 8.328125 335.714844 L 8.328125 70.550781 C 8.328125 63.386719 11.171875 56.519531 16.238281 51.457031 C 21.300781 46.394531 28.167969 43.550781 35.328125 43.550781 Z M 35.328125 43.550781 " clip-rule="nonzero"/></clipPath><clipPath id="8abda12a7d"><path d="M 8.328125 43.554688 L 366.433594 43.554688 L 366.433594 363 L 8.328125 363 Z M 8.328125 43.554688 " clip-rule="nonzero"/></clipPath><clipPath id="d089e3e815"><path d="M 35.328125 43.554688 L 339.660156 43.554688 C 346.820312 43.554688 353.6875 46.398438 358.75 51.460938 C 363.8125 56.523438 366.65625 63.390625 366.65625 70.550781 L 366.65625 335.707031 C 366.65625 342.867188 363.8125 349.734375 358.75 354.800781 C 353.6875 359.863281 346.820312 362.707031 339.660156 362.707031 L 35.328125 362.707031 C 28.167969 362.707031 21.300781 359.863281 16.238281 354.800781 C 11.171875 349.734375 8.328125 342.867188 8.328125 335.707031 L 8.328125 70.550781 C 8.328125 63.390625 11.171875 56.523438 16.238281 51.460938 C 21.300781 46.398438 28.167969 43.554688 35.328125 43.554688 Z M 35.328125 43.554688 " clip-rule="nonzero"/></clipPath><clipPath id="1514baaf1a"><path d="M 37.707031 84 L 143 84 L 143 218 L 37.707031 218 Z M 37.707031 84 " clip-rule="nonzero"/></clipPath><clipPath id="2cb8dbed99"><path d="M 37.707031 74.476562 L 250 74.476562 L 250 145 L 37.707031 145 Z M 37.707031 74.476562 " clip-rule="nonzero"/></clipPath><clipPath id="e4159e0e47"><path d="M 126 236 L 232 236 L 232 317.21875 L 126 317.21875 Z M 126 236 " clip-rule="nonzero"/></clipPath><clipPath id="972690f3bb"><path d="M 231 174 L 336.925781 174 L 336.925781 317.21875 L 231 317.21875 Z M 231 174 " clip-rule="nonzero"/></clipPath><clipPath id="bcbff46a2f"><path d="M 301 164 L 336.925781 164 L 336.925781 185 L 301 185 Z M 301 164 " clip-rule="nonzero"/></clipPath><clipPath id="36f6d7c3fc"><path d="M 319 134 L 336.925781 134 L 336.925781 165 L 319 165 Z M 319 134 " clip-rule="nonzero"/></clipPath><clipPath id="24198c1581"><path d="M 301 124 L 336.925781 124 L 336.925781 145 L 301 145 Z M 301 124 " clip-rule="nonzero"/></clipPath></defs><g clip-path="url(#20a063092a)"><g clip-path="url(#19648a5802)"><path fill="#ffffff" d="M 8.328125 43.550781 L 366.140625 43.550781 L 366.140625 362.714844 L 8.328125 362.714844 Z M 8.328125 43.550781 " fill-opacity="1" fill-rule="nonzero"/></g></g><g clip-path="url(#8abda12a7d)"><g clip-path="url(#d089e3e815)"><path stroke-linecap="butt" transform="matrix(1.201691, 0, 0, 1.201691, 8.328942, 43.553695)" fill="none" stroke-linejoin="miter" d="M 22.467661 0.000826136 L 275.720834 0.000826136 C 281.679235 0.000826136 287.393839 2.367283 291.606653 6.580097 C 295.819467 10.792911 298.185924 16.507515 298.185924 22.465916 L 298.185924 243.118542 C 298.185924 249.076943 295.819467 254.791547 291.606653 259.007611 C 287.393839 263.220425 281.679235 265.586882 275.720834 265.586882 L 22.467661 265.586882 C 16.50926 265.586882 10.794656 263.220425 6.581842 259.007611 C 2.365778 254.791547 -0.00067957 249.076943 -0.00067957 243.118542 L -0.00067957 22.465916 C -0.00067957 16.507515 2.365778 10.792911 6.581842 6.580097 C 10.794656 2.367283 16.50926 0.000826136 22.467661 0.000826136 Z M 22.467661 0.000826136 " stroke="#000000" stroke-width="4.992964" stroke-opacity="1" stroke-miterlimit="4"/></g></g><path fill="#097bb6" d="M 55.5 115.3125 L 55.5 217.984375 L 73.164062 208.046875 L 73.164062 125.246094 Z M 55.5 115.3125 " fill-opacity="1" fill-rule="nonzero"/><g clip-path="url(#1514baaf1a)"><path fill="#020c26" d="M 37.835938 208.046875 L 37.835938 84.402344 L 142.714844 144.015625 L 142.714844 164.992188 L 55.5 115.3125 L 55.5 217.984375 Z M 37.835938 208.046875 " fill-opacity="1" fill-rule="nonzero"/></g><path fill="#097bb6" d="M 249.804688 84.398438 L 249.804688 208.046875 L 179.15625 247.789062 L 161.488281 236.75 L 232.140625 197.007812 L 232.140625 114.207031 L 142.714844 164.992188 L 142.714844 144.015625 Z M 249.804688 84.398438 " fill-opacity="1" fill-rule="nonzero"/><g clip-path="url(#2cb8dbed99)"><path fill="#004aad" d="M 232.140625 74.464844 L 143.820312 124.144531 L 55.5 74.464844 L 37.835938 84.402344 L 142.714844 144.015625 L 249.804688 84.402344 Z M 232.140625 74.464844 " fill-opacity="1" fill-rule="nonzero"/></g><path fill="#020c26" d="M 214.472656 124.144531 L 214.472656 187.074219 L 232.140625 197.011719 L 232.140625 114.207031 Z M 214.472656 124.144531 " fill-opacity="1" fill-rule="nonzero"/><path fill="#004aad" d="M 126.15625 236.75 L 214.472656 187.074219 L 232.140625 197.011719 L 161.488281 236.75 L 231.035156 276.492188 L 301.699219 236.75 L 319.351562 246.6875 L 231.035156 296.363281 Z M 126.15625 236.75 " fill-opacity="1" fill-rule="nonzero"/><g clip-path="url(#e4159e0e47)"><path fill="#020c26" d="M 126.15625 236.75 L 126.15625 257.726562 L 231.035156 317.347656 L 231.035156 296.363281 Z M 126.15625 236.75 " fill-opacity="1" fill-rule="nonzero"/></g><path fill="#020c26" d="M 319.351562 246.6875 L 319.351562 184.863281 L 301.699219 174.929688 L 301.699219 236.75 Z M 319.351562 246.6875 " fill-opacity="1" fill-rule="nonzero"/><g clip-path="url(#972690f3bb)"><path fill="#097bb6" d="M 231.035156 296.363281 L 319.351562 246.6875 L 319.351562 184.863281 L 337.019531 174.929688 L 337.019531 257.726562 L 231.035156 317.347656 Z M 231.035156 296.363281 " fill-opacity="1" fill-rule="nonzero"/></g><g clip-path="url(#bcbff46a2f)"><path fill="#004aad" d="M 337.019531 174.929688 L 319.351562 184.863281 L 301.699219 174.929688 L 319.351562 164.992188 Z M 337.019531 174.929688 " fill-opacity="1" fill-rule="nonzero"/></g><g clip-path="url(#36f6d7c3fc)"><path fill="#097bb6" d="M 319.351562 164.992188 L 319.351562 144.015625 L 337.019531 134.082031 L 337.019531 155.054688 Z M 319.351562 164.992188 " fill-opacity="1" fill-rule="nonzero"/></g><path fill="#020c26" d="M 319.351562 144.015625 L 319.351562 164.992188 L 301.699219 155.054688 L 301.699219 134.082031 Z M 319.351562 144.015625 " fill-opacity="1" fill-rule="nonzero"/><g clip-path="url(#24198c1581)"><path fill="#004aad" d="M 337.019531 134.082031 L 319.351562 144.015625 L 301.699219 134.082031 L 319.351562 124.144531 Z M 337.019531 134.082031 " fill-opacity="1" fill-rule="nonzero"/></g></svg>