<svg xmlns="http://www.w3.org/2000/svg" xmlns:xlink="http://www.w3.org/1999/xlink" width="500" zoomAndPan="magnify" viewBox="0 0 375 374.999991" height="500" preserveAspectRatio="xMidYMid meet" version="1.0"><defs><clipPath id="a018eea5cc"><path d="M 8.53125 43.910156 L 366 43.910156 L 366 362.714844 L 8.53125 362.714844 Z M 8.53125 43.910156 " clip-rule="nonzero"/></clipPath><clipPath id="9f25597f7c"><path d="M 35.53125 43.910156 L 339.46875 43.910156 C 346.628906 43.910156 353.496094 46.757812 358.558594 51.820312 C 363.625 56.882812 366.46875 63.75 366.46875 70.910156 L 366.46875 335.714844 C 366.46875 342.875 363.625 349.742188 358.558594 354.804688 C 353.496094 359.871094 346.628906 362.714844 339.46875 362.714844 L 35.53125 362.714844 C 28.371094 362.714844 21.503906 359.871094 16.441406 354.804688 C 11.375 349.742188 8.53125 342.875 8.53125 335.714844 L 8.53125 70.910156 C 8.53125 63.75 11.375 56.882812 16.441406 51.820312 C 21.503906 46.757812 28.371094 43.910156 35.53125 43.910156 Z M 35.53125 43.910156 " clip-rule="nonzero"/></clipPath><clipPath id="efa012a7a2"><path d="M 8.53125 43.914062 L 366.230469 43.914062 L 366.230469 363 L 8.53125 363 Z M 8.53125 43.914062 " clip-rule="nonzero"/></clipPath><clipPath id="00df71f892"><path d="M 35.53125 43.914062 L 339.457031 43.914062 C 346.617188 43.914062 353.484375 46.761719 358.546875 51.824219 C 363.609375 56.886719 366.453125 63.753906 366.453125 70.914062 L 366.453125 335.707031 C 366.453125 342.867188 363.609375 349.734375 358.546875 354.800781 C 353.484375 359.863281 346.617188 362.707031 339.457031 362.707031 L 35.53125 362.707031 C 28.371094 362.707031 21.503906 359.863281 16.441406 354.800781 C 11.375 349.734375 8.53125 342.867188 8.53125 335.707031 L 8.53125 70.914062 C 8.53125 63.753906 11.375 56.886719 16.441406 51.824219 C 21.503906 46.761719 28.371094 43.914062 35.53125 43.914062 Z M 35.53125 43.914062 " clip-rule="nonzero"/></clipPath><clipPath id="75138bbe26"><path d="M 33 203 L 161 203 L 161 265.375 L 33 265.375 Z M 33 203 " clip-rule="nonzero"/></clipPath></defs><g clip-path="url(#a018eea5cc)"><g clip-path="url(#9f25597f7c)"><path fill="#ffffff" d="M 8.53125 43.910156 L 365.941406 43.910156 L 365.941406 362.714844 L 8.53125 362.714844 Z M 8.53125 43.910156 " fill-opacity="1" fill-rule="nonzero"/></g></g><g clip-path="url(#efa012a7a2)"><g clip-path="url(#00df71f892)"><path stroke-linecap="butt" transform="matrix(1.200327, 0, 0, 1.200327, 8.532296, 43.91596)" fill="none" stroke-linejoin="miter" d="M 22.492999 -0.00158108 L 275.695487 -0.00158108 C 281.660659 -0.00158108 287.381756 2.370819 291.599357 6.58842 C 295.816958 10.806021 298.186104 16.527118 298.186104 22.492289 L 298.186104 243.092984 C 298.186104 249.058156 295.816958 254.779253 291.599357 259.000108 C 287.381756 263.217709 281.660659 265.586855 275.695487 265.586855 L 22.492999 265.586855 C 16.527828 265.586855 10.806731 263.217709 6.58913 259.000108 C 2.368275 254.779253 -0.000871246 249.058156 -0.000871246 243.092984 L -0.000871246 22.492289 C -0.000871246 16.527118 2.368275 10.806021 6.58913 6.58842 C 10.806731 2.370819 16.527828 -0.00158108 22.492999 -0.00158108 Z M 22.492999 -0.00158108 " stroke="#000000" stroke-width="3.748978" stroke-opacity="1" stroke-miterlimit="4"/></g></g><g clip-path="url(#75138bbe26)"><path fill="#00618a" d="M 33.796875 251.269531 L 43.925781 251.269531 L 43.925781 211.160156 L 59.601562 246.140625 C 61.453125 250.355469 63.984375 251.871094 68.953125 251.871094 C 73.917969 251.871094 76.351562 250.375 78.203125 246.140625 L 93.886719 211.160156 L 93.886719 251.285156 L 104.015625 251.285156 L 104.015625 211.226562 C 104.015625 207.320312 102.453125 205.429688 99.242188 204.453125 C 91.546875 202.042969 86.386719 204.128906 84.050781 209.339844 L 68.664062 243.859375 L 53.761719 209.324219 C 51.519531 204.113281 46.261719 202.03125 38.570312 204.4375 C 35.355469 205.417969 33.796875 207.304688 33.796875 211.214844 Z M 112.433594 218.613281 L 122.558594 218.613281 L 122.558594 240.71875 C 122.464844 241.921875 122.941406 244.742188 128.492188 244.828125 C 131.320312 244.871094 150.335938 244.828125 150.515625 244.828125 L 150.515625 218.503906 L 160.664062 218.503906 C 160.707031 218.503906 160.652344 254.394531 160.652344 254.550781 C 160.707031 263.402344 149.703125 265.324219 144.632812 265.472656 L 112.652344 265.472656 L 112.652344 258.636719 L 144.691406 258.636719 C 151.207031 257.941406 150.441406 254.695312 150.441406 253.597656 L 150.441406 250.933594 L 128.914062 250.933594 C 118.898438 250.84375 112.523438 246.457031 112.441406 241.410156 C 112.433594 240.960938 112.65625 218.828125 112.4375 218.613281 Z M 112.433594 218.613281 " fill-opacity="1" fill-rule="nonzero"/></g><path fill="#e48e00" d="M 168.46875 251.269531 L 197.589844 251.269531 C 200.996094 251.269531 204.308594 250.554688 206.941406 249.316406 C 211.324219 247.296875 213.464844 244.5625 213.464844 240.980469 L 213.464844 233.554688 C 213.464844 230.625 211.03125 227.886719 206.261719 226.066406 C 203.726562 225.085938 200.609375 224.566406 197.59375 224.566406 L 185.320312 224.566406 C 181.230469 224.566406 179.285156 223.328125 178.796875 220.59375 C 178.699219 220.269531 178.699219 219.992188 178.699219 219.679688 L 178.699219 215.058594 C 178.699219 214.796875 178.699219 214.535156 178.796875 214.210938 C 179.285156 212.125 180.355469 211.539062 183.957031 211.199219 C 184.25 211.199219 184.640625 211.132812 184.933594 211.132812 L 213.855469 211.132812 L 213.855469 204.359375 L 185.421875 204.359375 C 181.328125 204.359375 179.1875 204.621094 177.238281 205.207031 C 171.191406 207.09375 168.5625 210.109375 168.5625 215.316406 L 168.5625 221.246094 C 168.5625 225.804688 173.726562 229.714844 182.390625 230.625 C 183.367188 230.6875 184.339844 230.753906 185.3125 230.753906 L 195.832031 230.753906 C 196.21875 230.753906 196.609375 230.753906 196.902344 230.820312 C 200.113281 231.082031 201.480469 231.667969 202.453125 232.839844 C 203.054688 233.441406 203.234375 234.011719 203.234375 234.644531 L 203.234375 240.574219 C 203.234375 241.289062 202.746094 242.203125 201.773438 242.980469 C 200.894531 243.765625 199.4375 244.285156 197.488281 244.414062 C 197.097656 244.414062 196.804688 244.480469 196.417969 244.480469 L 168.464844 244.480469 L 168.464844 251.253906 Z M 276.644531 239.484375 C 276.644531 246.453125 281.804688 250.359375 292.226562 251.140625 C 293.199219 251.21875 294.171875 251.261719 295.148438 251.269531 L 321.539062 251.269531 L 321.539062 244.496094 L 294.953125 244.496094 C 289.011719 244.496094 286.773438 243 286.773438 239.417969 L 286.773438 204.371094 L 276.644531 204.371094 Z M 219.925781 239.835938 L 219.925781 215.6875 C 219.925781 209.550781 224.21875 205.832031 232.710938 204.65625 C 233.617188 204.527344 234.527344 204.460938 235.441406 204.460938 L 254.667969 204.460938 C 255.617188 204.460938 256.558594 204.527344 257.5 204.65625 C 265.988281 205.832031 270.28125 209.550781 270.28125 215.6875 L 270.28125 239.835938 C 270.28125 244.8125 268.457031 247.476562 264.253906 249.210938 L 274.230469 258.25 L 262.472656 258.25 L 254.402344 250.9375 L 246.273438 251.453125 L 235.441406 251.453125 C 233.589844 251.453125 231.636719 251.191406 229.488281 250.605469 C 223.035156 248.84375 219.925781 245.449219 219.925781 239.835938 Z M 230.859375 239.234375 C 230.859375 239.558594 230.957031 239.882812 231.054688 240.277344 C 231.652344 243.085938 234.273438 244.652344 238.257812 244.652344 L 247.460938 244.652344 L 239.007812 236.996094 L 250.769531 236.996094 L 258.125 243.671875 C 259.484375 242.945312 260.375 241.835938 260.675781 240.410156 C 260.773438 240.082031 260.773438 239.757812 260.773438 239.429688 L 260.773438 216.277344 C 260.773438 216.015625 260.773438 215.671875 260.675781 215.363281 C 260.074219 212.753906 257.457031 211.25 253.550781 211.25 L 238.285156 211.25 C 233.78125 211.25 230.871094 213.207031 230.871094 216.277344 L 230.871094 239.25 Z M 230.859375 239.234375 " fill-opacity="1" fill-rule="nonzero"/><path fill="#00618a" d="M 330.445312 193.136719 C 324.21875 192.96875 319.464844 193.546875 315.398438 195.265625 C 314.242188 195.757812 312.398438 195.769531 312.210938 197.222656 C 312.847656 197.886719 312.945312 198.886719 313.449219 199.707031 C 314.421875 201.28125 316.0625 203.394531 317.523438 204.5 C 319.121094 205.710938 320.765625 207.003906 322.480469 208.054688 C 325.527344 209.917969 328.929688 210.984375 331.863281 212.851562 C 333.589844 213.949219 335.308594 215.335938 336.996094 216.578125 C 337.828125 217.191406 338.390625 218.148438 339.472656 218.53125 L 339.472656 218.355469 C 338.902344 217.625 338.757812 216.625 338.234375 215.871094 L 335.933594 213.5625 C 333.679688 210.546875 330.828125 207.933594 327.789062 205.746094 C 325.367188 204 319.949219 201.644531 318.9375 198.816406 L 318.761719 198.640625 C 320.476562 198.445312 322.488281 197.820312 324.074219 197.398438 C 326.734375 196.683594 329.113281 196.867188 331.863281 196.15625 L 335.582031 195.089844 L 335.582031 194.378906 C 334.195312 192.949219 333.203125 191.054688 331.6875 189.761719 C 327.726562 186.371094 323.398438 182.992188 318.945312 180.167969 C 316.472656 178.601562 313.417969 177.585938 310.800781 176.261719 C 309.917969 175.8125 308.371094 175.582031 307.789062 174.839844 C 306.414062 173.078125 305.667969 170.847656 304.605469 168.816406 C 302.382812 164.523438 300.199219 159.832031 298.230469 155.316406 C 296.886719 152.238281 296.007812 149.199219 294.335938 146.4375 C 286.300781 133.179688 277.644531 125.175781 264.242188 117.3125 C 261.390625 115.640625 257.957031 114.976562 254.328125 114.113281 L 248.484375 113.757812 C 247.296875 113.261719 246.058594 111.800781 244.945312 111.09375 C 240.503906 108.277344 229.113281 102.160156 225.824219 110.191406 C 223.75 115.269531 228.929688 120.226562 230.78125 122.800781 C 232.082031 124.609375 233.75 126.628906 234.675781 128.660156 C 235.285156 129.996094 235.394531 131.335938 235.914062 132.746094 C 237.203125 136.210938 238.320312 140.011719 239.988281 143.226562 C 240.828125 144.851562 241.753906 146.566406 242.820312 148.019531 C 243.472656 148.914062 244.589844 149.304688 244.765625 150.6875 C 243.671875 152.222656 243.609375 154.601562 242.996094 156.546875 C 240.226562 165.300781 241.273438 176.175781 245.296875 182.65625 C 246.53125 184.644531 249.4375 188.910156 253.441406 187.273438 C 256.9375 185.84375 256.140625 181.414062 257.15625 177.503906 C 257.382812 176.617188 257.246094 175.96875 257.6875 175.375 L 257.6875 175.550781 L 260.875 181.945312 C 263.234375 185.753906 267.421875 189.738281 270.964844 192.425781 C 272.804688 193.820312 274.269531 196.230469 276.632812 197.042969 L 276.632812 196.867188 L 276.453125 196.867188 C 275.992188 196.144531 275.273438 195.847656 274.683594 195.269531 C 273.296875 193.90625 271.757812 192.210938 270.609375 190.652344 C 267.382812 186.257812 264.535156 181.449219 261.9375 176.445312 C 260.699219 174.054688 259.617188 171.417969 258.574219 168.984375 C 258.171875 168.046875 258.175781 166.628906 257.335938 166.144531 C 256.191406 167.925781 254.503906 169.367188 253.617188 171.472656 C 252.203125 174.835938 252.019531 178.9375 251.496094 183.191406 C 251.183594 183.304688 251.320312 183.226562 251.140625 183.371094 C 248.675781 182.773438 247.808594 180.226562 246.890625 178.042969 C 244.574219 172.515625 244.144531 163.621094 246.183594 157.265625 C 246.707031 155.621094 249.09375 150.4375 248.128906 148.917969 C 247.667969 147.398438 246.148438 146.507812 245.296875 145.363281 C 244.246094 143.933594 243.191406 142.042969 242.464844 140.390625 C 240.566406 136.082031 239.683594 131.25 237.6875 126.890625 C 236.730469 124.8125 235.117188 122.707031 233.792969 120.867188 C 232.324219 118.820312 230.679688 117.308594 229.542969 114.84375 C 229.136719 113.964844 228.589844 112.554688 229.1875 111.648438 C 229.246094 111.382812 229.375 111.152344 229.566406 110.957031 C 229.757812 110.765625 229.988281 110.640625 230.253906 110.582031 C 231.277344 109.789062 234.140625 110.84375 235.207031 111.292969 C 238.046875 112.476562 240.417969 113.601562 242.824219 115.199219 C 243.976562 115.953125 245.144531 117.453125 246.539062 117.867188 L 248.128906 117.867188 C 250.621094 118.441406 253.414062 118.046875 255.742188 118.753906 C 259.855469 120.007812 263.542969 121.960938 266.894531 124.082031 C 277.097656 130.546875 285.441406 139.746094 291.148438 150.738281 C 292.066406 152.503906 292.460938 154.191406 293.273438 156.066406 C 294.902344 159.828125 296.957031 163.734375 298.582031 167.429688 C 300.203125 171.121094 301.78125 174.839844 304.070312 177.910156 C 305.273438 179.519531 309.925781 180.386719 312.035156 181.28125 C 313.519531 181.910156 315.945312 182.566406 317.347656 183.414062 C 320.027344 185.035156 322.625 186.96875 325.140625 188.746094 C 326.394531 189.632812 330.257812 191.578125 330.449219 193.183594 Z M 330.445312 193.136719 " fill-opacity="1" fill-rule="nonzero"/><path fill="#00618a" d="M 251.320312 125.46875 C 250.023438 125.445312 249.105469 125.613281 248.136719 125.824219 L 248.136719 126.003906 L 248.3125 126.003906 C 248.929688 127.28125 250.023438 128.101562 250.789062 129.199219 L 252.558594 132.929688 L 252.738281 132.75 C 253.832031 131.976562 254.335938 130.738281 254.328125 128.84375 C 253.886719 128.378906 253.824219 127.796875 253.441406 127.246094 C 252.9375 126.507812 251.941406 126.085938 251.320312 125.46875 Z M 251.320312 125.46875 " fill-opacity="1" fill-rule="evenodd"/><path fill="#e48e00" d="M 326.300781 244.304688 C 326.300781 248.777344 329.824219 251.792969 333.765625 251.792969 C 337.707031 251.792969 341.230469 248.777344 341.230469 244.304688 C 341.230469 239.832031 337.707031 236.816406 333.765625 236.816406 C 329.824219 236.816406 326.300781 239.832031 326.300781 244.304688 Z M 339.558594 244.304688 C 339.558594 247.699219 336.96875 250.234375 333.761719 250.234375 C 330.519531 250.234375 327.96875 247.699219 327.96875 244.304688 C 327.96875 240.910156 330.515625 238.375 333.761719 238.375 C 336.96875 238.375 339.558594 240.910156 339.558594 244.304688 Z M 335.773438 248.578125 L 337.445312 248.578125 L 334.996094 244.824219 C 336.3125 244.6875 337.304688 244.046875 337.304688 242.488281 C 337.304688 240.75 336.210938 240.035156 334.101562 240.035156 L 330.777344 240.035156 L 330.777344 248.578125 L 332.210938 248.578125 L 332.210938 244.886719 L 333.542969 244.886719 Z M 332.210938 243.683594 L 332.210938 241.230469 L 333.863281 241.230469 C 334.71875 241.230469 335.753906 241.390625 335.753906 242.390625 C 335.753906 243.585938 334.816406 243.6875 333.742188 243.6875 L 332.210938 243.6875 Z M 332.210938 243.683594 " fill-opacity="1" fill-rule="evenodd"/></svg>