<svg xmlns="http://www.w3.org/2000/svg" xmlns:xlink="http://www.w3.org/1999/xlink" width="500" zoomAndPan="magnify" viewBox="0 0 375 374.999991" height="500" preserveAspectRatio="xMidYMid meet" version="1.0"><defs><clipPath id="2dd5f4a561"><path d="M 8.328125 43.550781 L 367 43.550781 L 367 362.714844 L 8.328125 362.714844 Z M 8.328125 43.550781 " clip-rule="nonzero"/></clipPath><clipPath id="30523d13dc"><path d="M 53.328125 43.550781 L 321.671875 43.550781 C 333.605469 43.550781 345.050781 48.289062 353.492188 56.730469 C 361.929688 65.167969 366.671875 76.613281 366.671875 88.550781 L 366.671875 317.714844 C 366.671875 329.648438 361.929688 341.09375 353.492188 349.535156 C 345.050781 357.972656 333.605469 362.714844 321.671875 362.714844 L 53.328125 362.714844 C 41.394531 362.714844 29.949219 357.972656 21.507812 349.535156 C 13.070312 341.09375 8.328125 329.648438 8.328125 317.714844 L 8.328125 88.550781 C 8.328125 76.613281 13.070312 65.167969 21.507812 56.730469 C 29.949219 48.289062 41.394531 43.550781 53.328125 43.550781 Z M 53.328125 43.550781 " clip-rule="nonzero"/></clipPath><clipPath id="78e9d46667"><path d="M 8.328125 43.550781 L 366.464844 43.550781 L 366.464844 362.597656 L 8.328125 362.597656 Z M 8.328125 43.550781 " clip-rule="nonzero"/></clipPath><clipPath id="133f8f39db"><path d="M 53.328125 43.550781 L 321.664062 43.550781 C 333.597656 43.550781 345.042969 48.292969 353.484375 56.730469 C 361.921875 65.171875 366.664062 76.617188 366.664062 88.550781 L 366.664062 317.710938 C 366.664062 329.644531 361.921875 341.089844 353.484375 349.53125 C 345.042969 357.96875 333.597656 362.710938 321.664062 362.710938 L 53.328125 362.710938 C 41.394531 362.710938 29.949219 357.96875 21.507812 349.53125 C 13.070312 341.089844 8.328125 329.644531 8.328125 317.710938 L 8.328125 88.550781 C 8.328125 76.617188 13.070312 65.171875 21.507812 56.730469 C 29.949219 48.292969 41.394531 43.550781 53.328125 43.550781 Z M 53.328125 43.550781 " clip-rule="nonzero"/></clipPath><clipPath id="a87b96f949"><path d="M 29.441406 121.242188 L 345.765625 121.242188 L 345.765625 284.855469 L 29.441406 284.855469 Z M 29.441406 121.242188 " clip-rule="nonzero"/></clipPath><clipPath id="6e20479443"><path d="M 29.738281 203.167969 C 29.738281 248.351562 100.421875 284.984375 187.605469 284.984375 C 274.789062 284.984375 345.46875 248.351562 345.46875 203.167969 C 345.46875 157.980469 274.789062 121.347656 187.605469 121.347656 C 100.421875 121.347656 29.738281 157.984375 29.738281 203.167969 " clip-rule="nonzero"/></clipPath><clipPath id="50e2eeb3d6"><path d="M 29.738281 203.167969 C 29.738281 248.351562 100.421875 284.984375 187.605469 284.984375 C 274.789062 284.984375 345.46875 248.351562 345.46875 203.167969 C 345.46875 157.980469 274.789062 121.347656 187.605469 121.347656 C 100.421875 121.347656 29.738281 157.984375 29.738281 203.167969 " clip-rule="nonzero"/></clipPath><radialGradient gradientTransform="matrix(1.007437, 0, 0, 0.992563, 124.52202, 150.112596)" gradientUnits="userSpaceOnUse" r="205.7703" cx="0" id="7a5c4412fb" cy="0" fx="0" fy="0"><stop stop-opacity="1" stop-color="rgb(68.199158%, 69.799805%, 83.499146%)" offset="0"/><stop stop-opacity="1" stop-color="rgb(68.199158%, 69.799805%, 83.499146%)" offset="0.25"/><stop stop-opacity="1" stop-color="rgb(68.164062%, 69.764709%, 83.473206%)" offset="0.296875"/><stop stop-opacity="1" stop-color="rgb(67.956543%, 69.555664%, 83.317566%)" offset="0.300781"/><stop stop-opacity="1" stop-color="rgb(67.608643%, 69.20929%, 83.059692%)" offset="0.304688"/><stop stop-opacity="1" stop-color="rgb(67.260742%, 68.861389%, 82.800293%)" offset="0.308594"/><stop stop-opacity="1" stop-color="rgb(66.914368%, 68.513489%, 82.542419%)" offset="0.3125"/><stop stop-opacity="1" stop-color="rgb(66.566467%, 68.167114%, 82.28302%)" offset="0.316406"/><stop stop-opacity="1" stop-color="rgb(66.220093%, 67.819214%, 82.025146%)" offset="0.320312"/><stop stop-opacity="1" stop-color="rgb(65.872192%, 67.472839%, 81.765747%)" offset="0.324219"/><stop stop-opacity="1" stop-color="rgb(65.525818%, 67.124939%, 81.506348%)" offset="0.328125"/><stop stop-opacity="1" stop-color="rgb(65.177917%, 66.778564%, 81.248474%)" offset="0.332031"/><stop stop-opacity="1" stop-color="rgb(64.831543%, 66.430664%, 80.989075%)" offset="0.335938"/><stop stop-opacity="1" stop-color="rgb(64.483643%, 66.08429%, 80.731201%)" offset="0.339844"/><stop stop-opacity="1" stop-color="rgb(64.135742%, 65.736389%, 80.471802%)" offset="0.34375"/><stop stop-opacity="1" stop-color="rgb(63.789368%, 65.388489%, 80.213928%)" offset="0.347656"/><stop stop-opacity="1" stop-color="rgb(63.441467%, 65.042114%, 79.954529%)" offset="0.351562"/><stop stop-opacity="1" stop-color="rgb(63.095093%, 64.694214%, 79.696655%)" offset="0.355469"/><stop stop-opacity="1" stop-color="rgb(62.747192%, 64.347839%, 79.437256%)" offset="0.359375"/><stop stop-opacity="1" stop-color="rgb(62.400818%, 63.999939%, 79.179382%)" offset="0.363281"/><stop stop-opacity="1" stop-color="rgb(62.052917%, 63.653564%, 78.919983%)" offset="0.367188"/><stop stop-opacity="1" stop-color="rgb(61.706543%, 63.305664%, 78.662109%)" offset="0.371094"/><stop stop-opacity="1" stop-color="rgb(61.358643%, 62.95929%, 78.40271%)" offset="0.375"/><stop stop-opacity="1" stop-color="rgb(61.010742%, 62.611389%, 78.144836%)" offset="0.378906"/><stop stop-opacity="1" stop-color="rgb(60.664368%, 62.263489%, 77.885437%)" offset="0.382812"/><stop stop-opacity="1" stop-color="rgb(60.316467%, 61.917114%, 77.627563%)" offset="0.386719"/><stop stop-opacity="1" stop-color="rgb(59.970093%, 61.569214%, 77.368164%)" offset="0.390625"/><stop stop-opacity="1" stop-color="rgb(59.622192%, 61.222839%, 77.108765%)" offset="0.394531"/><stop stop-opacity="1" stop-color="rgb(59.275818%, 60.874939%, 76.850891%)" offset="0.398438"/><stop stop-opacity="1" stop-color="rgb(58.927917%, 60.528564%, 76.591492%)" offset="0.402344"/><stop stop-opacity="1" stop-color="rgb(58.581543%, 60.180664%, 76.333618%)" offset="0.40625"/><stop stop-opacity="1" stop-color="rgb(58.233643%, 59.83429%, 76.074219%)" offset="0.410156"/><stop stop-opacity="1" stop-color="rgb(57.885742%, 59.486389%, 75.816345%)" offset="0.414062"/><stop stop-opacity="1" stop-color="rgb(57.539368%, 59.138489%, 75.556946%)" offset="0.417969"/><stop stop-opacity="1" stop-color="rgb(57.191467%, 58.792114%, 75.299072%)" offset="0.421875"/><stop stop-opacity="1" stop-color="rgb(56.845093%, 58.444214%, 75.039673%)" offset="0.425781"/><stop stop-opacity="1" stop-color="rgb(56.497192%, 58.097839%, 74.781799%)" offset="0.429688"/><stop stop-opacity="1" stop-color="rgb(56.150818%, 57.749939%, 74.5224%)" offset="0.433594"/><stop stop-opacity="1" stop-color="rgb(55.802917%, 57.403564%, 74.264526%)" offset="0.4375"/><stop stop-opacity="1" stop-color="rgb(55.456543%, 57.055664%, 74.005127%)" offset="0.441406"/><stop stop-opacity="1" stop-color="rgb(55.108643%, 56.70929%, 73.747253%)" offset="0.445312"/><stop stop-opacity="1" stop-color="rgb(54.760742%, 56.361389%, 73.487854%)" offset="0.449219"/><stop stop-opacity="1" stop-color="rgb(54.414368%, 56.013489%, 73.22998%)" offset="0.453125"/><stop stop-opacity="1" stop-color="rgb(54.066467%, 55.667114%, 72.970581%)" offset="0.457031"/><stop stop-opacity="1" stop-color="rgb(53.720093%, 55.319214%, 72.711182%)" offset="0.460938"/><stop stop-opacity="1" stop-color="rgb(53.372192%, 54.972839%, 72.453308%)" offset="0.464844"/><stop stop-opacity="1" stop-color="rgb(53.025818%, 54.624939%, 72.193909%)" offset="0.46875"/><stop stop-opacity="1" stop-color="rgb(52.677917%, 54.278564%, 71.936035%)" offset="0.472656"/><stop stop-opacity="1" stop-color="rgb(52.331543%, 53.930664%, 71.676636%)" offset="0.476562"/><stop stop-opacity="1" stop-color="rgb(51.983643%, 53.58429%, 71.418762%)" offset="0.480469"/><stop stop-opacity="1" stop-color="rgb(51.635742%, 53.236389%, 71.159363%)" offset="0.484375"/><stop stop-opacity="1" stop-color="rgb(51.289368%, 52.888489%, 70.901489%)" offset="0.488281"/><stop stop-opacity="1" stop-color="rgb(50.941467%, 52.542114%, 70.64209%)" offset="0.492188"/><stop stop-opacity="1" stop-color="rgb(50.595093%, 52.194214%, 70.384216%)" offset="0.496094"/><stop stop-opacity="1" stop-color="rgb(50.247192%, 51.847839%, 70.124817%)" offset="0.5"/><stop stop-opacity="1" stop-color="rgb(49.900818%, 51.499939%, 69.866943%)" offset="0.503906"/><stop stop-opacity="1" stop-color="rgb(49.552917%, 51.153564%, 69.607544%)" offset="0.507812"/><stop stop-opacity="1" stop-color="rgb(49.206543%, 50.805664%, 69.34967%)" offset="0.511719"/><stop stop-opacity="1" stop-color="rgb(48.858643%, 50.45929%, 69.090271%)" offset="0.515625"/><stop stop-opacity="1" stop-color="rgb(48.510742%, 50.111389%, 68.832397%)" offset="0.519531"/><stop stop-opacity="1" stop-color="rgb(48.164368%, 49.763489%, 68.572998%)" offset="0.523438"/><stop stop-opacity="1" stop-color="rgb(47.816467%, 49.417114%, 68.313599%)" offset="0.527344"/><stop stop-opacity="1" stop-color="rgb(47.470093%, 49.069214%, 68.055725%)" offset="0.53125"/><stop stop-opacity="1" stop-color="rgb(47.122192%, 48.722839%, 67.796326%)" offset="0.535156"/><stop stop-opacity="1" stop-color="rgb(46.775818%, 48.374939%, 67.538452%)" offset="0.539062"/><stop stop-opacity="1" stop-color="rgb(46.427917%, 48.028564%, 67.279053%)" offset="0.542969"/><stop stop-opacity="1" stop-color="rgb(46.081543%, 47.680664%, 67.021179%)" offset="0.546875"/><stop stop-opacity="1" stop-color="rgb(45.733643%, 47.33429%, 66.76178%)" offset="0.550781"/><stop stop-opacity="1" stop-color="rgb(45.385742%, 46.986389%, 66.503906%)" offset="0.554688"/><stop stop-opacity="1" stop-color="rgb(45.039368%, 46.638489%, 66.244507%)" offset="0.558594"/><stop stop-opacity="1" stop-color="rgb(44.691467%, 46.292114%, 65.986633%)" offset="0.5625"/><stop stop-opacity="1" stop-color="rgb(44.345093%, 45.944214%, 65.727234%)" offset="0.566406"/><stop stop-opacity="1" stop-color="rgb(43.997192%, 45.597839%, 65.46936%)" offset="0.570312"/><stop stop-opacity="1" stop-color="rgb(43.650818%, 45.249939%, 65.209961%)" offset="0.574219"/><stop stop-opacity="1" stop-color="rgb(43.302917%, 44.903564%, 64.952087%)" offset="0.578125"/><stop stop-opacity="1" stop-color="rgb(42.956543%, 44.555664%, 64.692688%)" offset="0.582031"/><stop stop-opacity="1" stop-color="rgb(42.608643%, 44.20929%, 64.434814%)" offset="0.585938"/><stop stop-opacity="1" stop-color="rgb(42.260742%, 43.861389%, 64.175415%)" offset="0.589844"/><stop stop-opacity="1" stop-color="rgb(41.914368%, 43.513489%, 63.916016%)" offset="0.59375"/><stop stop-opacity="1" stop-color="rgb(41.566467%, 43.167114%, 63.658142%)" offset="0.597656"/><stop stop-opacity="1" stop-color="rgb(41.220093%, 42.819214%, 63.398743%)" offset="0.601562"/><stop stop-opacity="1" stop-color="rgb(40.872192%, 42.472839%, 63.140869%)" offset="0.605469"/><stop stop-opacity="1" stop-color="rgb(40.525818%, 42.124939%, 62.88147%)" offset="0.609375"/><stop stop-opacity="1" stop-color="rgb(40.177917%, 41.778564%, 62.623596%)" offset="0.613281"/><stop stop-opacity="1" stop-color="rgb(39.831543%, 41.430664%, 62.364197%)" offset="0.617188"/><stop stop-opacity="1" stop-color="rgb(39.483643%, 41.08429%, 62.106323%)" offset="0.621094"/><stop stop-opacity="1" stop-color="rgb(39.135742%, 40.736389%, 61.846924%)" offset="0.625"/><stop stop-opacity="1" stop-color="rgb(38.789368%, 40.388489%, 61.58905%)" offset="0.628906"/><stop stop-opacity="1" stop-color="rgb(38.441467%, 40.042114%, 61.329651%)" offset="0.632812"/><stop stop-opacity="1" stop-color="rgb(38.095093%, 39.694214%, 61.071777%)" offset="0.636719"/><stop stop-opacity="1" stop-color="rgb(37.747192%, 39.347839%, 60.812378%)" offset="0.640625"/><stop stop-opacity="1" stop-color="rgb(37.400818%, 38.999939%, 60.554504%)" offset="0.644531"/><stop stop-opacity="1" stop-color="rgb(37.052917%, 38.653564%, 60.295105%)" offset="0.648438"/><stop stop-opacity="1" stop-color="rgb(36.706543%, 38.305664%, 60.037231%)" offset="0.652344"/><stop stop-opacity="1" stop-color="rgb(36.358643%, 37.95929%, 59.777832%)" offset="0.65625"/><stop stop-opacity="1" stop-color="rgb(36.010742%, 37.611389%, 59.518433%)" offset="0.660156"/><stop stop-opacity="1" stop-color="rgb(35.664368%, 37.263489%, 59.260559%)" offset="0.664062"/><stop stop-opacity="1" stop-color="rgb(35.316467%, 36.917114%, 59.00116%)" offset="0.667969"/><stop stop-opacity="1" stop-color="rgb(34.970093%, 36.569214%, 58.743286%)" offset="0.671875"/><stop stop-opacity="1" stop-color="rgb(34.622192%, 36.222839%, 58.483887%)" offset="0.675781"/><stop stop-opacity="1" stop-color="rgb(34.275818%, 35.874939%, 58.226013%)" offset="0.679688"/><stop stop-opacity="1" stop-color="rgb(33.927917%, 35.528564%, 57.966614%)" offset="0.683594"/><stop stop-opacity="1" stop-color="rgb(33.581543%, 35.180664%, 57.70874%)" offset="0.6875"/><stop stop-opacity="1" stop-color="rgb(33.233643%, 34.83429%, 57.449341%)" offset="0.691406"/><stop stop-opacity="1" stop-color="rgb(32.885742%, 34.486389%, 57.191467%)" offset="0.695312"/><stop stop-opacity="1" stop-color="rgb(32.539368%, 34.138489%, 56.932068%)" offset="0.699219"/><stop stop-opacity="1" stop-color="rgb(32.191467%, 33.792114%, 56.674194%)" offset="0.703125"/><stop stop-opacity="1" stop-color="rgb(31.845093%, 33.444214%, 56.414795%)" offset="0.707031"/><stop stop-opacity="1" stop-color="rgb(31.497192%, 33.097839%, 56.156921%)" offset="0.710938"/><stop stop-opacity="1" stop-color="rgb(31.150818%, 32.749939%, 55.897522%)" offset="0.714844"/><stop stop-opacity="1" stop-color="rgb(30.802917%, 32.403564%, 55.639648%)" offset="0.71875"/><stop stop-opacity="1" stop-color="rgb(30.456543%, 32.055664%, 55.380249%)" offset="0.722656"/><stop stop-opacity="1" stop-color="rgb(30.108643%, 31.70929%, 55.122375%)" offset="0.726562"/><stop stop-opacity="1" stop-color="rgb(29.760742%, 31.361389%, 54.862976%)" offset="0.730469"/><stop stop-opacity="1" stop-color="rgb(29.414368%, 31.013489%, 54.603577%)" offset="0.734375"/><stop stop-opacity="1" stop-color="rgb(29.066467%, 30.667114%, 54.345703%)" offset="0.738281"/><stop stop-opacity="1" stop-color="rgb(28.720093%, 30.319214%, 54.086304%)" offset="0.742188"/><stop stop-opacity="1" stop-color="rgb(28.372192%, 29.972839%, 53.82843%)" offset="0.746094"/><stop stop-opacity="1" stop-color="rgb(28.199768%, 29.798889%, 53.69873%)" offset="1"/></radialGradient></defs><g clip-path="url(#2dd5f4a561)"><g clip-path="url(#30523d13dc)"><path fill="#363636" d="M 8.328125 43.550781 L 366.140625 43.550781 L 366.140625 362.714844 L 8.328125 362.714844 Z M 8.328125 43.550781 " fill-opacity="1" fill-rule="nonzero"/></g></g><g clip-path="url(#78e9d46667)"><g clip-path="url(#133f8f39db)"><path stroke-linecap="butt" transform="matrix(0.908972, 0, 0, 0.908972, 8.328942, 43.552245)" fill="none" stroke-linejoin="miter" d="M 49.505587 -0.00161049 L 344.713793 -0.00161049 C 357.842466 -0.00161049 370.433959 5.215479 379.720723 14.497945 C 389.003189 23.784709 394.220278 36.376202 394.220278 49.504875 L 394.220278 301.614075 C 394.220278 314.742748 389.003189 327.334241 379.720723 336.621005 C 370.433959 345.903471 357.842466 351.120561 344.713793 351.120561 L 49.505587 351.120561 C 36.376914 351.120561 23.785421 345.903471 14.498657 336.621005 C 5.216191 327.334241 -0.000898414 314.742748 -0.000898414 301.614075 L -0.000898414 49.504875 C -0.000898414 36.376202 5.216191 23.784709 14.498657 14.497945 C 23.785421 5.215479 36.376914 -0.00161049 49.505587 -0.00161049 Z M 49.505587 -0.00161049 " stroke="#000000" stroke-width="11.551512" stroke-opacity="1" stroke-miterlimit="4"/></g></g><g clip-path="url(#a87b96f949)"><g clip-path="url(#6e20479443)"><g clip-path="url(#50e2eeb3d6)"><path fill="url(#7a5c4412fb)" d="M 29.738281 121.347656 L 29.738281 284.855469 L 345.46875 284.855469 L 345.46875 121.347656 Z M 29.738281 121.347656 " fill-rule="nonzero"/></g></g></g><path fill="#777bb3" d="M 187.605469 278.910156 C 271.382812 278.910156 339.300781 245 339.300781 203.167969 C 339.300781 161.335938 271.382812 127.425781 187.605469 127.425781 C 103.824219 127.425781 35.90625 161.335938 35.90625 203.167969 C 35.90625 245 103.824219 278.910156 187.605469 278.910156 " fill-opacity="1" fill-rule="nonzero"/><path fill="#000000" d="M 115.507812 212.554688 C 122.394531 212.554688 127.539062 211.304688 130.792969 208.835938 C 134.011719 206.394531 136.234375 202.164062 137.398438 196.261719 C 138.484375 190.746094 138.070312 186.894531 136.167969 184.816406 C 134.222656 182.691406 130.019531 181.617188 123.667969 181.617188 L 112.660156 181.617188 L 106.554688 212.554688 Z M 79.5 250.671875 C 78.988281 250.671875 78.503906 250.445312 78.179688 250.054688 C 77.835938 249.648438 77.714844 249.183594 77.820312 248.660156 L 93.992188 166.667969 C 94.070312 166.273438 94.269531 165.945312 94.585938 165.6875 C 94.902344 165.433594 95.265625 165.304688 95.675781 165.304688 L 130.535156 165.304688 C 141.492188 165.304688 149.648438 168.230469 154.773438 174.015625 C 159.925781 179.828125 161.515625 187.953125 159.503906 198.160156 C 158.683594 202.320312 157.273438 206.183594 155.3125 209.640625 C 153.347656 213.105469 150.753906 216.308594 147.597656 219.167969 C 143.820312 222.648438 139.542969 225.175781 134.902344 226.660156 C 130.332031 228.128906 124.464844 228.871094 117.457031 228.871094 L 103.34375 228.871094 L 99.3125 249.304688 C 99.234375 249.703125 99.035156 250.027344 98.71875 250.285156 C 98.402344 250.542969 98.039062 250.671875 97.628906 250.671875 L 79.496094 250.671875 Z M 79.5 250.671875 " fill-opacity="1" fill-rule="nonzero"/><path fill="#ffffff" d="M 114.074219 183.304688 L 123.671875 183.304688 C 131.332031 183.304688 133.996094 184.960938 134.898438 185.945312 C 136.398438 187.585938 136.683594 191.042969 135.71875 195.941406 C 134.636719 201.425781 132.625 205.316406 129.746094 207.5 C 126.800781 209.734375 122.007812 210.867188 115.507812 210.867188 L 108.636719 210.867188 Z M 130.535156 163.613281 L 95.675781 163.613281 C 95.277344 163.613281 94.894531 163.679688 94.519531 163.8125 C 94.144531 163.945312 93.804688 164.136719 93.496094 164.386719 C 93.191406 164.632812 92.933594 164.925781 92.730469 165.261719 C 92.527344 165.601562 92.390625 165.960938 92.3125 166.34375 L 76.140625 248.34375 C 76.089844 248.585938 76.070312 248.832031 76.078125 249.082031 C 76.085938 249.332031 76.121094 249.574219 76.183594 249.816406 C 76.246094 250.058594 76.332031 250.289062 76.445312 250.511719 C 76.5625 250.734375 76.699219 250.941406 76.859375 251.132812 C 77.019531 251.324219 77.199219 251.496094 77.398438 251.648438 C 77.597656 251.804688 77.8125 251.933594 78.039062 252.039062 C 78.269531 252.144531 78.507812 252.226562 78.753906 252.28125 C 79 252.335938 79.25 252.363281 79.5 252.363281 L 97.628906 252.363281 C 98.027344 252.363281 98.414062 252.296875 98.789062 252.164062 C 99.164062 252.03125 99.503906 251.839844 99.808594 251.589844 C 100.117188 251.339844 100.371094 251.046875 100.574219 250.710938 C 100.777344 250.375 100.917969 250.015625 100.992188 249.628906 L 104.753906 230.5625 L 117.460938 230.5625 C 124.644531 230.5625 130.691406 229.789062 135.433594 228.269531 C 140.308594 226.707031 144.796875 224.0625 148.769531 220.402344 C 152.054688 217.425781 154.765625 214.082031 156.808594 210.46875 C 158.851562 206.855469 160.332031 202.820312 161.1875 198.484375 C 163.308594 187.738281 161.585938 179.132812 156.066406 172.910156 C 150.597656 166.746094 142.011719 163.617188 130.539062 163.617188 M 104.484375 214.25 L 115.511719 214.25 C 122.820312 214.25 128.261719 212.894531 131.839844 210.179688 C 135.417969 207.464844 137.832031 202.9375 139.085938 196.589844 C 140.285156 190.496094 139.738281 186.195312 137.445312 183.691406 C 135.152344 181.183594 130.558594 179.933594 123.675781 179.933594 L 111.253906 179.933594 L 104.484375 214.246094 M 130.539062 166.992188 C 141.027344 166.992188 148.675781 169.707031 153.484375 175.128906 C 158.292969 180.550781 159.742188 188.121094 157.824219 197.839844 C 157.035156 201.84375 155.699219 205.503906 153.816406 208.820312 C 151.9375 212.140625 149.476562 215.175781 146.441406 217.925781 C 142.820312 221.265625 138.796875 223.640625 134.375 225.058594 C 129.949219 226.480469 124.3125 227.1875 117.460938 227.1875 L 101.933594 227.1875 L 97.632812 248.984375 L 79.503906 248.984375 L 95.679688 167 L 130.542969 167 " fill-opacity="1" fill-rule="nonzero"/><path fill="#000000" d="M 201.066406 228.871094 C 200.554688 228.871094 200.070312 228.644531 199.746094 228.253906 C 199.421875 227.867188 199.289062 227.355469 199.386719 226.859375 L 206.542969 190.582031 C 207.222656 187.132812 207.054688 184.65625 206.070312 183.609375 C 205.464844 182.96875 203.65625 181.894531 198.300781 181.894531 L 185.335938 181.894531 L 176.339844 227.503906 C 176.261719 227.898438 176.066406 228.226562 175.75 228.484375 C 175.433594 228.742188 175.070312 228.871094 174.660156 228.871094 L 156.675781 228.871094 C 156.417969 228.871094 156.175781 228.816406 155.941406 228.707031 C 155.710938 228.601562 155.515625 228.449219 155.351562 228.253906 C 155.191406 228.0625 155.078125 227.839844 155.015625 227.597656 C 154.949219 227.351562 154.945312 227.105469 154.992188 226.859375 L 171.167969 144.867188 C 171.246094 144.472656 171.441406 144.144531 171.757812 143.886719 C 172.074219 143.632812 172.4375 143.503906 172.847656 143.503906 L 190.835938 143.503906 C 191.089844 143.503906 191.332031 143.554688 191.566406 143.664062 C 191.796875 143.769531 191.992188 143.921875 192.15625 144.117188 C 192.320312 144.3125 192.433594 144.53125 192.496094 144.773438 C 192.558594 145.019531 192.566406 145.265625 192.515625 145.511719 L 188.613281 165.300781 L 202.558594 165.300781 C 213.179688 165.300781 220.382812 167.148438 224.582031 170.941406 C 228.863281 174.816406 230.191406 181.007812 228.546875 189.347656 L 221.019531 227.503906 C 220.941406 227.902344 220.746094 228.226562 220.429688 228.484375 C 220.113281 228.742188 219.75 228.871094 219.339844 228.871094 Z M 201.066406 228.871094 " fill-opacity="1" fill-rule="nonzero"/><path fill="#ffffff" d="M 190.835938 141.816406 L 172.851562 141.816406 C 172.453125 141.816406 172.066406 141.882812 171.691406 142.011719 C 171.316406 142.144531 170.976562 142.335938 170.671875 142.585938 C 170.363281 142.835938 170.109375 143.128906 169.90625 143.464844 C 169.703125 143.800781 169.5625 144.160156 169.488281 144.546875 L 153.3125 226.539062 C 153.265625 226.78125 153.242188 227.027344 153.25 227.277344 C 153.257812 227.527344 153.292969 227.773438 153.355469 228.011719 C 153.417969 228.253906 153.503906 228.484375 153.621094 228.707031 C 153.734375 228.929688 153.871094 229.136719 154.03125 229.328125 C 154.191406 229.519531 154.371094 229.691406 154.570312 229.847656 C 154.769531 230 154.984375 230.128906 155.214844 230.234375 C 155.441406 230.339844 155.679688 230.421875 155.925781 230.476562 C 156.171875 230.53125 156.421875 230.558594 156.675781 230.558594 L 174.660156 230.558594 C 175.058594 230.558594 175.445312 230.492188 175.820312 230.359375 C 176.191406 230.226562 176.535156 230.035156 176.839844 229.785156 C 177.148438 229.535156 177.402344 229.242188 177.605469 228.90625 C 177.808594 228.570312 177.949219 228.210938 178.023438 227.824219 L 186.75 183.582031 L 198.300781 183.582031 C 203.648438 183.582031 204.769531 184.707031 204.816406 184.757812 C 205.140625 185.101562 205.566406 186.691406 204.863281 190.257812 L 197.707031 226.539062 C 197.660156 226.78125 197.636719 227.027344 197.644531 227.277344 C 197.652344 227.527344 197.6875 227.773438 197.75 228.011719 C 197.8125 228.253906 197.898438 228.484375 198.015625 228.707031 C 198.128906 228.929688 198.265625 229.136719 198.425781 229.328125 C 198.585938 229.519531 198.765625 229.691406 198.96875 229.847656 C 199.167969 230 199.378906 230.128906 199.609375 230.234375 C 199.835938 230.339844 200.074219 230.421875 200.320312 230.476562 C 200.566406 230.53125 200.816406 230.558594 201.070312 230.558594 L 219.339844 230.558594 C 219.738281 230.558594 220.125 230.492188 220.5 230.359375 C 220.875 230.226562 221.214844 230.035156 221.519531 229.785156 C 221.828125 229.535156 222.082031 229.242188 222.285156 228.90625 C 222.488281 228.570312 222.628906 228.210938 222.703125 227.824219 L 230.230469 189.671875 C 231.996094 180.714844 230.484375 173.996094 225.742188 169.699219 C 221.214844 165.605469 213.632812 163.613281 202.558594 163.613281 L 190.691406 163.613281 L 194.199219 145.832031 C 194.25 145.589844 194.269531 145.34375 194.261719 145.09375 C 194.253906 144.84375 194.21875 144.601562 194.15625 144.359375 C 194.097656 144.117188 194.007812 143.886719 193.894531 143.664062 C 193.78125 143.441406 193.640625 143.234375 193.480469 143.042969 C 193.320312 142.851562 193.140625 142.679688 192.941406 142.523438 C 192.742188 142.371094 192.527344 142.242188 192.300781 142.136719 C 192.070312 142.03125 191.832031 141.949219 191.585938 141.894531 C 191.339844 141.839844 191.089844 141.8125 190.835938 141.8125 M 190.835938 145.191406 L 186.539062 166.988281 L 202.5625 166.988281 C 212.644531 166.988281 219.597656 168.722656 223.425781 172.183594 C 227.253906 175.648438 228.398438 181.265625 226.867188 189.027344 L 219.34375 227.179688 L 201.070312 227.179688 L 208.226562 190.902344 C 209.039062 186.777344 208.742188 183.960938 207.328125 182.460938 C 205.914062 180.960938 202.90625 180.207031 198.304688 180.207031 L 183.925781 180.207031 L 174.660156 227.179688 L 156.675781 227.179688 L 172.851562 145.191406 L 190.835938 145.191406 " fill-opacity="1" fill-rule="nonzero"/><path fill="#000000" d="M 257.007812 212.554688 C 263.894531 212.554688 269.039062 211.304688 272.292969 208.835938 C 275.511719 206.394531 277.734375 202.164062 278.902344 196.261719 C 279.988281 190.746094 279.574219 186.894531 277.671875 184.816406 C 275.726562 182.691406 271.519531 181.617188 265.167969 181.617188 L 254.160156 181.617188 L 248.058594 212.554688 Z M 221 250.667969 C 220.488281 250.667969 220.003906 250.445312 219.679688 250.054688 C 219.335938 249.644531 219.214844 249.179688 219.316406 248.660156 L 235.492188 166.667969 C 235.570312 166.269531 235.769531 165.945312 236.085938 165.6875 C 236.402344 165.429688 236.765625 165.300781 237.175781 165.300781 L 272.035156 165.300781 C 282.992188 165.300781 291.144531 168.226562 296.273438 174.015625 C 301.425781 179.824219 303.015625 187.949219 301 198.160156 C 300.179688 202.320312 298.769531 206.179688 296.808594 209.640625 C 294.84375 213.101562 292.25 216.308594 289.09375 219.164062 C 285.316406 222.648438 281.042969 225.175781 276.398438 226.660156 C 271.828125 228.125 265.960938 228.871094 258.957031 228.871094 L 244.832031 228.871094 L 240.800781 249.304688 C 240.722656 249.699219 240.527344 250.027344 240.210938 250.285156 C 239.894531 250.542969 239.527344 250.671875 239.117188 250.667969 L 220.992188 250.667969 Z M 221 250.667969 " fill-opacity="1" fill-rule="nonzero"/><path fill="#ffffff" d="M 255.574219 183.304688 L 265.171875 183.304688 C 272.832031 183.304688 275.496094 184.960938 276.398438 185.945312 C 277.902344 187.585938 278.183594 191.042969 277.21875 195.941406 C 276.136719 201.425781 274.125 205.316406 271.25 207.5 C 268.300781 209.734375 263.507812 210.867188 257.007812 210.867188 L 250.136719 210.867188 Z M 272.035156 163.613281 L 237.175781 163.613281 C 236.777344 163.613281 236.390625 163.679688 236.015625 163.8125 C 235.644531 163.945312 235.300781 164.136719 234.996094 164.386719 C 234.6875 164.632812 234.433594 164.925781 234.230469 165.261719 C 234.027344 165.601562 233.886719 165.960938 233.8125 166.34375 L 217.636719 248.34375 C 217.585938 248.585938 217.566406 248.832031 217.574219 249.082031 C 217.582031 249.332031 217.617188 249.574219 217.679688 249.816406 C 217.742188 250.058594 217.828125 250.289062 217.941406 250.511719 C 218.058594 250.734375 218.195312 250.941406 218.355469 251.132812 C 218.515625 251.324219 218.695312 251.496094 218.894531 251.648438 C 219.09375 251.804688 219.308594 251.933594 219.539062 252.039062 C 219.765625 252.144531 220.003906 252.226562 220.25 252.28125 C 220.496094 252.335938 220.746094 252.363281 221 252.363281 L 239.128906 252.363281 C 239.523438 252.363281 239.910156 252.296875 240.285156 252.164062 C 240.660156 252.03125 241 251.839844 241.304688 251.589844 C 241.613281 251.339844 241.867188 251.046875 242.070312 250.710938 C 242.273438 250.375 242.414062 250.015625 242.488281 249.628906 L 246.25 230.5625 L 258.957031 230.5625 C 266.140625 230.5625 272.1875 229.789062 276.929688 228.269531 C 281.804688 226.707031 286.292969 224.0625 290.265625 220.402344 C 293.550781 217.425781 296.253906 214.082031 298.304688 210.46875 C 300.355469 206.855469 301.828125 202.820312 302.683594 198.484375 C 304.804688 187.738281 303.082031 179.132812 297.5625 172.910156 C 292.09375 166.746094 283.507812 163.617188 272.035156 163.617188 M 245.980469 214.25 L 257.007812 214.25 C 264.316406 214.25 269.757812 212.894531 273.335938 210.179688 C 276.914062 207.464844 279.328125 202.9375 280.582031 196.589844 C 281.78125 190.496094 281.234375 186.195312 278.941406 183.691406 C 276.648438 181.183594 272.054688 179.933594 265.171875 179.933594 L 252.75 179.933594 L 245.980469 214.246094 M 272.035156 166.992188 C 282.523438 166.992188 290.171875 169.707031 294.980469 175.128906 C 299.789062 180.550781 301.238281 188.121094 299.320312 197.839844 C 298.53125 201.84375 297.195312 205.503906 295.3125 208.820312 C 293.433594 212.140625 290.972656 215.175781 287.9375 217.925781 C 284.316406 221.265625 280.292969 223.640625 275.871094 225.058594 C 271.445312 226.480469 265.808594 227.1875 258.957031 227.1875 L 243.429688 227.1875 L 239.128906 248.984375 L 221 248.984375 L 237.175781 166.996094 L 272.035156 166.996094 " fill-opacity="1" fill-rule="nonzero"/></svg>