<svg xmlns="http://www.w3.org/2000/svg" xmlns:xlink="http://www.w3.org/1999/xlink" width="500" zoomAndPan="magnify" viewBox="0 0 375 374.999991" height="500" preserveAspectRatio="xMidYMid meet" version="1.0"><defs><clipPath id="5503ee2858"><path d="M 9.878906 43.550781 L 365 43.550781 L 365 359.953125 L 9.878906 359.953125 Z M 9.878906 43.550781 " clip-rule="nonzero"/></clipPath><clipPath id="7624b3277f"><path d="M 36.878906 43.550781 L 338.121094 43.550781 C 345.28125 43.550781 352.152344 46.394531 357.214844 51.457031 C 362.277344 56.519531 365.121094 63.386719 365.121094 70.550781 L 365.121094 332.953125 C 365.121094 340.117188 362.277344 346.984375 357.214844 352.046875 C 352.152344 357.109375 345.28125 359.953125 338.121094 359.953125 L 36.878906 359.953125 C 29.71875 359.953125 22.847656 357.109375 17.785156 352.046875 C 12.722656 346.984375 9.878906 340.117188 9.878906 332.953125 L 9.878906 70.550781 C 9.878906 63.386719 12.722656 56.519531 17.785156 51.457031 C 22.847656 46.394531 29.71875 43.550781 36.878906 43.550781 Z M 36.878906 43.550781 " clip-rule="nonzero"/></clipPath><clipPath id="4beaab8a1b"><path d="M 9.878906 43.554688 L 364.886719 43.554688 L 364.886719 360 L 9.878906 360 Z M 9.878906 43.554688 " clip-rule="nonzero"/></clipPath><clipPath id="ea8d535f93"><path d="M 36.875 43.554688 L 338.109375 43.554688 C 345.269531 43.554688 352.136719 46.398438 357.203125 51.460938 C 362.265625 56.523438 365.109375 63.390625 365.109375 70.550781 L 365.109375 332.949219 C 365.109375 340.109375 362.265625 346.976562 357.203125 352.039062 C 352.136719 357.101562 345.269531 359.949219 338.109375 359.949219 L 36.875 359.949219 C 29.714844 359.949219 22.847656 357.101562 17.785156 352.039062 C 12.722656 346.976562 9.878906 340.109375 9.878906 332.949219 L 9.878906 70.550781 C 9.878906 63.390625 12.722656 56.523438 17.785156 51.460938 C 22.847656 46.398438 29.714844 43.554688 36.875 43.554688 Z M 36.875 43.554688 " clip-rule="nonzero"/></clipPath><clipPath id="55b854608f"><path d="M 32.144531 67 L 343.074219 67 L 343.074219 337 L 32.144531 337 Z M 32.144531 67 " clip-rule="nonzero"/></clipPath></defs><g clip-path="url(#5503ee2858)"><g clip-path="url(#7624b3277f)"><path fill="#363636" d="M 9.878906 43.550781 L 364.597656 43.550781 L 364.597656 359.953125 L 9.878906 359.953125 Z M 9.878906 43.550781 " fill-opacity="1" fill-rule="nonzero"/></g></g><g clip-path="url(#4beaab8a1b)"><g clip-path="url(#ea8d535f93)"><path stroke-linecap="butt" transform="matrix(1.191303, 0, 0, 1.191303, 9.877805, 43.553654)" fill="none" stroke-linejoin="miter" d="M 22.661909 0.000867588 L 275.523219 0.000867588 C 281.533578 0.000867588 287.298013 2.38796 291.550841 6.63751 C 295.800391 10.887059 298.187483 16.651494 298.187483 22.661853 L 298.187483 242.923609 C 298.187483 248.933968 295.800391 254.698403 291.550841 258.947952 C 287.298013 263.197502 281.533578 265.587873 275.523219 265.587873 L 22.661909 265.587873 C 16.651551 265.587873 10.887116 263.197502 6.637566 258.947952 C 2.388017 254.698403 0.000924365 248.933968 0.000924365 242.923609 L 0.000924365 22.661853 C 0.000924365 16.651494 2.388017 10.887059 6.637566 6.63751 C 10.887116 2.38796 16.651551 0.000867588 22.661909 0.000867588 Z M 22.661909 0.000867588 " stroke="#ffffff" stroke-width="2.518251" stroke-opacity="1" stroke-miterlimit="4"/></g></g><path fill="#53c1de" d="M 215.375 201.777344 C 215.375 186.890625 202.941406 174.824219 187.609375 174.824219 C 172.273438 174.824219 159.84375 186.890625 159.84375 201.777344 C 159.84375 216.664062 172.273438 228.730469 187.609375 228.730469 C 202.941406 228.730469 215.375 216.664062 215.375 201.777344 Z M 215.375 201.777344 " fill-opacity="1" fill-rule="nonzero"/><g clip-path="url(#55b854608f)"><path fill="#53c1de" d="M 277.78125 151.738281 C 283.644531 128.609375 291.015625 85.71875 265.035156 71.175781 C 239.175781 56.699219 205.523438 84.441406 187.753906 101.09375 C 170.035156 84.605469 135.4375 56.984375 109.476562 71.570312 C 83.628906 86.097656 91.601562 128.277344 97.59375 151.550781 C 73.480469 158.199219 32.144531 172.519531 32.144531 201.777344 C 32.144531 230.949219 73.4375 246.53125 97.40625 253.171875 C 91.390625 276.574219 83.820312 318.152344 109.703125 332.648438 C 135.757812 347.230469 170.246094 320.265625 188.183594 303.429688 C 206.066406 320.179688 239.394531 347.324219 265.261719 332.789062 C 291.207031 318.207031 284.449219 275.894531 278.453125 252.484375 C 301.691406 245.828125 343.074219 230.585938 343.074219 201.777344 C 343.074219 172.800781 301.515625 158.363281 277.78125 151.738281 Z M 274.835938 240.078125 C 270.902344 227.984375 265.589844 215.125 259.09375 201.839844 C 265.292969 188.871094 270.398438 176.175781 274.226562 164.160156 C 291.625 169.058594 329.792969 180.25 329.792969 201.777344 C 329.792969 223.507812 293.164062 234.804688 274.835938 240.078125 Z M 258.605469 321.628906 C 239.304688 332.472656 210.640625 306.515625 197.429688 294.183594 C 206.195312 284.878906 214.949219 274.066406 223.496094 262.054688 C 238.527344 260.761719 252.726562 258.644531 265.605469 255.753906 C 269.824219 272.3125 277.988281 310.738281 258.605469 321.628906 Z M 116.339844 321.476562 C 97.039062 310.671875 105.859375 273.570312 110.285156 256.332031 C 123.019531 259.066406 137.121094 261.035156 152.1875 262.21875 C 160.789062 273.972656 169.796875 284.773438 178.878906 294.230469 C 167.660156 304.765625 135.730469 332.328125 116.339844 321.476562 Z M 45.425781 201.777344 C 45.425781 179.964844 83.363281 168.855469 101.160156 163.972656 C 105.050781 176.257812 110.15625 189.101562 116.3125 202.089844 C 110.074219 215.273438 104.898438 228.324219 100.972656 240.753906 C 84.003906 236.039062 45.425781 223.601562 45.425781 201.777344 Z M 116.132812 82.730469 C 135.511719 71.839844 165.582031 98.359375 178.445312 110.296875 C 169.414062 119.714844 160.484375 130.433594 151.957031 142.117188 C 137.335938 143.433594 123.335938 145.542969 110.46875 148.375 C 105.640625 129.605469 96.773438 93.609375 116.132812 82.730469 Z M 232.996094 156.132812 C 242.917969 157.347656 252.421875 158.964844 261.347656 160.941406 C 258.667969 169.277344 255.328125 177.996094 251.394531 186.929688 C 245.695312 176.429688 239.574219 166.140625 232.996094 156.132812 Z M 187.757812 119.511719 C 193.882812 125.953125 200.019531 133.148438 206.054688 140.953125 C 193.8125 140.390625 181.546875 140.390625 169.304688 140.945312 C 175.347656 133.210938 181.535156 126.027344 187.757812 119.511719 Z M 123.933594 186.921875 C 120.066406 178.015625 116.757812 169.261719 114.054688 160.804688 C 122.925781 158.878906 132.386719 157.300781 142.242188 156.105469 C 135.648438 166.09375 129.539062 176.378906 123.933594 186.921875 Z M 142.527344 248.367188 C 132.34375 247.261719 122.742188 245.769531 113.871094 243.894531 C 116.617188 235.289062 120 226.34375 123.949219 217.246094 C 129.628906 227.898438 135.832031 238.285156 142.527344 248.367188 Z M 188.125 284.953125 C 181.828125 278.359375 175.550781 271.066406 169.417969 263.21875 C 181.730469 263.6875 194.066406 263.691406 206.378906 263.15625 C 200.324219 271.144531 194.210938 278.449219 188.125 284.953125 Z M 251.523438 216.785156 C 255.679688 225.980469 259.179688 234.875 261.964844 243.335938 C 252.949219 245.332031 243.214844 246.941406 232.960938 248.136719 C 239.585938 237.9375 245.804688 227.488281 251.523438 216.785156 Z M 216.082031 249.699219 C 197.25 251.003906 178.296875 250.992188 159.457031 249.804688 C 148.75 234.625 139.222656 218.660156 130.996094 202.085938 C 139.183594 185.546875 148.640625 169.613281 159.296875 154.457031 C 178.152344 153.074219 197.121094 153.070312 215.972656 154.464844 C 226.539062 169.621094 235.984375 185.511719 244.359375 201.902344 C 236.082031 218.433594 226.574219 234.398438 216.082031 249.699219 Z M 258.398438 82.347656 C 277.785156 93.199219 269.15625 131.746094 264.921875 148.507812 C 252.023438 145.621094 238.011719 143.46875 223.347656 142.132812 C 214.804688 130.324219 205.949219 119.585938 197.066406 110.289062 C 210.09375 98.097656 239.203125 71.597656 258.398438 82.347656 Z M 258.398438 82.347656 " fill-opacity="1" fill-rule="evenodd"/></g></svg>