<svg xmlns="http://www.w3.org/2000/svg" xmlns:xlink="http://www.w3.org/1999/xlink" width="500" zoomAndPan="magnify" viewBox="0 0 375 374.999991" height="500" preserveAspectRatio="xMidYMid meet" version="1.0"><defs><g/><clipPath id="4c8b83329d"><path d="M 0 20.136719 L 375 20.136719 L 375 354.140625 L 0 354.140625 Z M 0 20.136719 " clip-rule="nonzero"/></clipPath><clipPath id="90e7521a20"><path d="M 48 20.136719 L 327 20.136719 C 353.507812 20.136719 375 41.628906 375 68.136719 L 375 306.140625 C 375 332.648438 353.507812 354.140625 327 354.140625 L 48 354.140625 C 21.492188 354.140625 0 332.648438 0 306.140625 L 0 68.136719 C 0 41.628906 21.492188 20.136719 48 20.136719 Z M 48 20.136719 " clip-rule="nonzero"/></clipPath></defs><g clip-path="url(#4c8b83329d)"><g clip-path="url(#90e7521a20)"><path fill="#004aad" d="M 0 20.136719 L 374.445312 20.136719 L 374.445312 354.140625 L 0 354.140625 Z M 0 20.136719 " fill-opacity="1" fill-rule="nonzero"/></g></g><g fill="#ffffff" fill-opacity="1"><g transform="translate(27.836287, 279.180485)"><g><path d="M 108.375 0 L 63.453125 0 L 63.453125 -174.4375 L 5.9375 -174.4375 L 5.9375 -211.8125 L 165.890625 -211.8125 L 165.890625 -174.4375 L 108.375 -174.4375 Z M 108.375 0 "/></g></g><g transform="translate(199.670373, 279.180485)"><g><path d="M 136.1875 -48.09375 C 136.1875 -31.488281 130.414062 -18.835938 118.875 -10.140625 C 107.332031 -1.453125 90.066406 2.890625 67.078125 2.890625 C 55.296875 2.890625 45.25 2.09375 36.9375 0.5 C 28.632812 -1.09375 20.863281 -3.429688 13.625 -6.515625 L 13.625 -43.03125 C 21.832031 -39.164062 31.078125 -35.925781 41.359375 -33.3125 C 51.648438 -30.707031 60.707031 -29.40625 68.53125 -29.40625 C 84.5625 -29.40625 92.578125 -34.039062 92.578125 -43.3125 C 92.578125 -46.789062 91.515625 -49.617188 89.390625 -51.796875 C 87.265625 -53.972656 83.59375 -56.4375 78.375 -59.1875 C 73.164062 -61.9375 66.210938 -65.144531 57.515625 -68.8125 C 45.054688 -74.03125 35.90625 -78.859375 30.0625 -83.296875 C 24.21875 -87.742188 19.96875 -92.84375 17.3125 -98.59375 C 14.65625 -104.34375 13.328125 -111.414062 13.328125 -119.8125 C 13.328125 -134.207031 18.90625 -145.335938 30.0625 -153.203125 C 41.21875 -161.078125 57.035156 -165.015625 77.515625 -165.015625 C 97.023438 -165.015625 116.003906 -160.765625 134.453125 -152.265625 L 121.125 -120.390625 C 113.007812 -123.867188 105.425781 -126.71875 98.375 -128.9375 C 91.320312 -131.164062 84.125 -132.28125 76.78125 -132.28125 C 63.75 -132.28125 57.234375 -128.753906 57.234375 -121.703125 C 57.234375 -117.742188 59.332031 -114.3125 63.53125 -111.40625 C 67.726562 -108.507812 76.925781 -104.210938 91.125 -98.515625 C 103.78125 -93.398438 113.050781 -88.617188 118.9375 -84.171875 C 124.832031 -79.734375 129.179688 -74.613281 131.984375 -68.8125 C 134.785156 -63.019531 136.1875 -56.113281 136.1875 -48.09375 Z M 136.1875 -48.09375 "/></g></g></g></svg>